<?xml version="1.0" encoding="UTF-8"?>
<svg version="1.1" viewBox="0 0 27 41"	 xmlns="http://www.w3.org/2000/svg">

	<g transform="translate(3 29)">
		<ellipse cx="10.5" cy="5.8" rx="10.5" ry="5.3" enable-background="new" opacity=".04"/>
		<ellipse cx="10.5" cy="5.8" rx="10.5" ry="5.3" enable-background="new" opacity=".04"/>
		<ellipse cx="10.5" cy="5.8" rx="9.5" ry="4.8" enable-background="new" opacity=".04"/>
		<ellipse cx="10.5" cy="5.8" rx="8.5" ry="4.3" enable-background="new" opacity=".04"/>
		<ellipse cx="10.5" cy="5.8" rx="7.5" ry="3.8" enable-background="new" opacity=".04"/>
		<ellipse cx="10.5" cy="5.8" rx="6.5" ry="3.3" enable-background="new" opacity=".04"/>
		<ellipse cx="10.5" cy="5.8" rx="5.5" ry="2.9" enable-background="new" opacity=".04"/>
		<ellipse cx="10.5" cy="5.8" rx="4.5" ry="2.4" enable-background="new" opacity=".04"/>
	</g>
	
		<path d="M27,13.5c0,5.6-6.7,13.5-12.2,21c-0.7,1-1.8,1-2.5,0C6.7,27,0,19.2,0,13.5C0,6,6,0,13.5,0    S27,6,27,13.5z" fill="#232931"/>
	
	<g opacity=".25">
		<path d="M13.5,0C6,0,0,6,0,13.5c0,5.7,6.7,13.5,12.2,21c0.8,1,1.8,1,2.5,0C20.3,27,27,19.1,27,13.5C27,6,21,0,13.5,0z M13.5,1    C20.4,1,26,6.6,26,13.5c0,2.4-1.5,5.7-3.8,9.2s-5.5,7.4-8.3,11.2c-0.2,0.3-0.3,0.4-0.4,0.5c-0.1-0.1-0.2-0.3-0.4-0.5    c-2.8-3.8-5.6-7.6-8-11.1S1,16,1,13.5C1,6.6,6.6,1,13.5,1z"/>
	</g>


	
		<path d="m13.5 24.765c-6.265 0-11.365-5.097-11.365-11.365s5.1-11.365 11.365-11.365 11.365 5.096 11.365 11.365-5.1 11.365-11.365 11.365zm0-22.112c-5.925 0-10.747 4.822-10.747 10.747s4.822 10.746 10.747 10.746 10.747-4.821 10.747-10.746-4.822-10.747-10.747-10.747z" fill="#fff"/>
	
	
		<path d="m13.5 23.383c-5.505 0-9.983-4.479-9.983-9.983s4.478-9.984 9.983-9.984 9.983 4.479 9.983 9.983-4.478 9.984-9.983 9.984zm0-19.349c-5.165 0-9.365 4.2-9.365 9.365s4.2 9.365 9.365 9.365 9.365-4.2 9.365-9.365-4.2-9.365-9.365-9.365z" fill="#fff"/>
	
	<path d="m20.856 11.378c-0.155-0.071-0.34 0-0.408 0.155l-2.241 5.001-1.981-3.799c0.26-0.501 0.918-1.817 0.918-2.334 0-0.699-0.569-1.264-1.264-1.264s-1.264 0.569-1.264 1.264c0 0.513 0.658 1.833 0.915 2.334l-2.009 3.842-2.077-3.984c-6e-3 -9e-3 -0.012-0.015-0.019-0.025-0.012-0.019-0.025-0.034-0.04-0.049s-0.031-0.028-0.049-0.04c-9e-3 -6e-3 -0.015-0.015-0.025-0.019-9e-3 -3e-3 -0.019-3e-3 -0.025-6e-3 -0.019-9e-3 -0.04-0.012-0.062-0.019-0.019-3e-3 -0.037-6e-3 -0.056-6e-3s-0.04 3e-3 -0.059 6e-3c-0.022 3e-3 -0.04 9e-3 -0.059 0.019-9e-3 3e-3 -0.019 3e-3 -0.025 6e-3 -9e-3 6e-3 -0.015 0.015-0.025 0.019-0.019 0.012-0.034 0.025-0.046 0.037-0.015 0.015-0.028 0.031-0.04 0.049-6e-3 9e-3 -0.015 0.015-0.019 0.025l-2.08 3.99-2.262-5.047c-0.071-0.155-0.253-0.226-0.408-0.155s-0.226 0.253-0.155 0.408l2.5 5.582c0.053 0.114 0.164 0.182 0.281 0.182 6e-3 0 9e-3 -3e-3 0.015-3e-3 9e-3 0 0.019 3e-3 0.028 3e-3 0.111 0 0.219-0.062 0.275-0.167l2.08-3.983 2.077 3.984c9e-3 0.015 0.019 0.028 0.031 0.04 3e-3 6e-3 6e-3 9e-3 9e-3 0.015 0.025 0.031 0.056 0.056 0.09 0.074 3e-3 0 6e-3 3e-3 9e-3 3e-3 0.043 0.022 0.087 0.034 0.136 0.034s0.096-0.012 0.142-0.034l9e-3 -9e-3c0.028-0.015 0.053-0.037 0.077-0.062 9e-3 -9e-3 0.015-0.022 0.025-0.034 6e-3 -9e-3 0.015-0.019 0.022-0.031l2.077-3.984 2.077 3.984c0.012 0.022 0.025 0.04 0.04 0.056 3e-3 3e-3 6e-3 9e-3 9e-3 0.012 0.025 0.028 0.056 0.046 0.087 0.062 3e-3 3e-3 6e-3 6e-3 0.012 9e-3s9e-3 0 0.015 3e-3c0.034 0.012 0.071 0.022 0.108 0.022h3e-3 3e-3c0.028 0 0.053-3e-3 0.08-0.012 9e-3 -3e-3 0.015-6e-3 0.025-9e-3 0.012-6e-3 0.025-9e-3 0.037-0.015 3e-3 -3e-3 6e-3 -6e-3 9e-3 -6e-3 0.031-0.019 0.059-0.04 0.083-0.068 6e-3 -6e-3 9e-3 -0.015 0.012-0.022 0.012-0.015 0.025-0.034 0.034-0.053l2.5-5.582c0.074-0.145 3e-3 -0.328-0.152-0.399zm-4.982-1.622c0.355 0 0.646 0.291 0.646 0.646 0 0.241-0.325 0.989-0.646 1.651-0.325-0.661-0.646-1.409-0.646-1.651 0-0.356 0.29-0.646 0.646-0.646z" fill="#fff"/>

</svg>
