<?xml version="1.0" encoding="UTF-8" standalone="no"?><!DOCTYPE svg PUBLIC "-//W3C//DTD SVG 1.1//EN" "http://www.w3.org/Graphics/SVG/1.1/DTD/svg11.dtd"><svg width="100%" height="100%" viewBox="0 0 84 84" version="1.1" xmlns="http://www.w3.org/2000/svg" xmlns:xlink="http://www.w3.org/1999/xlink" xml:space="preserve" xmlns:serif="http://www.serif.com/" style="fill-rule:evenodd;clip-rule:evenodd;stroke-linejoin:round;stroke-miterlimit:2;"><path d="M41.77,83.55c-22.92,0 -41.78,-18.86 -41.78,-41.78c-0,-22.92 18.86,-41.78 41.78,-41.78c22.92,0 41.78,18.86 41.78,41.78c-0.027,22.909 -18.871,41.753 -41.78,41.78Zm-0,-77.78c-19.749,0 -36,16.251 -36,36c-0,19.749 16.251,36 36,36c19.749,0 36,-16.251 36,-36c-0.044,-19.732 -16.268,-35.956 -36,-36Z" style="fill-rule:nonzero;"/><path d="M41.77,22.368c6.319,-0 7.068,0.024 9.563,0.138c2.308,0.105 3.561,0.491 4.395,0.815c1.028,0.379 1.958,0.984 2.721,1.77c0.786,0.764 1.391,1.693 1.77,2.721c0.325,0.834 0.71,2.087 0.815,4.395c0.114,2.495 0.138,3.244 0.138,9.563c0,6.32 -0.024,7.068 -0.138,9.564c-0.105,2.307 -0.491,3.56 -0.815,4.394c-0.795,2.063 -2.428,3.696 -4.491,4.492c-0.834,0.324 -2.087,0.71 -4.395,0.815c-2.495,0.114 -3.243,0.138 -9.563,0.138c-6.32,-0 -7.068,-0.024 -9.564,-0.138c-2.307,-0.106 -3.56,-0.491 -4.394,-0.815c-1.028,-0.379 -1.958,-0.984 -2.721,-1.77c-0.786,-0.764 -1.391,-1.694 -1.771,-2.722c-0.324,-0.834 -0.709,-2.087 -0.815,-4.394c-0.113,-2.496 -0.138,-3.244 -0.138,-9.564c0,-6.319 0.025,-7.067 0.138,-9.563c0.106,-2.308 0.491,-3.561 0.815,-4.395c0.38,-1.028 0.985,-1.958 1.771,-2.721c0.763,-0.786 1.693,-1.391 2.721,-1.77c0.834,-0.324 2.087,-0.71 4.395,-0.815c2.495,-0.114 3.244,-0.138 9.563,-0.138m0,-4.264c-6.427,-0 -7.234,0.027 -9.758,0.142c-2.519,0.115 -4.239,0.515 -5.744,1.1c-1.579,0.594 -3.01,1.526 -4.192,2.73c-1.204,1.182 -2.136,2.612 -2.731,4.192c-0.584,1.505 -0.984,3.225 -1.099,5.744c-0.115,2.524 -0.143,3.331 -0.143,9.758c0,6.428 0.028,7.234 0.143,9.758c0.115,2.519 0.515,4.239 1.1,5.744c0.595,1.579 1.526,3.01 2.73,4.192c1.182,1.204 2.613,2.136 4.192,2.73c1.505,0.585 3.226,0.985 5.745,1.1c2.524,0.115 3.33,0.142 9.757,0.142c6.428,0 7.234,-0.027 9.758,-0.142c2.519,-0.115 4.239,-0.515 5.745,-1.1c3.177,-1.229 5.692,-3.744 6.921,-6.922c0.585,-1.505 0.985,-3.225 1.1,-5.744c0.115,-2.525 0.143,-3.331 0.143,-9.758c-0,-6.427 -0.028,-7.234 -0.143,-9.758c-0.115,-2.519 -0.515,-4.239 -1.1,-5.744c-0.594,-1.579 -1.526,-3.01 -2.73,-4.192c-1.182,-1.204 -2.612,-2.136 -4.192,-2.73c-1.505,-0.585 -3.225,-0.985 -5.745,-1.1c-2.523,-0.115 -3.33,-0.142 -9.757,-0.142l0,-0Z" style="fill-rule:nonzero;"/><path d="M41.77,29.617c-6.667,-0 -12.153,5.486 -12.153,12.153c-0,6.667 5.486,12.153 12.153,12.153c6.667,0 12.153,-5.486 12.153,-12.153c-0,-6.667 -5.486,-12.153 -12.153,-12.153Zm-0,20.042c-4.328,-0 -7.889,-3.561 -7.889,-7.889c0,-4.328 3.561,-7.889 7.889,-7.889c4.328,0 7.889,3.561 7.889,7.889c-0,4.328 -3.561,7.889 -7.889,7.889Z" style="fill-rule:nonzero;"/><circle cx="54.403" cy="29.137" r="2.84"/></svg>