<svg viewBox="0 0 84 84" xmlns="http://www.w3.org/2000/svg" xml:space="preserve" style="fill-rule:evenodd;clip-rule:evenodd;stroke-linejoin:round;stroke-miterlimit:2">
  <path d="M41.77 83.55C18.85 83.55-.01 64.69-.01 41.77S18.85-.01 41.77-.01s41.78 18.86 41.78 41.78c-.027 22.909-18.871 41.753-41.78 41.78Zm0-77.78c-19.749 0-36 16.251-36 36s16.251 36 36 36 36-16.251 36-36c-.044-19.732-16.268-35.956-36-36Z" style="fill-rule:nonzero"/>
  <path d="M169.446 111.27c-2.545 13.093-22.794 27.422-46.05 30.199-12.127 1.447-24.067 2.777-36.799 2.193-20.822-.954-37.252-4.97-37.252-4.97 0 2.027.125 3.957.375 5.762 2.707 20.549 20.376 21.78 37.113 22.354 16.893.578 31.935-4.165 31.935-4.165l.694 15.272s-11.816 6.345-32.865 7.512c-11.607.638-26.019-.292-42.805-4.735C7.386 171.056 1.125 132.249.167 92.873-.125 81.182.055 70.158.055 60.938c0-40.264 26.381-52.066 26.381-52.066C39.738 2.763 62.563.194 86.292 0h.583c23.729.194 46.569 2.763 59.87 8.872 0 0 26.38 11.802 26.38 52.066 0 0 .331 29.707-3.679 50.332Zm-27.438-47.208c0-9.964-2.537-17.882-7.632-23.74-5.256-5.858-12.138-8.861-20.68-8.861-9.885 0-17.37 3.799-22.318 11.398l-4.812 8.065-4.811-8.065c-4.949-7.599-12.434-11.398-22.318-11.398-8.543 0-15.425 3.003-20.68 8.861-5.096 5.858-7.633 13.776-7.633 23.74v48.753h19.315v-47.32c0-9.975 4.197-15.038 12.592-15.038 9.282 0 13.935 6.006 13.935 17.882V94.24h19.201V68.339c0-11.876 4.652-17.882 13.934-17.882 8.395 0 12.592 5.063 12.592 15.038v47.32h19.315V64.062Z" style="fill-rule:nonzero" transform="matrix(.304 0 0 .304 15.425 14.526)"/>
</svg>
