<?xml version="1.0" encoding="UTF-8" standalone="no"?>
<!DOCTYPE svg PUBLIC "-//W3C//DTD SVG 1.1//EN" "http://www.w3.org/Graphics/SVG/1.1/DTD/svg11.dtd">
<svg width="100%" height="100%" viewBox="0 0 3383 1504" version="1.1" xmlns="http://www.w3.org/2000/svg" xmlns:xlink="http://www.w3.org/1999/xlink" xml:space="preserve" xmlns:serif="http://www.serif.com/" style="fill-rule:evenodd;clip-rule:evenodd;stroke-linejoin:round;stroke-miterlimit:2;">
    <g id="Artboard1" transform="matrix(0.909757,0,0,1,72.1515,-476.222)">
        <g transform="matrix(3.89406,0,0,2.05787,7969.9,-1629.17)">
            <rect x="-2067.05" y="1023.09" width="954.936" height="730.852" style="fill:rgb(18,178,127);"/>
        </g>
        <g transform="matrix(1.03006,0,0,0.937105,-643.491,-828.6)">
            <g transform="matrix(17.1845,0,0,17.1845,763.741,2551.77)">
                <g id="Welcome-Werkstatt-e.">
                    <g transform="matrix(16,0,0,16,0,0)">
                        <path d="M0.332,-0.707L0.437,-0.707L0.524,-0.466L0.612,-0.707L0.718,-0.707L0.596,-0.391L0.703,-0.13L0.924,-0.71L1.046,-0.71L0.754,-0L0.657,-0L0.525,-0.318L0.392,-0L0.296,-0L0.004,-0.71L0.125,-0.71L0.348,-0.13L0.453,-0.391L0.332,-0.707Z" style="fill:white;fill-rule:nonzero;"/>
                    </g>
                    <g transform="matrix(16,0,0,16,16.8,0)">
                        <path d="M0.303,0.01C0.262,0.01 0.225,0.003 0.192,-0.012C0.159,-0.026 0.13,-0.045 0.107,-0.07C0.083,-0.095 0.065,-0.123 0.052,-0.156C0.039,-0.189 0.032,-0.223 0.032,-0.26C0.032,-0.297 0.039,-0.331 0.052,-0.365C0.065,-0.398 0.083,-0.427 0.107,-0.452C0.13,-0.476 0.159,-0.496 0.192,-0.511C0.225,-0.525 0.263,-0.532 0.304,-0.532C0.345,-0.532 0.382,-0.525 0.415,-0.51C0.448,-0.495 0.476,-0.476 0.499,-0.452C0.522,-0.427 0.54,-0.399 0.553,-0.367C0.565,-0.334 0.571,-0.3 0.571,-0.265C0.571,-0.257 0.571,-0.249 0.57,-0.243C0.569,-0.236 0.569,-0.23 0.568,-0.225L0.149,-0.225C0.151,-0.202 0.157,-0.181 0.166,-0.162C0.174,-0.143 0.186,-0.127 0.201,-0.114C0.215,-0.1 0.231,-0.089 0.25,-0.082C0.268,-0.075 0.287,-0.071 0.307,-0.071C0.322,-0.071 0.336,-0.073 0.351,-0.077C0.365,-0.08 0.378,-0.086 0.39,-0.093C0.402,-0.099 0.413,-0.108 0.422,-0.118C0.431,-0.128 0.439,-0.139 0.444,-0.151L0.538,-0.124C0.52,-0.085 0.49,-0.053 0.449,-0.028C0.407,-0.003 0.358,0.01 0.303,0.01ZM0.462,-0.301C0.46,-0.323 0.455,-0.343 0.446,-0.362C0.436,-0.381 0.425,-0.397 0.411,-0.41C0.397,-0.423 0.381,-0.433 0.362,-0.44C0.343,-0.447 0.324,-0.451 0.303,-0.451C0.282,-0.451 0.263,-0.447 0.245,-0.44C0.226,-0.433 0.21,-0.423 0.196,-0.41C0.182,-0.397 0.171,-0.381 0.162,-0.362C0.153,-0.343 0.148,-0.323 0.146,-0.301L0.462,-0.301Z" style="fill:white;fill-rule:nonzero;"/>
                    </g>
                    <g transform="matrix(16,0,0,16,26.32,0)">
                        <path d="M0.065,-0.73L0.175,-0.73L0.175,-0.154C0.175,-0.135 0.18,-0.119 0.19,-0.109C0.2,-0.097 0.214,-0.092 0.232,-0.092C0.239,-0.092 0.248,-0.093 0.258,-0.096C0.268,-0.098 0.277,-0.101 0.286,-0.105L0.302,-0.016C0.286,-0.009 0.267,-0.003 0.245,0.002C0.223,0.006 0.203,0.008 0.186,0.008C0.148,0.008 0.118,-0.002 0.097,-0.023C0.076,-0.044 0.065,-0.073 0.065,-0.111L0.065,-0.73Z" style="fill:white;fill-rule:nonzero;"/>
                    </g>
                    <g transform="matrix(16,0,0,16,31.088,0)">
                        <path d="M0.032,-0.262C0.032,-0.299 0.038,-0.333 0.051,-0.366C0.064,-0.399 0.082,-0.427 0.106,-0.452C0.129,-0.477 0.158,-0.496 0.191,-0.511C0.224,-0.525 0.262,-0.532 0.303,-0.532C0.357,-0.532 0.404,-0.52 0.443,-0.497C0.482,-0.473 0.511,-0.441 0.53,-0.402L0.423,-0.368C0.41,-0.39 0.393,-0.407 0.372,-0.42C0.351,-0.432 0.327,-0.438 0.301,-0.438C0.279,-0.438 0.259,-0.434 0.24,-0.425C0.221,-0.416 0.204,-0.404 0.19,-0.389C0.176,-0.373 0.165,-0.354 0.157,-0.333C0.149,-0.312 0.145,-0.288 0.145,-0.262C0.145,-0.237 0.149,-0.213 0.158,-0.192C0.166,-0.17 0.177,-0.151 0.192,-0.135C0.206,-0.119 0.223,-0.107 0.242,-0.098C0.261,-0.089 0.281,-0.084 0.302,-0.084C0.315,-0.084 0.329,-0.086 0.342,-0.09C0.355,-0.093 0.368,-0.098 0.379,-0.105C0.39,-0.112 0.399,-0.119 0.408,-0.128C0.416,-0.137 0.422,-0.146 0.426,-0.156L0.534,-0.124C0.517,-0.085 0.488,-0.053 0.447,-0.028C0.406,-0.003 0.358,0.01 0.303,0.01C0.262,0.01 0.225,0.003 0.192,-0.012C0.159,-0.027 0.13,-0.047 0.107,-0.072C0.083,-0.096 0.065,-0.125 0.052,-0.158C0.039,-0.191 0.032,-0.225 0.032,-0.262Z" style="fill:white;fill-rule:nonzero;"/>
                    </g>
                    <g transform="matrix(16,0,0,16,39.936,0)">
                        <path d="M0.301,0.01C0.26,0.01 0.223,0.003 0.19,-0.012C0.157,-0.027 0.128,-0.046 0.105,-0.071C0.082,-0.096 0.064,-0.125 0.051,-0.158C0.038,-0.191 0.032,-0.225 0.032,-0.261C0.032,-0.297 0.038,-0.331 0.051,-0.365C0.064,-0.398 0.082,-0.426 0.106,-0.451C0.129,-0.476 0.158,-0.495 0.191,-0.51C0.224,-0.525 0.26,-0.532 0.301,-0.532C0.342,-0.532 0.379,-0.525 0.412,-0.51C0.445,-0.495 0.473,-0.476 0.497,-0.451C0.52,-0.426 0.538,-0.398 0.551,-0.365C0.564,-0.331 0.57,-0.297 0.57,-0.261C0.57,-0.225 0.564,-0.191 0.551,-0.158C0.538,-0.125 0.52,-0.096 0.497,-0.071C0.473,-0.046 0.445,-0.027 0.412,-0.012C0.379,0.003 0.342,0.01 0.301,0.01ZM0.145,-0.26C0.145,-0.235 0.149,-0.211 0.157,-0.19C0.165,-0.169 0.176,-0.15 0.19,-0.135C0.204,-0.119 0.221,-0.107 0.24,-0.098C0.259,-0.089 0.279,-0.084 0.301,-0.084C0.323,-0.084 0.343,-0.089 0.363,-0.098C0.382,-0.107 0.398,-0.119 0.412,-0.135C0.426,-0.151 0.437,-0.17 0.445,-0.191C0.453,-0.212 0.457,-0.236 0.457,-0.261C0.457,-0.286 0.453,-0.309 0.445,-0.331C0.437,-0.352 0.426,-0.371 0.412,-0.387C0.398,-0.403 0.382,-0.416 0.363,-0.425C0.343,-0.434 0.323,-0.438 0.301,-0.438C0.28,-0.438 0.26,-0.433 0.241,-0.424C0.222,-0.415 0.205,-0.402 0.191,-0.386C0.177,-0.37 0.166,-0.351 0.158,-0.33C0.149,-0.308 0.145,-0.285 0.145,-0.26Z" style="fill:white;fill-rule:nonzero;"/>
                    </g>
                    <g transform="matrix(16,0,0,16,49.552,0)">
                        <path d="M0.865,-0L0.755,-0L0.755,-0.293C0.755,-0.342 0.747,-0.377 0.731,-0.4C0.714,-0.423 0.691,-0.434 0.661,-0.434C0.63,-0.434 0.601,-0.423 0.575,-0.4C0.549,-0.377 0.53,-0.347 0.519,-0.31L0.519,-0L0.409,-0L0.409,-0.293C0.409,-0.342 0.401,-0.378 0.386,-0.401C0.37,-0.423 0.347,-0.434 0.316,-0.434C0.285,-0.434 0.257,-0.423 0.231,-0.4C0.204,-0.377 0.185,-0.348 0.174,-0.311L0.174,-0L0.064,-0L0.064,-0.523L0.164,-0.523L0.164,-0.418C0.185,-0.455 0.212,-0.483 0.246,-0.503C0.279,-0.522 0.318,-0.532 0.361,-0.532C0.405,-0.532 0.439,-0.521 0.464,-0.498C0.489,-0.475 0.504,-0.447 0.511,-0.413C0.533,-0.452 0.561,-0.481 0.594,-0.502C0.627,-0.522 0.665,-0.532 0.707,-0.532C0.738,-0.532 0.763,-0.526 0.784,-0.515C0.804,-0.503 0.82,-0.487 0.832,-0.468C0.844,-0.449 0.853,-0.426 0.858,-0.401C0.862,-0.375 0.865,-0.348 0.865,-0.319L0.865,-0Z" style="fill:white;fill-rule:nonzero;"/>
                    </g>
                    <g transform="matrix(16,0,0,16,64.336,0)">
                        <path d="M0.303,0.01C0.262,0.01 0.225,0.003 0.192,-0.012C0.159,-0.026 0.13,-0.045 0.107,-0.07C0.083,-0.095 0.065,-0.123 0.052,-0.156C0.039,-0.189 0.032,-0.223 0.032,-0.26C0.032,-0.297 0.039,-0.331 0.052,-0.365C0.065,-0.398 0.083,-0.427 0.107,-0.452C0.13,-0.476 0.159,-0.496 0.192,-0.511C0.225,-0.525 0.263,-0.532 0.304,-0.532C0.345,-0.532 0.382,-0.525 0.415,-0.51C0.448,-0.495 0.476,-0.476 0.499,-0.452C0.522,-0.427 0.54,-0.399 0.553,-0.367C0.565,-0.334 0.571,-0.3 0.571,-0.265C0.571,-0.257 0.571,-0.249 0.57,-0.243C0.569,-0.236 0.569,-0.23 0.568,-0.225L0.149,-0.225C0.151,-0.202 0.157,-0.181 0.166,-0.162C0.174,-0.143 0.186,-0.127 0.201,-0.114C0.215,-0.1 0.231,-0.089 0.25,-0.082C0.268,-0.075 0.287,-0.071 0.307,-0.071C0.322,-0.071 0.336,-0.073 0.351,-0.077C0.365,-0.08 0.378,-0.086 0.39,-0.093C0.402,-0.099 0.413,-0.108 0.422,-0.118C0.431,-0.128 0.439,-0.139 0.444,-0.151L0.538,-0.124C0.52,-0.085 0.49,-0.053 0.449,-0.028C0.407,-0.003 0.358,0.01 0.303,0.01ZM0.462,-0.301C0.46,-0.323 0.455,-0.343 0.446,-0.362C0.436,-0.381 0.425,-0.397 0.411,-0.41C0.397,-0.423 0.381,-0.433 0.362,-0.44C0.343,-0.447 0.324,-0.451 0.303,-0.451C0.282,-0.451 0.263,-0.447 0.245,-0.44C0.226,-0.433 0.21,-0.423 0.196,-0.41C0.182,-0.397 0.171,-0.381 0.162,-0.362C0.153,-0.343 0.148,-0.323 0.146,-0.301L0.462,-0.301Z" style="fill:white;fill-rule:nonzero;"/>
                    </g>
                    <g transform="matrix(16,0,0,16,77.216,0)">
                        <path d="M0.332,-0.707L0.437,-0.707L0.524,-0.466L0.612,-0.707L0.718,-0.707L0.596,-0.391L0.703,-0.13L0.924,-0.71L1.046,-0.71L0.754,-0L0.657,-0L0.525,-0.318L0.392,-0L0.296,-0L0.004,-0.71L0.125,-0.71L0.348,-0.13L0.453,-0.391L0.332,-0.707Z" style="fill:white;fill-rule:nonzero;"/>
                    </g>
                    <g transform="matrix(16,0,0,16,94.016,0)">
                        <path d="M0.303,0.01C0.262,0.01 0.225,0.003 0.192,-0.012C0.159,-0.026 0.13,-0.045 0.107,-0.07C0.083,-0.095 0.065,-0.123 0.052,-0.156C0.039,-0.189 0.032,-0.223 0.032,-0.26C0.032,-0.297 0.039,-0.331 0.052,-0.365C0.065,-0.398 0.083,-0.427 0.107,-0.452C0.13,-0.476 0.159,-0.496 0.192,-0.511C0.225,-0.525 0.263,-0.532 0.304,-0.532C0.345,-0.532 0.382,-0.525 0.415,-0.51C0.448,-0.495 0.476,-0.476 0.499,-0.452C0.522,-0.427 0.54,-0.399 0.553,-0.367C0.565,-0.334 0.571,-0.3 0.571,-0.265C0.571,-0.257 0.571,-0.249 0.57,-0.243C0.569,-0.236 0.569,-0.23 0.568,-0.225L0.149,-0.225C0.151,-0.202 0.157,-0.181 0.166,-0.162C0.174,-0.143 0.186,-0.127 0.201,-0.114C0.215,-0.1 0.231,-0.089 0.25,-0.082C0.268,-0.075 0.287,-0.071 0.307,-0.071C0.322,-0.071 0.336,-0.073 0.351,-0.077C0.365,-0.08 0.378,-0.086 0.39,-0.093C0.402,-0.099 0.413,-0.108 0.422,-0.118C0.431,-0.128 0.439,-0.139 0.444,-0.151L0.538,-0.124C0.52,-0.085 0.49,-0.053 0.449,-0.028C0.407,-0.003 0.358,0.01 0.303,0.01ZM0.462,-0.301C0.46,-0.323 0.455,-0.343 0.446,-0.362C0.436,-0.381 0.425,-0.397 0.411,-0.41C0.397,-0.423 0.381,-0.433 0.362,-0.44C0.343,-0.447 0.324,-0.451 0.303,-0.451C0.282,-0.451 0.263,-0.447 0.245,-0.44C0.226,-0.433 0.21,-0.423 0.196,-0.41C0.182,-0.397 0.171,-0.381 0.162,-0.362C0.153,-0.343 0.148,-0.323 0.146,-0.301L0.462,-0.301Z" style="fill:white;fill-rule:nonzero;"/>
                    </g>
                    <g transform="matrix(16,0,0,16,103.536,0)">
                        <path d="M0.358,-0.428C0.315,-0.427 0.278,-0.417 0.245,-0.399C0.212,-0.38 0.189,-0.354 0.174,-0.32L0.174,-0L0.064,-0L0.064,-0.523L0.166,-0.523L0.166,-0.406C0.185,-0.442 0.209,-0.471 0.238,-0.494C0.267,-0.517 0.297,-0.528 0.33,-0.528L0.347,-0.528C0.351,-0.528 0.355,-0.528 0.358,-0.527L0.358,-0.428Z" style="fill:white;fill-rule:nonzero;"/>
                    </g>
                    <g transform="matrix(16,0,0,16,109.52,0)">
                        <path d="M0.428,-0L0.261,-0.241L0.174,-0.159L0.174,-0L0.064,-0L0.064,-0.73L0.174,-0.73L0.174,-0.267L0.415,-0.522L0.534,-0.522L0.332,-0.303L0.546,-0L0.428,-0Z" style="fill:white;fill-rule:nonzero;"/>
                    </g>
                    <g transform="matrix(16,0,0,16,118.176,0)">
                        <path d="M0.26,0.01C0.239,0.01 0.217,0.008 0.196,0.005C0.174,0.002 0.153,-0.003 0.132,-0.01C0.111,-0.016 0.091,-0.024 0.072,-0.033C0.053,-0.042 0.036,-0.052 0.021,-0.063L0.067,-0.137C0.131,-0.092 0.195,-0.07 0.258,-0.07C0.291,-0.07 0.318,-0.076 0.337,-0.089C0.356,-0.102 0.366,-0.12 0.366,-0.143C0.366,-0.165 0.355,-0.181 0.334,-0.192C0.312,-0.202 0.277,-0.213 0.23,-0.224C0.197,-0.232 0.169,-0.24 0.146,-0.249C0.123,-0.257 0.104,-0.266 0.089,-0.277C0.074,-0.287 0.064,-0.299 0.057,-0.314C0.05,-0.328 0.047,-0.345 0.047,-0.365C0.047,-0.392 0.052,-0.415 0.063,-0.436C0.074,-0.457 0.088,-0.474 0.107,-0.489C0.125,-0.503 0.147,-0.514 0.172,-0.521C0.197,-0.528 0.223,-0.532 0.252,-0.532C0.29,-0.532 0.327,-0.526 0.362,-0.514C0.397,-0.502 0.429,-0.486 0.457,-0.465L0.41,-0.398C0.36,-0.435 0.307,-0.454 0.25,-0.454C0.222,-0.454 0.198,-0.448 0.179,-0.437C0.16,-0.425 0.15,-0.406 0.15,-0.381C0.15,-0.37 0.152,-0.361 0.156,-0.354C0.16,-0.347 0.167,-0.34 0.176,-0.335C0.185,-0.33 0.196,-0.325 0.211,-0.321C0.226,-0.316 0.244,-0.311 0.265,-0.306C0.301,-0.297 0.332,-0.289 0.358,-0.28C0.384,-0.271 0.405,-0.261 0.423,-0.25C0.44,-0.238 0.452,-0.224 0.46,-0.209C0.468,-0.193 0.472,-0.174 0.472,-0.152C0.472,-0.127 0.467,-0.105 0.457,-0.085C0.447,-0.065 0.433,-0.048 0.415,-0.034C0.396,-0.02 0.374,-0.009 0.348,-0.002C0.321,0.006 0.292,0.01 0.26,0.01Z" style="fill:white;fill-rule:nonzero;"/>
                    </g>
                    <g transform="matrix(16,0,0,16,126.144,0)">
                        <path d="M0.357,-0.027C0.342,-0.02 0.323,-0.013 0.299,-0.005C0.274,0.004 0.248,0.008 0.219,0.008C0.202,0.008 0.186,0.006 0.171,0.001C0.156,-0.004 0.142,-0.011 0.131,-0.02C0.119,-0.029 0.11,-0.042 0.103,-0.057C0.096,-0.071 0.093,-0.09 0.093,-0.111L0.093,-0.438L0.023,-0.438L0.023,-0.523L0.093,-0.523L0.093,-0.695L0.203,-0.695L0.203,-0.523L0.317,-0.523L0.317,-0.438L0.203,-0.438L0.203,-0.146C0.203,-0.127 0.208,-0.114 0.219,-0.106C0.23,-0.097 0.243,-0.093 0.258,-0.093C0.273,-0.093 0.288,-0.096 0.302,-0.101C0.316,-0.106 0.326,-0.111 0.333,-0.114L0.357,-0.027Z" style="fill:white;fill-rule:nonzero;"/>
                    </g>
                    <g transform="matrix(16,0,0,16,131.968,0)">
                        <path d="M0.205,0.01C0.18,0.01 0.156,0.006 0.135,-0.003C0.113,-0.011 0.094,-0.022 0.079,-0.037C0.063,-0.052 0.05,-0.069 0.042,-0.089C0.033,-0.109 0.028,-0.131 0.028,-0.154C0.028,-0.179 0.033,-0.201 0.044,-0.221C0.055,-0.241 0.07,-0.258 0.09,-0.273C0.109,-0.288 0.133,-0.299 0.16,-0.307C0.187,-0.315 0.216,-0.319 0.249,-0.319C0.274,-0.319 0.298,-0.317 0.322,-0.313C0.346,-0.308 0.368,-0.302 0.387,-0.295L0.387,-0.331C0.387,-0.37 0.376,-0.4 0.354,-0.422C0.332,-0.443 0.3,-0.454 0.259,-0.454C0.231,-0.454 0.204,-0.449 0.177,-0.439C0.15,-0.428 0.122,-0.413 0.093,-0.394L0.059,-0.464C0.126,-0.509 0.196,-0.532 0.269,-0.532C0.341,-0.532 0.397,-0.514 0.437,-0.477C0.477,-0.44 0.497,-0.388 0.497,-0.319L0.497,-0.13C0.497,-0.117 0.499,-0.108 0.504,-0.103C0.509,-0.098 0.517,-0.095 0.528,-0.094L0.528,-0C0.517,0.002 0.507,0.003 0.499,0.004C0.49,0.005 0.481,0.005 0.474,0.005C0.453,0.004 0.436,-0.002 0.426,-0.012C0.415,-0.022 0.408,-0.035 0.405,-0.052L0.402,-0.085C0.379,-0.054 0.35,-0.031 0.316,-0.015C0.281,0.002 0.244,0.01 0.205,0.01ZM0.235,-0.071C0.262,-0.071 0.287,-0.076 0.311,-0.086C0.334,-0.095 0.353,-0.109 0.366,-0.126C0.38,-0.138 0.387,-0.151 0.387,-0.164L0.387,-0.233C0.368,-0.24 0.349,-0.246 0.328,-0.25C0.307,-0.254 0.286,-0.256 0.266,-0.256C0.227,-0.256 0.195,-0.248 0.17,-0.231C0.145,-0.214 0.132,-0.191 0.132,-0.163C0.132,-0.137 0.142,-0.115 0.161,-0.098C0.18,-0.08 0.205,-0.071 0.235,-0.071Z" style="fill:white;fill-rule:nonzero;"/>
                    </g>
                    <g transform="matrix(16,0,0,16,140.912,0)">
                        <path d="M0.357,-0.027C0.342,-0.02 0.323,-0.013 0.299,-0.005C0.274,0.004 0.248,0.008 0.219,0.008C0.202,0.008 0.186,0.006 0.171,0.001C0.156,-0.004 0.142,-0.011 0.131,-0.02C0.119,-0.029 0.11,-0.042 0.103,-0.057C0.096,-0.071 0.093,-0.09 0.093,-0.111L0.093,-0.438L0.023,-0.438L0.023,-0.523L0.093,-0.523L0.093,-0.695L0.203,-0.695L0.203,-0.523L0.317,-0.523L0.317,-0.438L0.203,-0.438L0.203,-0.146C0.203,-0.127 0.208,-0.114 0.219,-0.106C0.23,-0.097 0.243,-0.093 0.258,-0.093C0.273,-0.093 0.288,-0.096 0.302,-0.101C0.316,-0.106 0.326,-0.111 0.333,-0.114L0.357,-0.027Z" style="fill:white;fill-rule:nonzero;"/>
                    </g>
                    <g transform="matrix(16,0,0,16,146.688,0)">
                        <path d="M0.357,-0.027C0.342,-0.02 0.323,-0.013 0.299,-0.005C0.274,0.004 0.248,0.008 0.219,0.008C0.202,0.008 0.186,0.006 0.171,0.001C0.156,-0.004 0.142,-0.011 0.131,-0.02C0.119,-0.029 0.11,-0.042 0.103,-0.057C0.096,-0.071 0.093,-0.09 0.093,-0.111L0.093,-0.438L0.023,-0.438L0.023,-0.523L0.093,-0.523L0.093,-0.695L0.203,-0.695L0.203,-0.523L0.317,-0.523L0.317,-0.438L0.203,-0.438L0.203,-0.146C0.203,-0.127 0.208,-0.114 0.219,-0.106C0.23,-0.097 0.243,-0.093 0.258,-0.093C0.273,-0.093 0.288,-0.096 0.302,-0.101C0.316,-0.106 0.326,-0.111 0.333,-0.114L0.357,-0.027Z" style="fill:white;fill-rule:nonzero;"/>
                    </g>
                    <g transform="matrix(16,0,0,16,156.432,0)">
                        <path d="M0.303,0.01C0.262,0.01 0.225,0.003 0.192,-0.012C0.159,-0.026 0.13,-0.045 0.107,-0.07C0.083,-0.095 0.065,-0.123 0.052,-0.156C0.039,-0.189 0.032,-0.223 0.032,-0.26C0.032,-0.297 0.039,-0.331 0.052,-0.365C0.065,-0.398 0.083,-0.427 0.107,-0.452C0.13,-0.476 0.159,-0.496 0.192,-0.511C0.225,-0.525 0.263,-0.532 0.304,-0.532C0.345,-0.532 0.382,-0.525 0.415,-0.51C0.448,-0.495 0.476,-0.476 0.499,-0.452C0.522,-0.427 0.54,-0.399 0.553,-0.367C0.565,-0.334 0.571,-0.3 0.571,-0.265C0.571,-0.257 0.571,-0.249 0.57,-0.243C0.569,-0.236 0.569,-0.23 0.568,-0.225L0.149,-0.225C0.151,-0.202 0.157,-0.181 0.166,-0.162C0.174,-0.143 0.186,-0.127 0.201,-0.114C0.215,-0.1 0.231,-0.089 0.25,-0.082C0.268,-0.075 0.287,-0.071 0.307,-0.071C0.322,-0.071 0.336,-0.073 0.351,-0.077C0.365,-0.08 0.378,-0.086 0.39,-0.093C0.402,-0.099 0.413,-0.108 0.422,-0.118C0.431,-0.128 0.439,-0.139 0.444,-0.151L0.538,-0.124C0.52,-0.085 0.49,-0.053 0.449,-0.028C0.407,-0.003 0.358,0.01 0.303,0.01ZM0.462,-0.301C0.46,-0.323 0.455,-0.343 0.446,-0.362C0.436,-0.381 0.425,-0.397 0.411,-0.41C0.397,-0.423 0.381,-0.433 0.362,-0.44C0.343,-0.447 0.324,-0.451 0.303,-0.451C0.282,-0.451 0.263,-0.447 0.245,-0.44C0.226,-0.433 0.21,-0.423 0.196,-0.41C0.182,-0.397 0.171,-0.381 0.162,-0.362C0.153,-0.343 0.148,-0.323 0.146,-0.301L0.462,-0.301Z" style="fill:white;fill-rule:nonzero;"/>
                    </g>
                    <g transform="matrix(16,0,0,16,165.952,0)">
                        <rect x="0.06" y="-0.128" width="0.091" height="0.128" style="fill:white;"/>
                    </g>
                    <g transform="matrix(16,0,0,16,172.704,0)">
                        <path d="M0.123,-0.71L0.338,-0.141L0.551,-0.71L0.669,-0.71L0.386,-0L0.29,-0L0.004,-0.71L0.123,-0.71Z" style="fill:white;fill-rule:nonzero;"/>
                    </g>
                    <g transform="matrix(16,0,0,16,182.432,0)">
                        <rect x="0.06" y="-0.128" width="0.091" height="0.128" style="fill:white;"/>
                    </g>
                </g>
            </g>
            <g transform="matrix(17.1845,0,0,17.1845,1090.09,2775.17)">
                <g id="Gemeinsam-kreativ-in">
                    <g transform="matrix(10,0,0,10,0,0)">
                        <path d="M0.57,-0.088C0.512,-0.026 0.444,0.005 0.367,0.005C0.321,0.005 0.278,-0.005 0.238,-0.026C0.197,-0.046 0.162,-0.073 0.133,-0.107C0.103,-0.14 0.08,-0.179 0.063,-0.223C0.046,-0.266 0.037,-0.311 0.037,-0.358C0.037,-0.406 0.046,-0.452 0.063,-0.495C0.08,-0.538 0.103,-0.576 0.133,-0.609C0.162,-0.642 0.197,-0.668 0.238,-0.687C0.279,-0.705 0.323,-0.715 0.371,-0.715C0.438,-0.715 0.494,-0.701 0.539,-0.673C0.584,-0.644 0.619,-0.607 0.642,-0.56L0.556,-0.498C0.537,-0.537 0.511,-0.566 0.478,-0.585C0.444,-0.604 0.408,-0.614 0.368,-0.614C0.335,-0.614 0.306,-0.607 0.279,-0.593C0.252,-0.578 0.23,-0.559 0.211,-0.536C0.192,-0.512 0.177,-0.484 0.167,-0.453C0.156,-0.422 0.151,-0.389 0.151,-0.355C0.151,-0.319 0.157,-0.285 0.168,-0.254C0.179,-0.223 0.195,-0.195 0.216,-0.172C0.236,-0.149 0.26,-0.13 0.287,-0.117C0.314,-0.103 0.344,-0.096 0.376,-0.096C0.448,-0.096 0.513,-0.131 0.57,-0.201L0.57,-0.276L0.421,-0.276L0.421,-0.359L0.664,-0.359L0.664,-0L0.57,-0L0.57,-0.088Z" style="fill:white;fill-rule:nonzero;"/>
                    </g>
                    <g transform="matrix(10,0,0,10,7.14,0)">
                        <path d="M0.303,0.01C0.262,0.01 0.225,0.003 0.192,-0.012C0.159,-0.026 0.13,-0.045 0.107,-0.07C0.083,-0.095 0.065,-0.123 0.052,-0.156C0.039,-0.189 0.032,-0.223 0.032,-0.26C0.032,-0.297 0.039,-0.331 0.052,-0.365C0.065,-0.398 0.083,-0.427 0.107,-0.452C0.13,-0.476 0.159,-0.496 0.192,-0.511C0.225,-0.525 0.263,-0.532 0.304,-0.532C0.345,-0.532 0.382,-0.525 0.415,-0.51C0.448,-0.495 0.476,-0.476 0.499,-0.452C0.522,-0.427 0.54,-0.399 0.553,-0.367C0.565,-0.334 0.571,-0.3 0.571,-0.265C0.571,-0.257 0.571,-0.249 0.57,-0.243C0.569,-0.236 0.569,-0.23 0.568,-0.225L0.149,-0.225C0.151,-0.202 0.157,-0.181 0.166,-0.162C0.174,-0.143 0.186,-0.127 0.201,-0.114C0.215,-0.1 0.231,-0.089 0.25,-0.082C0.268,-0.075 0.287,-0.071 0.307,-0.071C0.322,-0.071 0.336,-0.073 0.351,-0.077C0.365,-0.08 0.378,-0.086 0.39,-0.093C0.402,-0.099 0.413,-0.108 0.422,-0.118C0.431,-0.128 0.439,-0.139 0.444,-0.151L0.538,-0.124C0.52,-0.085 0.49,-0.053 0.449,-0.028C0.407,-0.003 0.358,0.01 0.303,0.01ZM0.462,-0.301C0.46,-0.323 0.455,-0.343 0.446,-0.362C0.436,-0.381 0.425,-0.397 0.411,-0.41C0.397,-0.423 0.381,-0.433 0.362,-0.44C0.343,-0.447 0.324,-0.451 0.303,-0.451C0.282,-0.451 0.263,-0.447 0.245,-0.44C0.226,-0.433 0.21,-0.423 0.196,-0.41C0.182,-0.397 0.171,-0.381 0.162,-0.362C0.153,-0.343 0.148,-0.323 0.146,-0.301L0.462,-0.301Z" style="fill:white;fill-rule:nonzero;"/>
                    </g>
                    <g transform="matrix(10,0,0,10,13.09,0)">
                        <path d="M0.865,-0L0.755,-0L0.755,-0.293C0.755,-0.342 0.747,-0.377 0.731,-0.4C0.714,-0.423 0.691,-0.434 0.661,-0.434C0.63,-0.434 0.601,-0.423 0.575,-0.4C0.549,-0.377 0.53,-0.347 0.519,-0.31L0.519,-0L0.409,-0L0.409,-0.293C0.409,-0.342 0.401,-0.378 0.386,-0.401C0.37,-0.423 0.347,-0.434 0.316,-0.434C0.285,-0.434 0.257,-0.423 0.231,-0.4C0.204,-0.377 0.185,-0.348 0.174,-0.311L0.174,-0L0.064,-0L0.064,-0.523L0.164,-0.523L0.164,-0.418C0.185,-0.455 0.212,-0.483 0.246,-0.503C0.279,-0.522 0.318,-0.532 0.361,-0.532C0.405,-0.532 0.439,-0.521 0.464,-0.498C0.489,-0.475 0.504,-0.447 0.511,-0.413C0.533,-0.452 0.561,-0.481 0.594,-0.502C0.627,-0.522 0.665,-0.532 0.707,-0.532C0.738,-0.532 0.763,-0.526 0.784,-0.515C0.804,-0.503 0.82,-0.487 0.832,-0.468C0.844,-0.449 0.853,-0.426 0.858,-0.401C0.862,-0.375 0.865,-0.348 0.865,-0.319L0.865,-0Z" style="fill:white;fill-rule:nonzero;"/>
                    </g>
                    <g transform="matrix(10,0,0,10,22.33,0)">
                        <path d="M0.303,0.01C0.262,0.01 0.225,0.003 0.192,-0.012C0.159,-0.026 0.13,-0.045 0.107,-0.07C0.083,-0.095 0.065,-0.123 0.052,-0.156C0.039,-0.189 0.032,-0.223 0.032,-0.26C0.032,-0.297 0.039,-0.331 0.052,-0.365C0.065,-0.398 0.083,-0.427 0.107,-0.452C0.13,-0.476 0.159,-0.496 0.192,-0.511C0.225,-0.525 0.263,-0.532 0.304,-0.532C0.345,-0.532 0.382,-0.525 0.415,-0.51C0.448,-0.495 0.476,-0.476 0.499,-0.452C0.522,-0.427 0.54,-0.399 0.553,-0.367C0.565,-0.334 0.571,-0.3 0.571,-0.265C0.571,-0.257 0.571,-0.249 0.57,-0.243C0.569,-0.236 0.569,-0.23 0.568,-0.225L0.149,-0.225C0.151,-0.202 0.157,-0.181 0.166,-0.162C0.174,-0.143 0.186,-0.127 0.201,-0.114C0.215,-0.1 0.231,-0.089 0.25,-0.082C0.268,-0.075 0.287,-0.071 0.307,-0.071C0.322,-0.071 0.336,-0.073 0.351,-0.077C0.365,-0.08 0.378,-0.086 0.39,-0.093C0.402,-0.099 0.413,-0.108 0.422,-0.118C0.431,-0.128 0.439,-0.139 0.444,-0.151L0.538,-0.124C0.52,-0.085 0.49,-0.053 0.449,-0.028C0.407,-0.003 0.358,0.01 0.303,0.01ZM0.462,-0.301C0.46,-0.323 0.455,-0.343 0.446,-0.362C0.436,-0.381 0.425,-0.397 0.411,-0.41C0.397,-0.423 0.381,-0.433 0.362,-0.44C0.343,-0.447 0.324,-0.451 0.303,-0.451C0.282,-0.451 0.263,-0.447 0.245,-0.44C0.226,-0.433 0.21,-0.423 0.196,-0.41C0.182,-0.397 0.171,-0.381 0.162,-0.362C0.153,-0.343 0.148,-0.323 0.146,-0.301L0.462,-0.301Z" style="fill:white;fill-rule:nonzero;"/>
                    </g>
                    <g transform="matrix(10,0,0,10,28.28,0)">
                        <path d="M0.064,-0L0.064,-0.523L0.174,-0.523L0.174,-0L0.064,-0ZM0.064,-0.609L0.064,-0.73L0.174,-0.73L0.174,-0.609L0.064,-0.609Z" style="fill:white;fill-rule:nonzero;"/>
                    </g>
                    <g transform="matrix(10,0,0,10,30.67,0)">
                        <path d="M0.534,-0L0.424,-0L0.424,-0.293C0.424,-0.342 0.416,-0.378 0.4,-0.401C0.384,-0.423 0.361,-0.434 0.331,-0.434C0.315,-0.434 0.299,-0.431 0.283,-0.425C0.266,-0.419 0.251,-0.411 0.237,-0.4C0.223,-0.389 0.211,-0.376 0.2,-0.361C0.189,-0.345 0.18,-0.329 0.174,-0.311L0.174,-0L0.064,-0L0.064,-0.523L0.164,-0.523L0.164,-0.418C0.184,-0.453 0.213,-0.481 0.251,-0.502C0.289,-0.522 0.331,-0.532 0.377,-0.532C0.408,-0.532 0.434,-0.526 0.455,-0.515C0.475,-0.504 0.491,-0.488 0.503,-0.469C0.514,-0.449 0.522,-0.426 0.527,-0.401C0.532,-0.375 0.534,-0.348 0.534,-0.319L0.534,-0Z" style="fill:white;fill-rule:nonzero;"/>
                    </g>
                    <g transform="matrix(10,0,0,10,36.61,0)">
                        <path d="M0.26,0.01C0.239,0.01 0.217,0.008 0.196,0.005C0.174,0.002 0.153,-0.003 0.132,-0.01C0.111,-0.016 0.091,-0.024 0.072,-0.033C0.053,-0.042 0.036,-0.052 0.021,-0.063L0.067,-0.137C0.131,-0.092 0.195,-0.07 0.258,-0.07C0.291,-0.07 0.318,-0.076 0.337,-0.089C0.356,-0.102 0.366,-0.12 0.366,-0.143C0.366,-0.165 0.355,-0.181 0.334,-0.192C0.312,-0.202 0.277,-0.213 0.23,-0.224C0.197,-0.232 0.169,-0.24 0.146,-0.249C0.123,-0.257 0.104,-0.266 0.089,-0.277C0.074,-0.287 0.064,-0.299 0.057,-0.314C0.05,-0.328 0.047,-0.345 0.047,-0.365C0.047,-0.392 0.052,-0.415 0.063,-0.436C0.074,-0.457 0.088,-0.474 0.107,-0.489C0.125,-0.503 0.147,-0.514 0.172,-0.521C0.197,-0.528 0.223,-0.532 0.252,-0.532C0.29,-0.532 0.327,-0.526 0.362,-0.514C0.397,-0.502 0.429,-0.486 0.457,-0.465L0.41,-0.398C0.36,-0.435 0.307,-0.454 0.25,-0.454C0.222,-0.454 0.198,-0.448 0.179,-0.437C0.16,-0.425 0.15,-0.406 0.15,-0.381C0.15,-0.37 0.152,-0.361 0.156,-0.354C0.16,-0.347 0.167,-0.34 0.176,-0.335C0.185,-0.33 0.196,-0.325 0.211,-0.321C0.226,-0.316 0.244,-0.311 0.265,-0.306C0.301,-0.297 0.332,-0.289 0.358,-0.28C0.384,-0.271 0.405,-0.261 0.423,-0.25C0.44,-0.238 0.452,-0.224 0.46,-0.209C0.468,-0.193 0.472,-0.174 0.472,-0.152C0.472,-0.127 0.467,-0.105 0.457,-0.085C0.447,-0.065 0.433,-0.048 0.415,-0.034C0.396,-0.02 0.374,-0.009 0.348,-0.002C0.321,0.006 0.292,0.01 0.26,0.01Z" style="fill:white;fill-rule:nonzero;"/>
                    </g>
                    <g transform="matrix(10,0,0,10,41.61,0)">
                        <path d="M0.205,0.01C0.18,0.01 0.156,0.006 0.135,-0.003C0.113,-0.011 0.094,-0.022 0.079,-0.037C0.063,-0.052 0.05,-0.069 0.042,-0.089C0.033,-0.109 0.028,-0.131 0.028,-0.154C0.028,-0.179 0.033,-0.201 0.044,-0.221C0.055,-0.241 0.07,-0.258 0.09,-0.273C0.109,-0.288 0.133,-0.299 0.16,-0.307C0.187,-0.315 0.216,-0.319 0.249,-0.319C0.274,-0.319 0.298,-0.317 0.322,-0.313C0.346,-0.308 0.368,-0.302 0.387,-0.295L0.387,-0.331C0.387,-0.37 0.376,-0.4 0.354,-0.422C0.332,-0.443 0.3,-0.454 0.259,-0.454C0.231,-0.454 0.204,-0.449 0.177,-0.439C0.15,-0.428 0.122,-0.413 0.093,-0.394L0.059,-0.464C0.126,-0.509 0.196,-0.532 0.269,-0.532C0.341,-0.532 0.397,-0.514 0.437,-0.477C0.477,-0.44 0.497,-0.388 0.497,-0.319L0.497,-0.13C0.497,-0.117 0.499,-0.108 0.504,-0.103C0.509,-0.098 0.517,-0.095 0.528,-0.094L0.528,-0C0.517,0.002 0.507,0.003 0.499,0.004C0.49,0.005 0.481,0.005 0.474,0.005C0.453,0.004 0.436,-0.002 0.426,-0.012C0.415,-0.022 0.408,-0.035 0.405,-0.052L0.402,-0.085C0.379,-0.054 0.35,-0.031 0.316,-0.015C0.281,0.002 0.244,0.01 0.205,0.01ZM0.235,-0.071C0.262,-0.071 0.287,-0.076 0.311,-0.086C0.334,-0.095 0.353,-0.109 0.366,-0.126C0.38,-0.138 0.387,-0.151 0.387,-0.164L0.387,-0.233C0.368,-0.24 0.349,-0.246 0.328,-0.25C0.307,-0.254 0.286,-0.256 0.266,-0.256C0.227,-0.256 0.195,-0.248 0.17,-0.231C0.145,-0.214 0.132,-0.191 0.132,-0.163C0.132,-0.137 0.142,-0.115 0.161,-0.098C0.18,-0.08 0.205,-0.071 0.235,-0.071Z" style="fill:white;fill-rule:nonzero;"/>
                    </g>
                    <g transform="matrix(10,0,0,10,47.28,0)">
                        <path d="M0.865,-0L0.755,-0L0.755,-0.293C0.755,-0.342 0.747,-0.377 0.731,-0.4C0.714,-0.423 0.691,-0.434 0.661,-0.434C0.63,-0.434 0.601,-0.423 0.575,-0.4C0.549,-0.377 0.53,-0.347 0.519,-0.31L0.519,-0L0.409,-0L0.409,-0.293C0.409,-0.342 0.401,-0.378 0.386,-0.401C0.37,-0.423 0.347,-0.434 0.316,-0.434C0.285,-0.434 0.257,-0.423 0.231,-0.4C0.204,-0.377 0.185,-0.348 0.174,-0.311L0.174,-0L0.064,-0L0.064,-0.523L0.164,-0.523L0.164,-0.418C0.185,-0.455 0.212,-0.483 0.246,-0.503C0.279,-0.522 0.318,-0.532 0.361,-0.532C0.405,-0.532 0.439,-0.521 0.464,-0.498C0.489,-0.475 0.504,-0.447 0.511,-0.413C0.533,-0.452 0.561,-0.481 0.594,-0.502C0.627,-0.522 0.665,-0.532 0.707,-0.532C0.738,-0.532 0.763,-0.526 0.784,-0.515C0.804,-0.503 0.82,-0.487 0.832,-0.468C0.844,-0.449 0.853,-0.426 0.858,-0.401C0.862,-0.375 0.865,-0.348 0.865,-0.319L0.865,-0Z" style="fill:white;fill-rule:nonzero;"/>
                    </g>
                    <g transform="matrix(10,0,0,10,58.97,0)">
                        <path d="M0.428,-0L0.261,-0.241L0.174,-0.159L0.174,-0L0.064,-0L0.064,-0.73L0.174,-0.73L0.174,-0.267L0.415,-0.522L0.534,-0.522L0.332,-0.303L0.546,-0L0.428,-0Z" style="fill:white;fill-rule:nonzero;"/>
                    </g>
                    <g transform="matrix(10,0,0,10,64.43,0)">
                        <path d="M0.358,-0.428C0.315,-0.427 0.278,-0.417 0.245,-0.399C0.212,-0.38 0.189,-0.354 0.174,-0.32L0.174,-0L0.064,-0L0.064,-0.523L0.166,-0.523L0.166,-0.406C0.185,-0.442 0.209,-0.471 0.238,-0.494C0.267,-0.517 0.297,-0.528 0.33,-0.528L0.347,-0.528C0.351,-0.528 0.355,-0.528 0.358,-0.527L0.358,-0.428Z" style="fill:white;fill-rule:nonzero;"/>
                    </g>
                    <g transform="matrix(10,0,0,10,68.17,0)">
                        <path d="M0.303,0.01C0.262,0.01 0.225,0.003 0.192,-0.012C0.159,-0.026 0.13,-0.045 0.107,-0.07C0.083,-0.095 0.065,-0.123 0.052,-0.156C0.039,-0.189 0.032,-0.223 0.032,-0.26C0.032,-0.297 0.039,-0.331 0.052,-0.365C0.065,-0.398 0.083,-0.427 0.107,-0.452C0.13,-0.476 0.159,-0.496 0.192,-0.511C0.225,-0.525 0.263,-0.532 0.304,-0.532C0.345,-0.532 0.382,-0.525 0.415,-0.51C0.448,-0.495 0.476,-0.476 0.499,-0.452C0.522,-0.427 0.54,-0.399 0.553,-0.367C0.565,-0.334 0.571,-0.3 0.571,-0.265C0.571,-0.257 0.571,-0.249 0.57,-0.243C0.569,-0.236 0.569,-0.23 0.568,-0.225L0.149,-0.225C0.151,-0.202 0.157,-0.181 0.166,-0.162C0.174,-0.143 0.186,-0.127 0.201,-0.114C0.215,-0.1 0.231,-0.089 0.25,-0.082C0.268,-0.075 0.287,-0.071 0.307,-0.071C0.322,-0.071 0.336,-0.073 0.351,-0.077C0.365,-0.08 0.378,-0.086 0.39,-0.093C0.402,-0.099 0.413,-0.108 0.422,-0.118C0.431,-0.128 0.439,-0.139 0.444,-0.151L0.538,-0.124C0.52,-0.085 0.49,-0.053 0.449,-0.028C0.407,-0.003 0.358,0.01 0.303,0.01ZM0.462,-0.301C0.46,-0.323 0.455,-0.343 0.446,-0.362C0.436,-0.381 0.425,-0.397 0.411,-0.41C0.397,-0.423 0.381,-0.433 0.362,-0.44C0.343,-0.447 0.324,-0.451 0.303,-0.451C0.282,-0.451 0.263,-0.447 0.245,-0.44C0.226,-0.433 0.21,-0.423 0.196,-0.41C0.182,-0.397 0.171,-0.381 0.162,-0.362C0.153,-0.343 0.148,-0.323 0.146,-0.301L0.462,-0.301Z" style="fill:white;fill-rule:nonzero;"/>
                    </g>
                    <g transform="matrix(10,0,0,10,74.12,0)">
                        <path d="M0.205,0.01C0.18,0.01 0.156,0.006 0.135,-0.003C0.113,-0.011 0.094,-0.022 0.079,-0.037C0.063,-0.052 0.05,-0.069 0.042,-0.089C0.033,-0.109 0.028,-0.131 0.028,-0.154C0.028,-0.179 0.033,-0.201 0.044,-0.221C0.055,-0.241 0.07,-0.258 0.09,-0.273C0.109,-0.288 0.133,-0.299 0.16,-0.307C0.187,-0.315 0.216,-0.319 0.249,-0.319C0.274,-0.319 0.298,-0.317 0.322,-0.313C0.346,-0.308 0.368,-0.302 0.387,-0.295L0.387,-0.331C0.387,-0.37 0.376,-0.4 0.354,-0.422C0.332,-0.443 0.3,-0.454 0.259,-0.454C0.231,-0.454 0.204,-0.449 0.177,-0.439C0.15,-0.428 0.122,-0.413 0.093,-0.394L0.059,-0.464C0.126,-0.509 0.196,-0.532 0.269,-0.532C0.341,-0.532 0.397,-0.514 0.437,-0.477C0.477,-0.44 0.497,-0.388 0.497,-0.319L0.497,-0.13C0.497,-0.117 0.499,-0.108 0.504,-0.103C0.509,-0.098 0.517,-0.095 0.528,-0.094L0.528,-0C0.517,0.002 0.507,0.003 0.499,0.004C0.49,0.005 0.481,0.005 0.474,0.005C0.453,0.004 0.436,-0.002 0.426,-0.012C0.415,-0.022 0.408,-0.035 0.405,-0.052L0.402,-0.085C0.379,-0.054 0.35,-0.031 0.316,-0.015C0.281,0.002 0.244,0.01 0.205,0.01ZM0.235,-0.071C0.262,-0.071 0.287,-0.076 0.311,-0.086C0.334,-0.095 0.353,-0.109 0.366,-0.126C0.38,-0.138 0.387,-0.151 0.387,-0.164L0.387,-0.233C0.368,-0.24 0.349,-0.246 0.328,-0.25C0.307,-0.254 0.286,-0.256 0.266,-0.256C0.227,-0.256 0.195,-0.248 0.17,-0.231C0.145,-0.214 0.132,-0.191 0.132,-0.163C0.132,-0.137 0.142,-0.115 0.161,-0.098C0.18,-0.08 0.205,-0.071 0.235,-0.071Z" style="fill:white;fill-rule:nonzero;"/>
                    </g>
                    <g transform="matrix(10,0,0,10,79.71,0)">
                        <path d="M0.357,-0.027C0.342,-0.02 0.323,-0.013 0.299,-0.005C0.274,0.004 0.248,0.008 0.219,0.008C0.202,0.008 0.186,0.006 0.171,0.001C0.156,-0.004 0.142,-0.011 0.131,-0.02C0.119,-0.029 0.11,-0.042 0.103,-0.057C0.096,-0.071 0.093,-0.09 0.093,-0.111L0.093,-0.438L0.023,-0.438L0.023,-0.523L0.093,-0.523L0.093,-0.695L0.203,-0.695L0.203,-0.523L0.317,-0.523L0.317,-0.438L0.203,-0.438L0.203,-0.146C0.203,-0.127 0.208,-0.114 0.219,-0.106C0.23,-0.097 0.243,-0.093 0.258,-0.093C0.273,-0.093 0.288,-0.096 0.302,-0.101C0.316,-0.106 0.326,-0.111 0.333,-0.114L0.357,-0.027Z" style="fill:white;fill-rule:nonzero;"/>
                    </g>
                    <g transform="matrix(10,0,0,10,83.35,0)">
                        <path d="M0.064,-0L0.064,-0.523L0.174,-0.523L0.174,-0L0.064,-0ZM0.064,-0.609L0.064,-0.73L0.174,-0.73L0.174,-0.609L0.064,-0.609Z" style="fill:white;fill-rule:nonzero;"/>
                    </g>
                    <g transform="matrix(10,0,0,10,85.74,0)">
                        <path d="M0.21,-0L0.01,-0.523L0.124,-0.523L0.273,-0.093L0.424,-0.523L0.528,-0.523L0.328,-0L0.21,-0Z" style="fill:white;fill-rule:nonzero;"/>
                    </g>
                    <g transform="matrix(10,0,0,10,93.31,0)">
                        <path d="M0.064,-0L0.064,-0.523L0.174,-0.523L0.174,-0L0.064,-0ZM0.064,-0.609L0.064,-0.73L0.174,-0.73L0.174,-0.609L0.064,-0.609Z" style="fill:white;fill-rule:nonzero;"/>
                    </g>
                    <g transform="matrix(10,0,0,10,95.7,0)">
                        <path d="M0.534,-0L0.424,-0L0.424,-0.293C0.424,-0.342 0.416,-0.378 0.4,-0.401C0.384,-0.423 0.361,-0.434 0.331,-0.434C0.315,-0.434 0.299,-0.431 0.283,-0.425C0.266,-0.419 0.251,-0.411 0.237,-0.4C0.223,-0.389 0.211,-0.376 0.2,-0.361C0.189,-0.345 0.18,-0.329 0.174,-0.311L0.174,-0L0.064,-0L0.064,-0.523L0.164,-0.523L0.164,-0.418C0.184,-0.453 0.213,-0.481 0.251,-0.502C0.289,-0.522 0.331,-0.532 0.377,-0.532C0.408,-0.532 0.434,-0.526 0.455,-0.515C0.475,-0.504 0.491,-0.488 0.503,-0.469C0.514,-0.449 0.522,-0.426 0.527,-0.401C0.532,-0.375 0.534,-0.348 0.534,-0.319L0.534,-0Z" style="fill:white;fill-rule:nonzero;"/>
                    </g>
                    <g transform="matrix(10,0,0,10,104.09,0)">
                        <path d="M0.638,-0.183C0.638,-0.154 0.632,-0.129 0.621,-0.106C0.609,-0.083 0.593,-0.064 0.574,-0.049C0.554,-0.033 0.531,-0.021 0.504,-0.013C0.477,-0.004 0.449,-0 0.419,-0L0.08,-0L0.08,-0.71L0.446,-0.71C0.471,-0.71 0.493,-0.705 0.513,-0.694C0.533,-0.683 0.55,-0.67 0.564,-0.653C0.578,-0.635 0.589,-0.616 0.597,-0.595C0.604,-0.573 0.608,-0.551 0.608,-0.529C0.608,-0.494 0.599,-0.462 0.582,-0.432C0.564,-0.401 0.539,-0.379 0.506,-0.364C0.547,-0.352 0.579,-0.33 0.603,-0.299C0.626,-0.267 0.638,-0.228 0.638,-0.183ZM0.523,-0.204C0.523,-0.219 0.521,-0.233 0.516,-0.246C0.51,-0.259 0.504,-0.271 0.496,-0.281C0.487,-0.291 0.477,-0.299 0.465,-0.305C0.453,-0.311 0.44,-0.314 0.426,-0.314L0.192,-0.314L0.192,-0.097L0.419,-0.097C0.434,-0.097 0.447,-0.1 0.46,-0.106C0.473,-0.111 0.484,-0.119 0.493,-0.129C0.502,-0.138 0.51,-0.15 0.515,-0.163C0.52,-0.175 0.523,-0.189 0.523,-0.204ZM0.192,-0.613L0.192,-0.404L0.398,-0.404C0.412,-0.404 0.425,-0.407 0.437,-0.412C0.448,-0.417 0.459,-0.424 0.468,-0.434C0.476,-0.443 0.484,-0.453 0.489,-0.466C0.494,-0.479 0.496,-0.493 0.496,-0.508C0.496,-0.539 0.487,-0.564 0.47,-0.584C0.453,-0.603 0.431,-0.613 0.404,-0.613L0.192,-0.613Z" style="fill:white;fill-rule:nonzero;"/>
                    </g>
                    <g transform="matrix(10,0,0,10,110.85,0)">
                        <path d="M0.205,0.01C0.18,0.01 0.156,0.006 0.135,-0.003C0.113,-0.011 0.094,-0.022 0.079,-0.037C0.063,-0.052 0.05,-0.069 0.042,-0.089C0.033,-0.109 0.028,-0.131 0.028,-0.154C0.028,-0.179 0.033,-0.201 0.044,-0.221C0.055,-0.241 0.07,-0.258 0.09,-0.273C0.109,-0.288 0.133,-0.299 0.16,-0.307C0.187,-0.315 0.216,-0.319 0.249,-0.319C0.274,-0.319 0.298,-0.317 0.322,-0.313C0.346,-0.308 0.368,-0.302 0.387,-0.295L0.387,-0.331C0.387,-0.37 0.376,-0.4 0.354,-0.422C0.332,-0.443 0.3,-0.454 0.259,-0.454C0.231,-0.454 0.204,-0.449 0.177,-0.439C0.15,-0.428 0.122,-0.413 0.093,-0.394L0.059,-0.464C0.126,-0.509 0.196,-0.532 0.269,-0.532C0.341,-0.532 0.397,-0.514 0.437,-0.477C0.477,-0.44 0.497,-0.388 0.497,-0.319L0.497,-0.13C0.497,-0.117 0.499,-0.108 0.504,-0.103C0.509,-0.098 0.517,-0.095 0.528,-0.094L0.528,-0C0.517,0.002 0.507,0.003 0.499,0.004C0.49,0.005 0.481,0.005 0.474,0.005C0.453,0.004 0.436,-0.002 0.426,-0.012C0.415,-0.022 0.408,-0.035 0.405,-0.052L0.402,-0.085C0.379,-0.054 0.35,-0.031 0.316,-0.015C0.281,0.002 0.244,0.01 0.205,0.01ZM0.235,-0.071C0.262,-0.071 0.287,-0.076 0.311,-0.086C0.334,-0.095 0.353,-0.109 0.366,-0.126C0.38,-0.138 0.387,-0.151 0.387,-0.164L0.387,-0.233C0.368,-0.24 0.349,-0.246 0.328,-0.25C0.307,-0.254 0.286,-0.256 0.266,-0.256C0.227,-0.256 0.195,-0.248 0.17,-0.231C0.145,-0.214 0.132,-0.191 0.132,-0.163C0.132,-0.137 0.142,-0.115 0.161,-0.098C0.18,-0.08 0.205,-0.071 0.235,-0.071Z" style="fill:white;fill-rule:nonzero;"/>
                    </g>
                    <g transform="matrix(10,0,0,10,116.52,0)">
                        <path d="M0.358,-0.428C0.315,-0.427 0.278,-0.417 0.245,-0.399C0.212,-0.38 0.189,-0.354 0.174,-0.32L0.174,-0L0.064,-0L0.064,-0.523L0.166,-0.523L0.166,-0.406C0.185,-0.442 0.209,-0.471 0.238,-0.494C0.267,-0.517 0.297,-0.528 0.33,-0.528L0.347,-0.528C0.351,-0.528 0.355,-0.528 0.358,-0.527L0.358,-0.428Z" style="fill:white;fill-rule:nonzero;"/>
                    </g>
                    <g transform="matrix(10,0,0,10,120.26,0)">
                        <path d="M0.865,-0L0.755,-0L0.755,-0.293C0.755,-0.342 0.747,-0.377 0.731,-0.4C0.714,-0.423 0.691,-0.434 0.661,-0.434C0.63,-0.434 0.601,-0.423 0.575,-0.4C0.549,-0.377 0.53,-0.347 0.519,-0.31L0.519,-0L0.409,-0L0.409,-0.293C0.409,-0.342 0.401,-0.378 0.386,-0.401C0.37,-0.423 0.347,-0.434 0.316,-0.434C0.285,-0.434 0.257,-0.423 0.231,-0.4C0.204,-0.377 0.185,-0.348 0.174,-0.311L0.174,-0L0.064,-0L0.064,-0.523L0.164,-0.523L0.164,-0.418C0.185,-0.455 0.212,-0.483 0.246,-0.503C0.279,-0.522 0.318,-0.532 0.361,-0.532C0.405,-0.532 0.439,-0.521 0.464,-0.498C0.489,-0.475 0.504,-0.447 0.511,-0.413C0.533,-0.452 0.561,-0.481 0.594,-0.502C0.627,-0.522 0.665,-0.532 0.707,-0.532C0.738,-0.532 0.763,-0.526 0.784,-0.515C0.804,-0.503 0.82,-0.487 0.832,-0.468C0.844,-0.449 0.853,-0.426 0.858,-0.401C0.862,-0.375 0.865,-0.348 0.865,-0.319L0.865,-0Z" style="fill:white;fill-rule:nonzero;"/>
                    </g>
                    <g transform="matrix(10,0,0,10,129.5,0)">
                        <path d="M0.347,0.01C0.306,0.01 0.27,0.001 0.238,-0.019C0.205,-0.038 0.18,-0.063 0.161,-0.095L0.161,-0L0.064,-0L0.064,-0.73L0.174,-0.73L0.174,-0.424C0.195,-0.457 0.221,-0.484 0.252,-0.503C0.282,-0.522 0.319,-0.532 0.361,-0.532C0.396,-0.532 0.427,-0.525 0.456,-0.51C0.485,-0.495 0.509,-0.474 0.53,-0.45C0.55,-0.425 0.566,-0.396 0.577,-0.363C0.588,-0.329 0.593,-0.295 0.593,-0.259C0.593,-0.222 0.587,-0.187 0.574,-0.154C0.561,-0.121 0.544,-0.093 0.522,-0.069C0.5,-0.044 0.474,-0.025 0.444,-0.011C0.414,0.003 0.382,0.01 0.347,0.01ZM0.318,-0.084C0.342,-0.084 0.364,-0.089 0.384,-0.099C0.404,-0.108 0.421,-0.121 0.436,-0.137C0.45,-0.153 0.461,-0.171 0.469,-0.193C0.477,-0.214 0.481,-0.236 0.481,-0.259C0.481,-0.282 0.477,-0.305 0.47,-0.327C0.462,-0.348 0.451,-0.367 0.438,-0.384C0.424,-0.4 0.407,-0.413 0.389,-0.423C0.37,-0.433 0.349,-0.438 0.326,-0.438C0.309,-0.438 0.293,-0.435 0.278,-0.429C0.263,-0.423 0.249,-0.415 0.236,-0.405C0.223,-0.394 0.211,-0.382 0.201,-0.369C0.19,-0.355 0.181,-0.34 0.174,-0.325L0.174,-0.187C0.178,-0.172 0.185,-0.158 0.195,-0.146C0.205,-0.133 0.217,-0.122 0.231,-0.113C0.244,-0.104 0.259,-0.096 0.274,-0.092C0.289,-0.087 0.304,-0.084 0.318,-0.084Z" style="fill:white;fill-rule:nonzero;"/>
                    </g>
                    <g transform="matrix(10,0,0,10,135.77,0)">
                        <path d="M0.303,0.01C0.262,0.01 0.225,0.003 0.192,-0.012C0.159,-0.026 0.13,-0.045 0.107,-0.07C0.083,-0.095 0.065,-0.123 0.052,-0.156C0.039,-0.189 0.032,-0.223 0.032,-0.26C0.032,-0.297 0.039,-0.331 0.052,-0.365C0.065,-0.398 0.083,-0.427 0.107,-0.452C0.13,-0.476 0.159,-0.496 0.192,-0.511C0.225,-0.525 0.263,-0.532 0.304,-0.532C0.345,-0.532 0.382,-0.525 0.415,-0.51C0.448,-0.495 0.476,-0.476 0.499,-0.452C0.522,-0.427 0.54,-0.399 0.553,-0.367C0.565,-0.334 0.571,-0.3 0.571,-0.265C0.571,-0.257 0.571,-0.249 0.57,-0.243C0.569,-0.236 0.569,-0.23 0.568,-0.225L0.149,-0.225C0.151,-0.202 0.157,-0.181 0.166,-0.162C0.174,-0.143 0.186,-0.127 0.201,-0.114C0.215,-0.1 0.231,-0.089 0.25,-0.082C0.268,-0.075 0.287,-0.071 0.307,-0.071C0.322,-0.071 0.336,-0.073 0.351,-0.077C0.365,-0.08 0.378,-0.086 0.39,-0.093C0.402,-0.099 0.413,-0.108 0.422,-0.118C0.431,-0.128 0.439,-0.139 0.444,-0.151L0.538,-0.124C0.52,-0.085 0.49,-0.053 0.449,-0.028C0.407,-0.003 0.358,0.01 0.303,0.01ZM0.462,-0.301C0.46,-0.323 0.455,-0.343 0.446,-0.362C0.436,-0.381 0.425,-0.397 0.411,-0.41C0.397,-0.423 0.381,-0.433 0.362,-0.44C0.343,-0.447 0.324,-0.451 0.303,-0.451C0.282,-0.451 0.263,-0.447 0.245,-0.44C0.226,-0.433 0.21,-0.423 0.196,-0.41C0.182,-0.397 0.171,-0.381 0.162,-0.362C0.153,-0.343 0.148,-0.323 0.146,-0.301L0.462,-0.301Z" style="fill:white;fill-rule:nonzero;"/>
                    </g>
                    <g transform="matrix(10,0,0,10,141.72,0)">
                        <path d="M0.428,-0L0.261,-0.241L0.174,-0.159L0.174,-0L0.064,-0L0.064,-0.73L0.174,-0.73L0.174,-0.267L0.415,-0.522L0.534,-0.522L0.332,-0.303L0.546,-0L0.428,-0Z" style="fill:white;fill-rule:nonzero;"/>
                    </g>
                </g>
            </g>
            <g id="Logo_WW_white_cmyk" transform="matrix(17.1845,0,0,17.1845,2046.32,1606.63)">
                <path id="Shape" d="M18.01,35.659C8.28,35.659 0.36,27.744 0.36,18.01C0.36,8.275 8.28,0.36 18.01,0.36C27.739,0.36 35.659,8.275 35.659,18.01C35.659,27.744 27.739,35.659 18.01,35.659ZM18.01,1.32C8.808,1.32 1.32,8.808 1.32,18.01C1.32,27.211 8.808,34.699 18.01,34.699C27.211,34.699 34.699,27.211 34.699,18.01C34.699,8.808 27.211,1.32 18.01,1.32Z" style="fill:white;fill-rule:nonzero;"/>
                <path id="Shape1" serif:id="Shape" d="M18.01,33.514C9.461,33.514 2.506,26.558 2.506,18.01C2.506,9.461 9.461,2.506 18.01,2.506C26.558,2.506 33.514,9.461 33.514,18.01C33.514,26.558 26.558,33.514 18.01,33.514ZM18.01,3.466C9.989,3.466 3.466,9.989 3.466,18.01C3.466,26.03 9.989,32.554 18.01,32.554C26.03,32.554 32.554,26.03 32.554,18.01C32.554,9.989 26.03,3.466 18.01,3.466Z" style="fill:white;fill-rule:nonzero;"/>
                <path id="Shape2" serif:id="Shape" d="M29.434,14.87C29.194,14.76 28.906,14.87 28.8,15.11L25.32,22.877L22.243,16.978C22.646,16.2 23.669,14.155 23.669,13.354C23.669,12.269 22.786,11.39 21.706,11.39C20.626,11.39 19.742,12.274 19.742,13.354C19.742,14.15 20.765,16.2 21.163,16.978L18.043,22.944L14.818,16.757C14.808,16.742 14.798,16.733 14.789,16.718C14.77,16.69 14.75,16.666 14.726,16.642C14.702,16.618 14.678,16.598 14.65,16.579C14.635,16.57 14.626,16.555 14.611,16.55C14.597,16.546 14.582,16.546 14.573,16.541C14.544,16.526 14.51,16.522 14.477,16.512C14.448,16.507 14.419,16.502 14.39,16.502C14.362,16.502 14.328,16.507 14.299,16.512C14.266,16.517 14.237,16.526 14.208,16.541C14.194,16.546 14.179,16.546 14.17,16.55C14.155,16.56 14.146,16.574 14.131,16.579C14.102,16.598 14.078,16.618 14.059,16.637C14.035,16.661 14.016,16.685 13.997,16.714C13.987,16.728 13.973,16.738 13.968,16.752L10.738,22.949L7.224,15.11C7.114,14.87 6.83,14.76 6.59,14.87C6.35,14.981 6.24,15.264 6.35,15.504L10.234,24.173C10.315,24.35 10.488,24.456 10.67,24.456C10.68,24.456 10.685,24.451 10.694,24.451C10.709,24.451 10.723,24.456 10.738,24.456C10.91,24.456 11.078,24.36 11.165,24.197L14.39,18.01L17.616,24.197C17.63,24.221 17.645,24.24 17.664,24.259C17.669,24.269 17.674,24.274 17.678,24.283C17.717,24.331 17.765,24.37 17.818,24.398C17.822,24.398 17.827,24.403 17.832,24.403C17.899,24.437 17.966,24.456 18.043,24.456C18.12,24.456 18.192,24.437 18.264,24.403C18.269,24.398 18.274,24.394 18.278,24.389C18.322,24.365 18.36,24.331 18.398,24.293C18.413,24.278 18.422,24.259 18.437,24.24C18.446,24.226 18.461,24.211 18.47,24.192L21.696,18.005L24.922,24.192C24.941,24.226 24.96,24.254 24.984,24.278C24.989,24.283 24.994,24.293 24.998,24.298C25.037,24.341 25.085,24.37 25.133,24.394C25.138,24.398 25.142,24.403 25.152,24.408C25.162,24.413 25.166,24.408 25.176,24.413C25.229,24.432 25.286,24.446 25.344,24.446L25.354,24.446C25.397,24.446 25.435,24.442 25.478,24.427C25.493,24.422 25.502,24.418 25.517,24.413C25.536,24.403 25.555,24.398 25.574,24.389C25.579,24.384 25.584,24.379 25.589,24.379C25.637,24.35 25.68,24.317 25.718,24.274C25.728,24.264 25.733,24.25 25.738,24.24C25.757,24.216 25.776,24.187 25.79,24.158L29.674,15.49C29.784,15.264 29.674,14.981 29.434,14.87ZM21.696,12.35C22.248,12.35 22.699,12.802 22.699,13.354C22.699,13.728 22.195,14.89 21.696,15.917C21.192,14.89 20.693,13.728 20.693,13.354C20.693,12.802 21.144,12.35 21.696,12.35Z" style="fill:white;fill-rule:nonzero;"/>
            </g>
        </g>
    </g>
</svg>
