<?xml version="1.0" encoding="UTF-8" standalone="no"?>
<!DOCTYPE svg PUBLIC "-//W3C//DTD SVG 1.1//EN" "http://www.w3.org/Graphics/SVG/1.1/DTD/svg11.dtd">
<svg width="100%" height="100%" viewBox="0 0 32 36" version="1.1" xmlns="http://www.w3.org/2000/svg" xmlns:xlink="http://www.w3.org/1999/xlink" xml:space="preserve" xmlns:serif="http://www.serif.com/" style="fill-rule:evenodd;clip-rule:evenodd;stroke-linejoin:round;stroke-miterlimit:2;">
    <g id="Artboard1" transform="matrix(1.05293,0,0,1.0318,0.823051,1.2658)">
        <rect x="-0.782" y="-1.227" width="30.391" height="34.891" style="fill:none;"/>
        <g transform="matrix(0.94973,0,0,0.969181,1.31891,0.6258)">
            <g transform="matrix(1,0,0,1,1,1)">
                <path d="M6.596,26.83L0.805,26.83C0.363,26.829 0,26.466 0,26.024C0,25.982 0.003,25.94 0.01,25.898L3.917,1.133C4.019,0.48 4.582,0 5.242,0L14.622,0C17.853,0 20.378,0.682 21.777,2.275C23.046,3.722 23.417,5.383 23.034,7.635C23.031,7.654 24.005,8.275 24.384,8.697C25.58,10.06 25.814,11.998 25.362,14.319C24.28,19.875 20.578,21.795 15.849,21.795L15.119,21.795C14.541,21.795 14.049,22.215 13.959,22.787L13.9,23.107L12.981,28.939L12.933,29.187C12.842,29.757 12.351,30.177 11.773,30.177L6.892,30.177C6.506,30.177 6.188,29.859 6.188,29.473C6.188,29.436 6.191,29.399 6.197,29.363L6.596,26.83Z" style="fill:rgb(37,59,128);fill-rule:nonzero;stroke:white;stroke-width:3px;"/>
            </g>
            <g transform="matrix(1,0,0,1,1,1)">
                <path d="M7.266,29.154L7.789,25.832L6.624,25.805L1.061,25.805L4.927,1.292C4.951,1.138 5.085,1.023 5.241,1.024L14.621,1.024C17.735,1.024 19.884,1.672 21.006,2.951C21.532,3.551 21.867,4.178 22.029,4.868C22.199,5.592 22.202,6.457 22.036,7.512L22.024,7.589L22.024,8.265L22.55,8.563C22.952,8.766 23.313,9.042 23.615,9.375C24.065,9.888 24.356,10.54 24.479,11.313C24.606,12.108 24.564,13.054 24.356,14.125C24.116,15.357 23.728,16.43 23.204,17.308C22.742,18.095 22.12,18.776 21.379,19.308C20.683,19.802 19.856,20.177 18.921,20.417C18.015,20.653 16.982,20.772 15.849,20.772L15.119,20.772C14.597,20.772 14.09,20.96 13.692,21.297C13.295,21.638 13.031,22.108 12.948,22.625L12.893,22.924L11.969,28.779L11.927,28.994C11.916,29.062 11.897,29.096 11.869,29.119C11.842,29.141 11.808,29.154 11.773,29.154L7.266,29.154Z" style="fill:rgb(37,59,128);fill-rule:nonzero;"/>
            </g>
            <g transform="matrix(1,0,0,1,1,1)">
                <path d="M23.048,7.667C23.02,7.846 22.988,8.029 22.952,8.217C21.715,14.568 17.483,16.762 12.078,16.762L9.326,16.762C8.665,16.762 8.108,17.242 8.005,17.894L6.596,26.83L6.197,29.363C6.191,29.399 6.188,29.436 6.188,29.473C6.188,29.859 6.506,30.177 6.892,30.177L11.773,30.177C12.351,30.177 12.842,29.757 12.933,29.187L12.981,28.939L13.9,23.107L13.959,22.787C14.049,22.215 14.541,21.795 15.119,21.795L15.849,21.795C20.578,21.795 24.28,19.875 25.362,14.319C25.814,11.998 25.58,10.06 24.384,8.697C24.005,8.275 23.552,7.926 23.048,7.667Z" style="fill:rgb(23,155,215);fill-rule:nonzero;"/>
            </g>
            <g transform="matrix(1,0,0,1,1,1)">
                <path d="M21.754,7.151C21.359,7.037 20.957,6.948 20.551,6.884C19.748,6.761 18.937,6.701 18.125,6.707L10.773,6.707C10.197,6.707 9.702,7.13 9.614,7.699L8.05,17.605L8.005,17.894C8.105,17.245 8.67,16.762 9.326,16.762L12.078,16.762C17.483,16.762 21.715,14.567 22.952,8.217C22.989,8.029 23.02,7.846 23.048,7.667C22.722,7.496 22.381,7.352 22.031,7.238C21.939,7.208 21.847,7.179 21.754,7.151Z" style="fill:rgb(34,45,101);fill-rule:nonzero;"/>
            </g>
            <g transform="matrix(1,0,0,1,1,1)">
                <path d="M9.614,7.699C9.702,7.13 10.197,6.706 10.773,6.708L18.125,6.708C18.996,6.708 19.809,6.765 20.551,6.885C21.053,6.964 21.548,7.082 22.032,7.238C22.397,7.359 22.736,7.502 23.049,7.667C23.417,5.32 23.046,3.722 21.777,2.275C20.378,0.682 17.853,0 14.622,0L5.242,0C4.582,0 4.019,0.48 3.917,1.133L0.01,25.898C0.003,25.94 0,25.982 0,26.024C0,26.466 0.363,26.829 0.805,26.83L6.596,26.83L8.05,17.605L9.614,7.699Z" style="fill:rgb(37,59,128);fill-rule:nonzero;"/>
            </g>
        </g>
    </g>
</svg>
