<svg xmlns="http://www.w3.org/2000/svg" width="83.55" height="83.55" viewBox="0 0 83.55 83.55"><path d="M208.55,59.62a14.62,14.62,0,0,1-4.62,1.77,7.29,7.29,0,0,0-12.6,5,7,7,0,0,0,.19,1.66,20.65,20.65,0,0,1-15-7.61,7.29,7.29,0,0,0,2.25,9.73,7.2,7.2,0,0,1-3.29-.92.34.34,0,0,0,0,.1,7.29,7.29,0,0,0,5.85,7.14,7.23,7.23,0,0,1-1.92.26,6.84,6.84,0,0,1-1.37-.14,7.28,7.28,0,0,0,6.8,5.06,14.62,14.62,0,0,1-9,3.12,14.26,14.26,0,0,1-1.74-.11,20.58,20.58,0,0,0,11.16,3.28c13.4,0,20.72-11.1,20.72-20.72,0-.32,0-.63,0-.94a14.79,14.79,0,0,0,3.63-3.77,14.94,14.94,0,0,1-4.18,1.14A7.3,7.3,0,0,0,208.55,59.62Z" transform="translate(-149.22 -31.23)"/><path d="M191,31.23A41.78,41.78,0,1,0,232.77,73,41.82,41.82,0,0,0,191,31.23ZM191,109a36,36,0,1,1,36-36A36.08,36.08,0,0,1,191,109Z" transform="translate(-149.22 -31.23)"/></svg>