<?xml version="1.0" encoding="UTF-8"?>
<svg width="185px" height="70px" viewBox="0 0 185 70" version="1.1" xmlns="http://www.w3.org/2000/svg" xmlns:xlink="http://www.w3.org/1999/xlink">
    <!-- Generator: Sketch 55.2 (78181) - https://sketchapp.com -->
    <title>Artboard</title>
    <desc>Created with Sketch.</desc>
    <g id="Artboard" stroke="none" stroke-width="1" fill="none" fill-rule="evenodd">
        <text id="Welcome-Werkstatt-e." font-family="Raleway-SemiBold, Raleway" font-size="16" font-weight="500" fill="#FFFFFF">
            <tspan x="0.364" y="55">Welcome Werkstatt e. V.</tspan>
        </text>
        <text id="Gemeinsam-kreativ-in" font-family="Raleway-SemiBold, Raleway" font-size="10" font-weight="500" fill="#FFFFFF">
            <tspan x="19.355" y="68">Gemeinsam kreativ in Barmbek</tspan>
        </text>
        <g id="Logo_WW_white_cmyk" transform="translate(75.000000, 0.000000)" fill="#FFFFFF" fill-rule="nonzero">
            <path d="M18.0096,35.6592 C8.28,35.6592 0.36,27.744 0.36,18.0096 C0.36,8.2752 8.28,0.36 18.0096,0.36 C27.7392,0.36 35.6592,8.2752 35.6592,18.0096 C35.6592,27.744 27.7392,35.6592 18.0096,35.6592 Z M18.0096,1.32 C8.808,1.32 1.32,8.808 1.32,18.0096 C1.32,27.2112 8.808,34.6992 18.0096,34.6992 C27.2112,34.6992 34.6992,27.2112 34.6992,18.0096 C34.6992,8.808 27.2112,1.32 18.0096,1.32 Z" id="Shape"></path>
            <path d="M18.0096,33.5136 C9.4608,33.5136 2.5056,26.5584 2.5056,18.0096 C2.5056,9.4608 9.4608,2.5056 18.0096,2.5056 C26.5584,2.5056 33.5136,9.4608 33.5136,18.0096 C33.5136,26.5584 26.5584,33.5136 18.0096,33.5136 Z M18.0096,3.4656 C9.9888,3.4656 3.4656,9.9888 3.4656,18.0096 C3.4656,26.0304 9.9888,32.5536 18.0096,32.5536 C26.0304,32.5536 32.5536,26.0304 32.5536,18.0096 C32.5536,9.9888 26.0304,3.4656 18.0096,3.4656 Z" id="Shape"></path>
            <path d="M29.4336,14.8704 C29.1936,14.76 28.9056,14.8704 28.8,15.1104 L25.32,22.8768 L22.2432,16.9776 C22.6464,16.2 23.6688,14.1552 23.6688,13.3536 C23.6688,12.2688 22.7856,11.3904 21.7056,11.3904 C20.6256,11.3904 19.7424,12.2736 19.7424,13.3536 C19.7424,14.1504 20.7648,16.2 21.1632,16.9776 L18.0432,22.944 L14.8176,16.7568 C14.808,16.7424 14.7984,16.7328 14.7888,16.7184 C14.7696,16.6896 14.7504,16.6656 14.7264,16.6416 C14.7024,16.6176 14.6784,16.5984 14.6496,16.5792 C14.6352,16.5696 14.6256,16.5552 14.6112,16.5504 C14.5968,16.5456 14.5824,16.5456 14.5728,16.5408 C14.544,16.5264 14.5104,16.5216 14.4768,16.512 C14.448,16.5072 14.4192,16.5024 14.3904,16.5024 C14.3616,16.5024 14.328,16.5072 14.2992,16.512 C14.2656,16.5168 14.2368,16.5264 14.208,16.5408 C14.1936,16.5456 14.1792,16.5456 14.1696,16.5504 C14.1552,16.56 14.1456,16.5744 14.1312,16.5792 C14.1024,16.5984 14.0784,16.6176 14.0592,16.6368 C14.0352,16.6608 14.016,16.6848 13.9968,16.7136 C13.9872,16.728 13.9728,16.7376 13.968,16.752 L10.7376,22.9488 L7.224,15.1104 C7.1136,14.8704 6.8304,14.76 6.5904,14.8704 C6.3504,14.9808 6.24,15.264 6.3504,15.504 L10.2336,24.1728 C10.3152,24.3504 10.488,24.456 10.6704,24.456 C10.68,24.456 10.6848,24.4512 10.6944,24.4512 C10.7088,24.4512 10.7232,24.456 10.7376,24.456 C10.9104,24.456 11.0784,24.36 11.1648,24.1968 L14.3904,18.0096 L17.616,24.1968 C17.6304,24.2208 17.6448,24.24 17.664,24.2592 C17.6688,24.2688 17.6736,24.2736 17.6784,24.2832 C17.7168,24.3312 17.7648,24.3696 17.8176,24.3984 C17.8176,24.3984 17.8176,24.3984 17.8176,24.3984 C17.8224,24.3984 17.8272,24.4032 17.832,24.4032 C17.8992,24.4368 17.9664,24.456 18.0432,24.456 C18.12,24.456 18.192,24.4368 18.264,24.4032 C18.2688,24.3984 18.2736,24.3936 18.2784,24.3888 C18.3216,24.3648 18.36,24.3312 18.3984,24.2928 C18.4128,24.2784 18.4224,24.2592 18.4368,24.24 C18.4464,24.2256 18.4608,24.2112 18.4704,24.192 L21.696,18.0048 L24.9216,24.192 C24.9408,24.2256 24.96,24.2544 24.984,24.2784 C24.9888,24.2832 24.9936,24.2928 24.9984,24.2976 C25.0368,24.3408 25.0848,24.3696 25.1328,24.3936 C25.1376,24.3984 25.1424,24.4032 25.152,24.408 C25.1616,24.4128 25.1664,24.408 25.176,24.4128 C25.2288,24.432 25.2864,24.4464 25.344,24.4464 C25.344,24.4464 25.3488,24.4464 25.3488,24.4464 C25.3488,24.4464 25.3488,24.4464 25.3536,24.4464 C25.3968,24.4464 25.4352,24.4416 25.4784,24.4272 C25.4928,24.4224 25.5024,24.4176 25.5168,24.4128 C25.536,24.4032 25.5552,24.3984 25.5744,24.3888 C25.5792,24.384 25.584,24.3792 25.5888,24.3792 C25.6368,24.3504 25.68,24.3168 25.7184,24.2736 C25.728,24.264 25.7328,24.2496 25.7376,24.24 C25.7568,24.216 25.776,24.1872 25.7904,24.1584 L29.6736,15.4896 C29.784,15.264 29.6736,14.9808 29.4336,14.8704 Z M21.696,12.3504 C22.248,12.3504 22.6992,12.8016 22.6992,13.3536 C22.6992,13.728 22.1952,14.8896 21.696,15.9168 C21.192,14.8896 20.6928,13.728 20.6928,13.3536 C20.6928,12.8016 21.144,12.3504 21.696,12.3504 Z" id="Shape"></path>
        </g>
    </g>
</svg>