<svg width="673" height="104" viewBox="0 0 673 104" xmlns="http://www.w3.org/2000/svg"><title>  Artboard</title><g fill="none"><g fill="#FFF"><path d="M135.94 21.06L141.02 21.06 145.2 32.63 149.42 21.06 154.46 21.06 148.66 36.23 153.74 48.76 164.35 20.92 170.26 20.92 156.19 55 151.58 55 145.25 39.74 138.86 55 134.26 55 120.19 20.92 126.05 20.92 136.7 48.76 141.79 36.23 135.94 21.06ZM181.92 55.48C179.97 55.48 178.19 55.14 176.59 54.45 174.99 53.76 173.62 52.82 172.49 51.64 171.35 50.46 170.47 49.08 169.85 47.51 169.22 45.94 168.91 44.28 168.91 42.52 168.91 40.76 169.22 39.09 169.85 37.5 170.47 35.92 171.35 34.53 172.49 33.33 173.62 32.13 174.99 31.18 176.59 30.5 178.19 29.81 179.98 29.46 181.97 29.46 183.92 29.46 185.69 29.82 187.27 30.52 188.86 31.22 190.21 32.16 191.33 33.33 192.45 34.5 193.3 35.86 193.9 37.41 194.49 38.96 194.78 40.58 194.78 42.28 194.78 42.66 194.77 43.02 194.74 43.36 194.7 43.7 194.67 43.98 194.64 44.2L174.53 44.2C174.62 45.32 174.89 46.33 175.32 47.22 175.75 48.12 176.31 48.9 177 49.55 177.69 50.21 178.47 50.71 179.35 51.06 180.23 51.42 181.15 51.59 182.11 51.59 182.82 51.59 183.51 51.5 184.2 51.33 184.89 51.15 185.52 50.9 186.1 50.56 186.67 50.22 187.18 49.82 187.63 49.34 188.08 48.86 188.43 48.33 188.69 47.75L193.2 49.05C192.34 50.94 190.9 52.48 188.9 53.68 186.9 54.88 184.58 55.48 181.92 55.48ZM189.55 40.55C189.46 39.5 189.19 38.52 188.76 37.62 188.33 36.73 187.78 35.97 187.1 35.34 186.43 34.72 185.65 34.23 184.75 33.88 183.86 33.53 182.91 33.35 181.92 33.35 180.93 33.35 179.99 33.53 179.11 33.88 178.23 34.23 177.46 34.72 176.78 35.34 176.11 35.97 175.57 36.73 175.15 37.62 174.74 38.52 174.48 39.5 174.38 40.55L189.55 40.55ZM199.15 19.96L204.43 19.96 204.43 47.75C204.43 48.68 204.67 49.41 205.15 49.94 205.63 50.46 206.3 50.73 207.17 50.73 207.52 50.73 207.93 50.66 208.39 50.54 208.86 50.41 209.3 50.26 209.71 50.1L210.48 54.23C209.71 54.58 208.8 54.86 207.74 55.07 206.69 55.28 205.74 55.38 204.91 55.38 203.09 55.38 201.67 54.89 200.66 53.9 199.66 52.9 199.15 51.5 199.15 49.67L199.15 19.96ZM211.92 42.42C211.92 40.66 212.22 39 212.83 37.43 213.44 35.86 214.31 34.49 215.45 33.3 216.58 32.12 217.95 31.18 219.55 30.5 221.15 29.81 222.94 29.46 224.93 29.46 227.52 29.46 229.75 30.03 231.62 31.17 233.5 32.3 234.9 33.82 235.82 35.7L230.69 37.34C230.08 36.28 229.26 35.46 228.24 34.86 227.22 34.27 226.08 33.98 224.83 33.98 223.78 33.98 222.79 34.18 221.88 34.6 220.97 35.02 220.18 35.6 219.5 36.35 218.83 37.1 218.3 37.99 217.92 39.02 217.54 40.04 217.34 41.18 217.34 42.42 217.34 43.64 217.54 44.77 217.94 45.81 218.34 46.85 218.89 47.75 219.58 48.52 220.26 49.29 221.06 49.89 221.98 50.32 222.89 50.75 223.86 50.97 224.88 50.97 225.52 50.97 226.16 50.88 226.8 50.7 227.44 50.53 228.02 50.28 228.55 49.96 229.08 49.64 229.54 49.27 229.94 48.86 230.34 48.44 230.64 47.99 230.83 47.51L236.02 49.05C235.18 50.94 233.79 52.48 231.84 53.68 229.89 54.88 227.58 55.48 224.93 55.48 222.98 55.48 221.2 55.13 219.6 54.42 218 53.72 216.63 52.77 215.5 51.57 214.36 50.37 213.48 48.98 212.86 47.42 212.23 45.85 211.92 44.18 211.92 42.42ZM251.42 55.48C249.44 55.48 247.66 55.13 246.07 54.42 244.49 53.72 243.14 52.78 242.02 51.59 240.9 50.41 240.03 49.02 239.42 47.44 238.82 45.86 238.51 44.2 238.51 42.47 238.51 40.74 238.82 39.09 239.42 37.5 240.03 35.92 240.9 34.54 242.04 33.35 243.18 32.17 244.54 31.22 246.12 30.52 247.7 29.82 249.47 29.46 251.42 29.46 253.38 29.46 255.14 29.82 256.73 30.52 258.31 31.22 259.67 32.17 260.81 33.35 261.94 34.54 262.82 35.92 263.42 37.5 264.03 39.09 264.34 40.74 264.34 42.47 264.34 44.2 264.03 45.86 263.42 47.44 262.82 49.02 261.94 50.41 260.81 51.59 259.67 52.78 258.31 53.72 256.73 54.42 255.14 55.13 253.38 55.48 251.42 55.48ZM243.94 42.52C243.94 43.74 244.13 44.86 244.51 45.88 244.9 46.9 245.42 47.79 246.1 48.54 246.77 49.3 247.56 49.89 248.47 50.32 249.38 50.75 250.37 50.97 251.42 50.97 252.48 50.97 253.46 50.75 254.38 50.32 255.29 49.89 256.08 49.29 256.75 48.52 257.42 47.75 257.95 46.86 258.34 45.83 258.72 44.81 258.91 43.69 258.91 42.47 258.91 41.29 258.72 40.18 258.34 39.14 257.95 38.1 257.42 37.19 256.75 36.42 256.08 35.66 255.29 35.06 254.38 34.62 253.46 34.19 252.48 33.98 251.42 33.98 250.4 33.98 249.43 34.2 248.52 34.65 247.61 35.1 246.82 35.7 246.14 36.47 245.47 37.24 244.94 38.14 244.54 39.18 244.14 40.22 243.94 41.34 243.94 42.52ZM307.44 55L302.16 55 302.16 40.94C302.16 38.6 301.78 36.89 301.01 35.8 300.24 34.71 299.12 34.17 297.65 34.17 296.14 34.17 294.78 34.72 293.54 35.82 292.31 36.93 291.42 38.36 290.88 40.12L290.88 55 285.6 55 285.6 40.94C285.6 38.57 285.22 36.85 284.45 35.78 283.68 34.7 282.58 34.17 281.14 34.17 279.63 34.17 278.26 34.71 277.01 35.8 275.76 36.89 274.86 38.31 274.32 40.07L274.32 55 269.04 55 269.04 29.9 273.84 29.9 273.84 34.94C274.83 33.18 276.14 31.82 277.75 30.88 279.37 29.94 281.22 29.46 283.3 29.46 285.38 29.46 287.02 30.01 288.22 31.1 289.42 32.18 290.16 33.54 290.45 35.18 291.5 33.32 292.83 31.9 294.43 30.93 296.03 29.95 297.86 29.46 299.9 29.46 301.38 29.46 302.6 29.74 303.58 30.3 304.55 30.86 305.33 31.61 305.9 32.54 306.48 33.46 306.88 34.54 307.1 35.78 307.33 37.01 307.44 38.31 307.44 39.69L307.44 55ZM324.91 55.48C322.96 55.48 321.18 55.14 319.58 54.45 317.98 53.76 316.62 52.82 315.48 51.64 314.34 50.46 313.46 49.08 312.84 47.51 312.22 45.94 311.9 44.28 311.9 42.52 311.9 40.76 312.22 39.09 312.84 37.5 313.46 35.92 314.34 34.53 315.48 33.33 316.62 32.13 317.98 31.18 319.58 30.5 321.18 29.81 322.98 29.46 324.96 29.46 326.91 29.46 328.68 29.82 330.26 30.52 331.85 31.22 333.2 32.16 334.32 33.33 335.44 34.5 336.3 35.86 336.89 37.41 337.48 38.96 337.78 40.58 337.78 42.28 337.78 42.66 337.76 43.02 337.73 43.36 337.7 43.7 337.66 43.98 337.63 44.2L317.52 44.2C317.62 45.32 317.88 46.33 318.31 47.22 318.74 48.12 319.3 48.9 319.99 49.55 320.68 50.21 321.46 50.71 322.34 51.06 323.22 51.42 324.14 51.59 325.1 51.59 325.81 51.59 326.5 51.5 327.19 51.33 327.88 51.15 328.51 50.9 329.09 50.56 329.66 50.22 330.18 49.82 330.62 49.34 331.07 48.86 331.42 48.33 331.68 47.75L336.19 49.05C335.33 50.94 333.9 52.48 331.9 53.68 329.9 54.88 327.57 55.48 324.91 55.48ZM332.54 40.55C332.45 39.5 332.18 38.52 331.75 37.62 331.32 36.73 330.77 35.97 330.1 35.34 329.42 34.72 328.64 34.23 327.74 33.88 326.85 33.53 325.9 33.35 324.91 33.35 323.92 33.35 322.98 33.53 322.1 33.88 321.22 34.23 320.45 34.72 319.78 35.34 319.1 35.97 318.56 36.73 318.14 37.62 317.73 38.52 317.47 39.5 317.38 40.55L332.54 40.55ZM365.09 21.06L370.18 21.06 374.35 32.63 378.58 21.06 383.62 21.06 377.81 36.23 382.9 48.76 393.5 20.92 399.41 20.92 385.34 55 380.74 55 374.4 39.74 368.02 55 363.41 55 349.34 20.92 355.2 20.92 365.86 48.76 370.94 36.23 365.09 21.06ZM411.07 55.48C409.12 55.48 407.34 55.14 405.74 54.45 404.14 53.76 402.78 52.82 401.64 51.64 400.5 50.46 399.62 49.08 399 47.51 398.38 45.94 398.06 44.28 398.06 42.52 398.06 40.76 398.38 39.09 399 37.5 399.62 35.92 400.5 34.53 401.64 33.33 402.78 32.13 404.14 31.18 405.74 30.5 407.34 29.81 409.14 29.46 411.12 29.46 413.07 29.46 414.84 29.82 416.42 30.52 418.01 31.22 419.36 32.16 420.48 33.33 421.6 34.5 422.46 35.86 423.05 37.41 423.64 38.96 423.94 40.58 423.94 42.28 423.94 42.66 423.92 43.02 423.89 43.36 423.86 43.7 423.82 43.98 423.79 44.2L403.68 44.2C403.78 45.32 404.04 46.33 404.47 47.22 404.9 48.12 405.46 48.9 406.15 49.55 406.84 50.21 407.62 50.71 408.5 51.06 409.38 51.42 410.3 51.59 411.26 51.59 411.97 51.59 412.66 51.5 413.35 51.33 414.04 51.15 414.67 50.9 415.25 50.56 415.82 50.22 416.34 49.82 416.78 49.34 417.23 48.86 417.58 48.33 417.84 47.75L422.35 49.05C421.49 50.94 420.06 52.48 418.06 53.68 416.06 54.88 413.73 55.48 411.07 55.48ZM418.7 40.55C418.61 39.5 418.34 38.52 417.91 37.62 417.48 36.73 416.93 35.97 416.26 35.34 415.58 34.72 414.8 34.23 413.9 33.88 413.01 33.53 412.06 33.35 411.07 33.35 410.08 33.35 409.14 33.53 408.26 33.88 407.38 34.23 406.61 34.72 405.94 35.34 405.26 35.97 404.72 36.73 404.3 37.62 403.89 38.52 403.63 39.5 403.54 40.55L418.7 40.55ZM442.37 34.46C440.32 34.52 438.5 34.99 436.92 35.87 435.34 36.75 434.21 38.01 433.54 39.64L433.54 55 428.26 55 428.26 29.9 433.15 29.9 433.15 35.51C434.02 33.78 435.14 32.4 436.54 31.36 437.93 30.32 439.42 29.75 441.02 29.66L441.82 29.66C442.02 29.66 442.21 29.67 442.37 29.7L442.37 34.46ZM463.68 55L455.66 43.43 451.49 47.37 451.49 55 446.21 55 446.21 19.96 451.49 19.96 451.49 42.18 463.01 29.94 468.77 29.94 459.02 40.46 469.3 55 463.68 55ZM481.63 55.48C479.62 55.48 477.61 55.15 475.61 54.5 473.61 53.84 471.89 52.9 470.45 51.69L472.56 48.33C474.06 49.42 475.55 50.24 477.02 50.8 478.5 51.36 480 51.64 481.54 51.64 483.1 51.64 484.34 51.34 485.26 50.73 486.17 50.12 486.62 49.26 486.62 48.14 486.62 47.08 486.11 46.31 485.09 45.83 484.06 45.35 482.46 44.82 480.29 44.25 478.72 43.83 477.38 43.43 476.26 43.05 475.14 42.66 474.22 42.22 473.52 41.7 472.82 41.19 472.3 40.6 471.98 39.93 471.66 39.26 471.5 38.44 471.5 37.48 471.5 36.2 471.75 35.06 472.25 34.07 472.74 33.08 473.43 32.24 474.31 31.55 475.19 30.86 476.22 30.34 477.41 29.99 478.59 29.64 479.87 29.46 481.25 29.46 483.14 29.46 484.9 29.75 486.53 30.33 488.16 30.9 489.62 31.74 490.9 32.82L488.64 35.99C486.3 34.14 483.82 33.21 481.2 33.21 479.86 33.21 478.73 33.49 477.82 34.05 476.9 34.61 476.45 35.5 476.45 36.71 476.45 37.22 476.54 37.66 476.74 38.01 476.93 38.36 477.24 38.66 477.67 38.92 478.1 39.18 478.66 39.41 479.35 39.62 480.04 39.82 480.9 40.06 481.92 40.31 483.62 40.73 485.08 41.14 486.31 41.56 487.54 41.98 488.56 42.46 489.36 43.02 490.16 43.58 490.75 44.24 491.14 44.99 491.52 45.74 491.71 46.65 491.71 47.7 491.71 50.1 490.81 52 489 53.39 487.19 54.78 484.74 55.48 481.63 55.48ZM510.29 53.7C509.62 54.02 508.69 54.38 507.5 54.78 506.32 55.18 505.06 55.38 503.71 55.38 502.88 55.38 502.1 55.27 501.36 55.05 500.62 54.82 499.98 54.49 499.42 54.04 498.86 53.59 498.42 53.01 498.1 52.29 497.78 51.57 497.62 50.7 497.62 49.67L497.62 33.98 494.3 33.98 494.3 29.9 497.62 29.9 497.62 21.64 502.9 21.64 502.9 29.9 508.37 29.9 508.37 33.98 502.9 33.98 502.9 47.99C502.96 48.89 503.24 49.54 503.74 49.94 504.23 50.34 504.85 50.54 505.58 50.54 506.32 50.54 507.02 50.41 507.7 50.15 508.37 49.9 508.86 49.69 509.18 49.53L510.29 53.7ZM520.61 55.48C519.39 55.48 518.26 55.28 517.22 54.88 516.18 54.48 515.29 53.93 514.54 53.22 513.78 52.52 513.19 51.69 512.76 50.73 512.33 49.77 512.11 48.73 512.11 47.61 512.11 46.42 512.37 45.35 512.88 44.39 513.39 43.43 514.12 42.6 515.06 41.9 516.01 41.19 517.13 40.65 518.42 40.26 519.72 39.88 521.15 39.69 522.72 39.69 523.9 39.69 525.07 39.79 526.22 40 527.38 40.21 528.42 40.49 529.34 40.84L529.34 39.11C529.34 37.26 528.82 35.81 527.76 34.77 526.7 33.73 525.18 33.21 523.2 33.21 521.86 33.21 520.54 33.46 519.24 33.95 517.94 34.45 516.61 35.16 515.23 36.09L513.6 32.73C516.83 30.55 520.19 29.46 523.68 29.46 527.14 29.46 529.82 30.34 531.74 32.1 533.66 33.86 534.62 36.39 534.62 39.69L534.62 48.76C534.62 49.88 535.09 50.46 536.02 50.49L536.02 55C535.5 55.1 535.06 55.16 534.7 55.19 534.33 55.22 533.97 55.24 533.62 55.24 532.59 55.24 531.8 54.98 531.24 54.47 530.68 53.96 530.34 53.3 530.21 52.5L530.06 50.92C528.94 52.39 527.56 53.52 525.91 54.3 524.26 55.09 522.5 55.48 520.61 55.48ZM522.05 51.59C523.33 51.59 524.54 51.36 525.67 50.9 526.81 50.43 527.7 49.78 528.34 48.95 529.01 48.38 529.34 47.77 529.34 47.13L529.34 43.82C528.45 43.46 527.5 43.19 526.49 43 525.48 42.81 524.5 42.71 523.54 42.71 521.65 42.71 520.1 43.12 518.9 43.94 517.7 44.75 517.1 45.83 517.1 47.18 517.1 48.42 517.57 49.47 518.5 50.32 519.42 51.17 520.61 51.59 522.05 51.59ZM554.78 53.7C554.11 54.02 553.18 54.38 552 54.78 550.82 55.18 549.55 55.38 548.21 55.38 547.38 55.38 546.59 55.27 545.86 55.05 545.12 54.82 544.47 54.49 543.91 54.04 543.35 53.59 542.91 53.01 542.59 52.29 542.27 51.57 542.11 50.7 542.11 49.67L542.11 33.98 538.8 33.98 538.8 29.9 542.11 29.9 542.11 21.64 547.39 21.64 547.39 29.9 552.86 29.9 552.86 33.98 547.39 33.98 547.39 47.99C547.46 48.89 547.74 49.54 548.23 49.94 548.73 50.34 549.34 50.54 550.08 50.54 550.82 50.54 551.52 50.41 552.19 50.15 552.86 49.9 553.36 49.69 553.68 49.53L554.78 53.7ZM572.4 53.7C571.73 54.02 570.8 54.38 569.62 54.78 568.43 55.18 567.17 55.38 565.82 55.38 564.99 55.38 564.21 55.27 563.47 55.05 562.74 54.82 562.09 54.49 561.53 54.04 560.97 53.59 560.53 53.01 560.21 52.29 559.89 51.57 559.73 50.7 559.73 49.67L559.73 33.98 556.42 33.98 556.42 29.9 559.73 29.9 559.73 21.64 565.01 21.64 565.01 29.9 570.48 29.9 570.48 33.98 565.01 33.98 565.01 47.99C565.07 48.89 565.35 49.54 565.85 49.94 566.34 50.34 566.96 50.54 567.7 50.54 568.43 50.54 569.14 50.41 569.81 50.15 570.48 49.9 570.98 49.69 571.3 49.53L572.4 53.7ZM599.28 55.48C597.33 55.48 595.55 55.14 593.95 54.45 592.35 53.76 590.98 52.82 589.85 51.64 588.71 50.46 587.83 49.08 587.21 47.51 586.58 45.94 586.27 44.28 586.27 42.52 586.27 40.76 586.58 39.09 587.21 37.5 587.83 35.92 588.71 34.53 589.85 33.33 590.98 32.13 592.35 31.18 593.95 30.5 595.55 29.81 597.34 29.46 599.33 29.46 601.28 29.46 603.05 29.82 604.63 30.52 606.22 31.22 607.57 32.16 608.69 33.33 609.81 34.5 610.66 35.86 611.26 37.41 611.85 38.96 612.14 40.58 612.14 42.28 612.14 42.66 612.13 43.02 612.1 43.36 612.06 43.7 612.03 43.98 612 44.2L591.89 44.2C591.98 45.32 592.25 46.33 592.68 47.22 593.11 48.12 593.67 48.9 594.36 49.55 595.05 50.21 595.83 50.71 596.71 51.06 597.59 51.42 598.51 51.59 599.47 51.59 600.18 51.59 600.87 51.5 601.56 51.33 602.25 51.15 602.88 50.9 603.46 50.56 604.03 50.22 604.54 49.82 604.99 49.34 605.44 48.86 605.79 48.33 606.05 47.75L610.56 49.05C609.7 50.94 608.26 52.48 606.26 53.68 604.26 54.88 601.94 55.48 599.28 55.48ZM606.91 40.55C606.82 39.5 606.55 38.52 606.12 37.62 605.69 36.73 605.14 35.97 604.46 35.34 603.79 34.72 603.01 34.23 602.11 33.88 601.22 33.53 600.27 33.35 599.28 33.35 598.29 33.35 597.35 33.53 596.47 33.88 595.59 34.23 594.82 34.72 594.14 35.34 593.47 35.97 592.93 36.73 592.51 37.62 592.1 38.52 591.84 39.5 591.74 40.55L606.91 40.55ZM616.22 55L616.22 48.86 620.59 48.86 620.59 55 616.22 55ZM639.74 20.92L650.02 48.23 660.24 20.92 665.95 20.92 652.32 55 647.71 55 634.03 20.92 639.74 20.92ZM665.52 55L665.52 48.86 669.89 48.86 669.89 55 665.52 55Z"/><path d="M133.85 86.89C132.41 88.38 130.75 89.12 128.88 89.12 127.74 89.12 126.69 88.88 125.71 88.41 124.74 87.94 123.89 87.3 123.17 86.5 122.45 85.7 121.88 84.78 121.48 83.72 121.07 82.66 120.86 81.56 120.86 80.41 120.86 79.26 121.07 78.16 121.48 77.12 121.88 76.08 122.45 75.17 123.17 74.38 123.89 73.6 124.74 72.98 125.74 72.52 126.73 72.07 127.81 71.84 128.98 71.84 130.61 71.84 131.98 72.18 133.08 72.86 134.18 73.54 135.02 74.44 135.58 75.56L133.51 77.05C133.05 76.12 132.41 75.42 131.59 74.96 130.78 74.5 129.88 74.26 128.9 74.26 128.1 74.26 127.38 74.44 126.72 74.78 126.06 75.12 125.5 75.58 125.04 76.15 124.58 76.72 124.22 77.38 123.97 78.13 123.72 78.88 123.6 79.66 123.6 80.48 123.6 81.34 123.74 82.15 124.02 82.9 124.3 83.66 124.68 84.31 125.17 84.87 125.66 85.43 126.24 85.88 126.91 86.2 127.58 86.53 128.31 86.7 129.1 86.7 129.96 86.7 130.79 86.5 131.58 86.1 132.37 85.7 133.13 85.06 133.85 84.2L133.85 82.38 130.27 82.38 130.27 80.38 136.1 80.38 136.1 89 133.85 89 133.85 86.89ZM144.53 89.24C143.55 89.24 142.66 89.07 141.86 88.72 141.06 88.38 140.38 87.91 139.81 87.32 139.24 86.73 138.8 86.04 138.49 85.26 138.18 84.47 138.02 83.64 138.02 82.76 138.02 81.88 138.18 81.04 138.49 80.25 138.8 79.46 139.24 78.76 139.81 78.16 140.38 77.56 141.06 77.09 141.86 76.75 142.66 76.4 143.56 76.23 144.55 76.23 145.53 76.23 146.41 76.41 147.2 76.76 148 77.11 148.67 77.58 149.23 78.16 149.79 78.75 150.22 79.43 150.52 80.2 150.81 80.98 150.96 81.79 150.96 82.64 150.96 82.83 150.95 83.01 150.94 83.18 150.92 83.35 150.9 83.49 150.89 83.6L140.83 83.6C140.88 84.16 141.01 84.66 141.23 85.11 141.44 85.56 141.72 85.95 142.07 86.28 142.41 86.6 142.8 86.86 143.24 87.03 143.68 87.21 144.14 87.3 144.62 87.3 144.98 87.3 145.32 87.25 145.67 87.16 146.01 87.08 146.33 86.95 146.62 86.78 146.9 86.61 147.16 86.41 147.38 86.17 147.61 85.93 147.78 85.66 147.91 85.38L150.17 86.02C149.74 86.97 149.02 87.74 148.02 88.34 147.02 88.94 145.86 89.24 144.53 89.24ZM148.34 81.78C148.3 81.25 148.16 80.76 147.95 80.31 147.73 79.86 147.46 79.48 147.12 79.17 146.78 78.86 146.39 78.62 145.94 78.44 145.5 78.26 145.02 78.18 144.53 78.18 144.03 78.18 143.56 78.26 143.12 78.44 142.68 78.62 142.3 78.86 141.96 79.17 141.62 79.48 141.35 79.86 141.14 80.31 140.94 80.76 140.81 81.25 140.76 81.78L148.34 81.78ZM172.32 89L169.68 89 169.68 81.97C169.68 80.8 169.49 79.94 169.1 79.4 168.72 78.86 168.16 78.58 167.42 78.58 166.67 78.58 165.99 78.86 165.37 79.41 164.76 79.96 164.31 80.68 164.04 81.56L164.04 89 161.4 89 161.4 81.97C161.4 80.78 161.21 79.92 160.82 79.39 160.44 78.85 159.89 78.58 159.17 78.58 158.42 78.58 157.73 78.86 157.1 79.4 156.48 79.94 156.03 80.66 155.76 81.54L155.76 89 153.12 89 153.12 76.45 155.52 76.45 155.52 78.97C156.02 78.09 156.67 77.41 157.48 76.94 158.28 76.47 159.21 76.23 160.25 76.23 161.29 76.23 162.11 76.5 162.71 77.05 163.31 77.59 163.68 78.27 163.82 79.09 164.35 78.16 165.02 77.45 165.82 76.96 166.62 76.48 167.53 76.23 168.55 76.23 169.29 76.23 169.9 76.37 170.39 76.65 170.88 76.93 171.26 77.3 171.55 77.77 171.84 78.23 172.04 78.77 172.15 79.39 172.26 80 172.32 80.66 172.32 81.34L172.32 89ZM181.06 89.24C180.08 89.24 179.19 89.07 178.39 88.72 177.59 88.38 176.91 87.91 176.34 87.32 175.77 86.73 175.33 86.04 175.02 85.26 174.71 84.47 174.55 83.64 174.55 82.76 174.55 81.88 174.71 81.04 175.02 80.25 175.33 79.46 175.77 78.76 176.34 78.16 176.91 77.56 177.59 77.09 178.39 76.75 179.19 76.4 180.09 76.23 181.08 76.23 182.06 76.23 182.94 76.41 183.73 76.76 184.52 77.11 185.2 77.58 185.76 78.16 186.32 78.75 186.75 79.43 187.04 80.2 187.34 80.98 187.49 81.79 187.49 82.64 187.49 82.83 187.48 83.01 187.46 83.18 187.45 83.35 187.43 83.49 187.42 83.6L177.36 83.6C177.41 84.16 177.54 84.66 177.76 85.11 177.97 85.56 178.25 85.95 178.6 86.28 178.94 86.6 179.33 86.86 179.77 87.03 180.21 87.21 180.67 87.3 181.15 87.3 181.5 87.3 181.85 87.25 182.2 87.16 182.54 87.08 182.86 86.95 183.14 86.78 183.43 86.61 183.69 86.41 183.91 86.17 184.14 85.93 184.31 85.66 184.44 85.38L186.7 86.02C186.26 86.97 185.55 87.74 184.55 88.34 183.55 88.94 182.38 89.24 181.06 89.24ZM184.87 81.78C184.82 81.25 184.69 80.76 184.48 80.31 184.26 79.86 183.98 79.48 183.65 79.17 183.31 78.86 182.92 78.62 182.47 78.44 182.02 78.26 181.55 78.18 181.06 78.18 180.56 78.18 180.09 78.26 179.65 78.44 179.21 78.62 178.82 78.86 178.49 79.17 178.15 79.48 177.88 79.86 177.67 80.31 177.46 80.76 177.34 81.25 177.29 81.78L184.87 81.78ZM189.65 89L189.65 76.45 192.29 76.45 192.29 89 189.65 89ZM189.65 74.38L189.65 71.48 192.29 71.48 192.29 74.38 189.65 74.38ZM206.71 89L204.07 89 204.07 81.97C204.07 80.78 203.88 79.92 203.51 79.39 203.13 78.85 202.58 78.58 201.84 78.58 201.46 78.58 201.07 78.66 200.69 78.8 200.3 78.94 199.94 79.15 199.61 79.41 199.27 79.68 198.97 79.99 198.71 80.35 198.44 80.71 198.24 81.1 198.1 81.54L198.1 89 195.46 89 195.46 76.45 197.86 76.45 197.86 78.97C198.34 78.12 199.03 77.45 199.94 76.96 200.86 76.48 201.86 76.23 202.97 76.23 203.72 76.23 204.34 76.37 204.82 76.64 205.3 76.91 205.68 77.28 205.96 77.76 206.24 78.23 206.43 78.77 206.54 79.39 206.66 80 206.71 80.66 206.71 81.34L206.71 89ZM214.34 89.24C213.34 89.24 212.33 89.08 211.33 88.75 210.33 88.42 209.47 87.95 208.75 87.34L209.81 85.66C210.56 86.21 211.3 86.62 212.04 86.9 212.78 87.18 213.53 87.32 214.3 87.32 215.08 87.32 215.7 87.17 216.16 86.86 216.61 86.56 216.84 86.13 216.84 85.57 216.84 85.04 216.58 84.66 216.07 84.42 215.56 84.18 214.76 83.91 213.67 83.62 212.89 83.42 212.22 83.22 211.66 83.02 211.1 82.83 210.64 82.61 210.29 82.35 209.94 82.1 209.68 81.8 209.52 81.46 209.36 81.13 209.28 80.72 209.28 80.24 209.28 79.6 209.4 79.03 209.65 78.54 209.9 78.04 210.24 77.62 210.68 77.28 211.12 76.93 211.64 76.67 212.23 76.5 212.82 76.32 213.46 76.23 214.15 76.23 215.1 76.23 215.98 76.38 216.79 76.66 217.61 76.95 218.34 77.37 218.98 77.91L217.85 79.5C216.68 78.57 215.44 78.1 214.13 78.1 213.46 78.1 212.89 78.24 212.44 78.52 211.98 78.8 211.75 79.25 211.75 79.86 211.75 80.11 211.8 80.33 211.9 80.5 211.99 80.68 212.15 80.83 212.36 80.96 212.58 81.09 212.86 81.2 213.2 81.31 213.55 81.41 213.98 81.53 214.49 81.66 215.34 81.86 216.07 82.07 216.68 82.28 217.3 82.49 217.81 82.73 218.21 83.01 218.61 83.29 218.9 83.62 219.1 84 219.29 84.37 219.38 84.82 219.38 85.35 219.38 86.55 218.93 87.5 218.03 88.2 217.12 88.89 215.9 89.24 214.34 89.24ZM225.02 89.24C224.42 89.24 223.85 89.14 223.33 88.94 222.81 88.74 222.36 88.46 221.99 88.11 221.61 87.76 221.32 87.34 221.1 86.86 220.88 86.38 220.78 85.86 220.78 85.3 220.78 84.71 220.9 84.18 221.16 83.7 221.42 83.22 221.78 82.8 222.25 82.45 222.72 82.1 223.28 81.82 223.93 81.63 224.58 81.44 225.3 81.34 226.08 81.34 226.67 81.34 227.26 81.4 227.83 81.5 228.41 81.6 228.93 81.74 229.39 81.92L229.39 81.06C229.39 80.13 229.13 79.4 228.6 78.88 228.07 78.36 227.31 78.1 226.32 78.1 225.65 78.1 224.99 78.23 224.34 78.48 223.69 78.72 223.02 79.08 222.34 79.54L221.52 77.86C223.14 76.78 224.82 76.23 226.56 76.23 228.29 76.23 229.63 76.67 230.59 77.55 231.55 78.43 232.03 79.7 232.03 81.34L232.03 85.88C232.03 86.44 232.26 86.73 232.73 86.74L232.73 89C232.47 89.05 232.25 89.08 232.07 89.1 231.88 89.11 231.7 89.12 231.53 89.12 231.02 89.12 230.62 88.99 230.34 88.74 230.06 88.48 229.89 88.15 229.82 87.75L229.75 86.96C229.19 87.7 228.5 88.26 227.68 88.65 226.85 89.04 225.97 89.24 225.02 89.24ZM225.74 87.3C226.38 87.3 226.99 87.18 227.56 86.95 228.12 86.72 228.57 86.39 228.89 85.98 229.22 85.69 229.39 85.38 229.39 85.06L229.39 83.41C228.94 83.23 228.47 83.1 227.96 83 227.46 82.9 226.97 82.86 226.49 82.86 225.54 82.86 224.77 83.06 224.17 83.47 223.57 83.88 223.27 84.42 223.27 85.09 223.27 85.71 223.5 86.24 223.97 86.66 224.43 87.08 225.02 87.3 225.74 87.3ZM254.42 89L251.78 89 251.78 81.97C251.78 80.8 251.59 79.94 251.21 79.4 250.82 78.86 250.26 78.58 249.53 78.58 248.78 78.58 248.09 78.86 247.48 79.41 246.86 79.96 246.42 80.68 246.14 81.56L246.14 89 243.5 89 243.5 81.97C243.5 80.78 243.31 79.92 242.93 79.39 242.54 78.85 241.99 78.58 241.27 78.58 240.52 78.58 239.83 78.86 239.21 79.4 238.58 79.94 238.14 80.66 237.86 81.54L237.86 89 235.22 89 235.22 76.45 237.62 76.45 237.62 78.97C238.12 78.09 238.77 77.41 239.58 76.94 240.39 76.47 241.31 76.23 242.35 76.23 243.39 76.23 244.21 76.5 244.81 77.05 245.41 77.59 245.78 78.27 245.93 79.09 246.46 78.16 247.12 77.45 247.92 76.96 248.72 76.48 249.63 76.23 250.66 76.23 251.39 76.23 252 76.37 252.49 76.65 252.98 76.93 253.37 77.3 253.66 77.77 253.94 78.23 254.14 78.77 254.26 79.39 254.37 80 254.42 80.66 254.42 81.34L254.42 89ZM272.14 89L268.13 83.22 266.04 85.18 266.04 89 263.4 89 263.4 71.48 266.04 71.48 266.04 82.59 271.8 76.47 274.68 76.47 269.81 81.73 274.94 89 272.14 89ZM283.61 78.73C282.58 78.76 281.68 79 280.88 79.44 280.09 79.88 279.53 80.5 279.19 81.32L279.19 89 276.55 89 276.55 76.45 279 76.45 279 79.26C279.43 78.39 280 77.7 280.69 77.18 281.39 76.66 282.14 76.38 282.94 76.33L283.33 76.33C283.44 76.33 283.53 76.34 283.61 76.35L283.61 78.73ZM290.59 89.24C289.62 89.24 288.73 89.07 287.93 88.72 287.13 88.38 286.44 87.91 285.88 87.32 285.31 86.73 284.87 86.04 284.56 85.26 284.24 84.47 284.09 83.64 284.09 82.76 284.09 81.88 284.24 81.04 284.56 80.25 284.87 79.46 285.31 78.76 285.88 78.16 286.44 77.56 287.13 77.09 287.93 76.75 288.73 76.4 289.62 76.23 290.62 76.23 291.59 76.23 292.48 76.41 293.27 76.76 294.06 77.11 294.74 77.58 295.3 78.16 295.86 78.75 296.28 79.43 296.58 80.2 296.88 80.98 297.02 81.79 297.02 82.64 297.02 82.83 297.02 83.01 297 83.18 296.98 83.35 296.97 83.49 296.95 83.6L286.9 83.6C286.94 84.16 287.08 84.66 287.29 85.11 287.51 85.56 287.79 85.95 288.13 86.28 288.48 86.6 288.87 86.86 289.31 87.03 289.75 87.21 290.21 87.3 290.69 87.3 291.04 87.3 291.39 87.25 291.73 87.16 292.08 87.08 292.39 86.95 292.68 86.78 292.97 86.61 293.22 86.41 293.45 86.17 293.67 85.93 293.85 85.66 293.98 85.38L296.23 86.02C295.8 86.97 295.08 87.74 294.08 88.34 293.08 88.94 291.92 89.24 290.59 89.24ZM294.41 81.78C294.36 81.25 294.23 80.76 294.01 80.31 293.8 79.86 293.52 79.48 293.18 79.17 292.85 78.86 292.46 78.62 292.01 78.44 291.56 78.26 291.09 78.18 290.59 78.18 290.1 78.18 289.63 78.26 289.19 78.44 288.75 78.62 288.36 78.86 288.02 79.17 287.69 79.48 287.42 79.86 287.21 80.31 287 80.76 286.87 81.25 286.82 81.78L294.41 81.78ZM302.52 89.24C301.91 89.24 301.35 89.14 300.83 88.94 300.31 88.74 299.86 88.46 299.48 88.11 299.11 87.76 298.81 87.34 298.6 86.86 298.38 86.38 298.27 85.86 298.27 85.3 298.27 84.71 298.4 84.18 298.66 83.7 298.91 83.22 299.28 82.8 299.75 82.45 300.22 82.1 300.78 81.82 301.43 81.63 302.08 81.44 302.79 81.34 303.58 81.34 304.17 81.34 304.75 81.4 305.33 81.5 305.9 81.6 306.42 81.74 306.89 81.92L306.89 81.06C306.89 80.13 306.62 79.4 306.1 78.88 305.57 78.36 304.81 78.1 303.82 78.1 303.14 78.1 302.48 78.23 301.84 78.48 301.19 78.72 300.52 79.08 299.83 79.54L299.02 77.86C300.63 76.78 302.31 76.23 304.06 76.23 305.78 76.23 307.13 76.67 308.09 77.55 309.05 78.43 309.53 79.7 309.53 81.34L309.53 85.88C309.53 86.44 309.76 86.73 310.22 86.74L310.22 89C309.97 89.05 309.75 89.08 309.56 89.1 309.38 89.11 309.2 89.12 309.02 89.12 308.51 89.12 308.12 88.99 307.84 88.74 307.56 88.48 307.38 88.15 307.32 87.75L307.25 86.96C306.69 87.7 306 88.26 305.17 88.65 304.35 89.04 303.46 89.24 302.52 89.24ZM303.24 87.3C303.88 87.3 304.48 87.18 305.05 86.95 305.62 86.72 306.06 86.39 306.38 85.98 306.72 85.69 306.89 85.38 306.89 85.06L306.89 83.41C306.44 83.23 305.96 83.1 305.46 83 304.96 82.9 304.46 82.86 303.98 82.86 303.04 82.86 302.27 83.06 301.67 83.47 301.07 83.88 300.77 84.42 300.77 85.09 300.77 85.71 301 86.24 301.46 86.66 301.93 87.08 302.52 87.3 303.24 87.3ZM319.61 88.35C319.27 88.51 318.81 88.69 318.22 88.89 317.62 89.09 316.99 89.19 316.32 89.19 315.9 89.19 315.51 89.14 315.14 89.02 314.78 88.91 314.45 88.74 314.17 88.52 313.89 88.3 313.67 88 313.51 87.64 313.35 87.28 313.27 86.85 313.27 86.34L313.27 78.49 311.62 78.49 311.62 76.45 313.27 76.45 313.27 72.32 315.91 72.32 315.91 76.45 318.65 76.45 318.65 78.49 315.91 78.49 315.91 85.5C315.94 85.94 316.08 86.27 316.33 86.47 316.58 86.67 316.89 86.77 317.26 86.77 317.62 86.77 317.98 86.7 318.31 86.58 318.65 86.45 318.9 86.34 319.06 86.26L319.61 88.35ZM321.43 89L321.43 76.45 324.07 76.45 324.07 89 321.43 89ZM321.43 74.38L321.43 71.48 324.07 71.48 324.07 74.38 321.43 74.38ZM330.77 89L325.97 76.45 328.68 76.45 332.28 86.77 335.9 76.45 338.4 76.45 333.6 89 330.77 89ZM345.55 89L345.55 76.45 348.19 76.45 348.19 89 345.55 89ZM345.55 74.38L345.55 71.48 348.19 71.48 348.19 74.38 345.55 74.38ZM362.62 89L359.98 89 359.98 81.97C359.98 80.78 359.79 79.92 359.41 79.39 359.04 78.85 358.48 78.58 357.74 78.58 357.36 78.58 356.98 78.66 356.59 78.8 356.21 78.94 355.85 79.15 355.51 79.41 355.18 79.68 354.88 79.99 354.61 80.35 354.35 80.71 354.14 81.1 354 81.54L354 89 351.36 89 351.36 76.45 353.76 76.45 353.76 78.97C354.24 78.12 354.94 77.45 355.85 76.96 356.76 76.48 357.77 76.23 358.87 76.23 359.62 76.23 360.24 76.37 360.72 76.64 361.2 76.91 361.58 77.28 361.86 77.76 362.14 78.23 362.34 78.77 362.45 79.39 362.56 80 362.62 80.66 362.62 81.34L362.62 89ZM385.34 84.61C385.34 85.3 385.2 85.91 384.92 86.46 384.64 87 384.27 87.46 383.8 87.84 383.32 88.21 382.77 88.5 382.13 88.7 381.49 88.9 380.81 89 380.09 89L371.95 89 371.95 71.96 380.74 71.96C381.33 71.96 381.86 72.09 382.34 72.34 382.82 72.6 383.23 72.93 383.57 73.34 383.9 73.75 384.16 74.21 384.35 74.73 384.53 75.25 384.62 75.78 384.62 76.3 384.62 77.14 384.41 77.92 383.99 78.64 383.56 79.37 382.96 79.91 382.18 80.26 383.15 80.55 383.92 81.08 384.49 81.84 385.06 82.6 385.34 83.52 385.34 84.61ZM382.58 84.1C382.58 83.75 382.52 83.42 382.4 83.1 382.28 82.78 382.12 82.5 381.92 82.26 381.72 82.02 381.48 81.82 381.19 81.68 380.9 81.54 380.59 81.46 380.26 81.46L374.64 81.46 374.64 86.67 380.09 86.67C380.44 86.67 380.77 86.6 381.07 86.47 381.38 86.33 381.64 86.15 381.86 85.92 382.09 85.68 382.26 85.41 382.39 85.1 382.52 84.79 382.58 84.46 382.58 84.1ZM374.64 74.29L374.64 79.3 379.58 79.3C379.92 79.3 380.23 79.24 380.51 79.11 380.79 78.98 381.04 78.81 381.25 78.6 381.47 78.38 381.64 78.12 381.76 77.82 381.88 77.51 381.94 77.18 381.94 76.81 381.94 76.07 381.73 75.47 381.31 75 380.9 74.52 380.37 74.29 379.73 74.29L374.64 74.29ZM391.15 89.24C390.54 89.24 389.98 89.14 389.46 88.94 388.94 88.74 388.49 88.46 388.12 88.11 387.74 87.76 387.44 87.34 387.23 86.86 387.01 86.38 386.9 85.86 386.9 85.3 386.9 84.71 387.03 84.18 387.29 83.7 387.54 83.22 387.91 82.8 388.38 82.45 388.85 82.1 389.41 81.82 390.06 81.63 390.71 81.44 391.42 81.34 392.21 81.34 392.8 81.34 393.38 81.4 393.96 81.5 394.54 81.6 395.06 81.74 395.52 81.92L395.52 81.06C395.52 80.13 395.26 79.4 394.73 78.88 394.2 78.36 393.44 78.1 392.45 78.1 391.78 78.1 391.12 78.23 390.47 78.48 389.82 78.72 389.15 79.08 388.46 79.54L387.65 77.86C389.26 76.78 390.94 76.23 392.69 76.23 394.42 76.23 395.76 76.67 396.72 77.55 397.68 78.43 398.16 79.7 398.16 81.34L398.16 85.88C398.16 86.44 398.39 86.73 398.86 86.74L398.86 89C398.6 89.05 398.38 89.08 398.2 89.1 398.01 89.11 397.83 89.12 397.66 89.12 397.14 89.12 396.75 88.99 396.47 88.74 396.19 88.48 396.02 88.15 395.95 87.75L395.88 86.96C395.32 87.7 394.63 88.26 393.8 88.65 392.98 89.04 392.1 89.24 391.15 89.24ZM391.87 87.3C392.51 87.3 393.12 87.18 393.68 86.95 394.25 86.72 394.7 86.39 395.02 85.98 395.35 85.69 395.52 85.38 395.52 85.06L395.52 83.41C395.07 83.23 394.6 83.1 394.09 83 393.59 82.9 393.1 82.86 392.62 82.86 391.67 82.86 390.9 83.06 390.3 83.47 389.7 83.88 389.4 84.42 389.4 85.09 389.4 85.71 389.63 86.24 390.1 86.66 390.56 87.08 391.15 87.3 391.87 87.3ZM408.41 78.73C407.38 78.76 406.48 79 405.68 79.44 404.89 79.88 404.33 80.5 403.99 81.32L403.99 89 401.35 89 401.35 76.45 403.8 76.45 403.8 79.26C404.23 78.39 404.8 77.7 405.49 77.18 406.19 76.66 406.94 76.38 407.74 76.33L408.13 76.33C408.24 76.33 408.33 76.34 408.41 76.35L408.41 78.73ZM429.53 89L426.89 89 426.89 81.97C426.89 80.8 426.7 79.94 426.31 79.4 425.93 78.86 425.37 78.58 424.63 78.58 423.88 78.58 423.2 78.86 422.58 79.41 421.96 79.96 421.52 80.68 421.25 81.56L421.25 89 418.61 89 418.61 81.97C418.61 80.78 418.42 79.92 418.03 79.39 417.65 78.85 417.1 78.58 416.38 78.58 415.62 78.58 414.94 78.86 414.31 79.4 413.69 79.94 413.24 80.66 412.97 81.54L412.97 89 410.33 89 410.33 76.45 412.73 76.45 412.73 78.97C413.22 78.09 413.88 77.41 414.68 76.94 415.49 76.47 416.42 76.23 417.46 76.23 418.5 76.23 419.32 76.5 419.92 77.05 420.52 77.59 420.89 78.27 421.03 79.09 421.56 78.16 422.22 77.45 423.02 76.96 423.82 76.48 424.74 76.23 425.76 76.23 426.5 76.23 427.11 76.37 427.6 76.65 428.08 76.93 428.47 77.3 428.76 77.77 429.05 78.23 429.25 78.77 429.36 79.39 429.47 80 429.53 80.66 429.53 81.34L429.53 89ZM439.34 89.24C438.38 89.24 437.52 89.01 436.74 88.56 435.96 88.1 435.35 87.49 434.9 86.72L434.9 89 432.58 89 432.58 71.48 435.22 71.48 435.22 78.82C435.71 78.02 436.33 77.39 437.08 76.93 437.82 76.46 438.7 76.23 439.7 76.23 440.54 76.23 441.3 76.41 441.98 76.77 442.67 77.13 443.26 77.61 443.75 78.21 444.24 78.81 444.61 79.51 444.88 80.3 445.14 81.09 445.27 81.92 445.27 82.78 445.27 83.68 445.12 84.52 444.82 85.3 444.51 86.09 444.1 86.77 443.57 87.36 443.04 87.94 442.41 88.4 441.68 88.74 440.96 89.07 440.18 89.24 439.34 89.24ZM438.65 86.98C439.22 86.98 439.75 86.87 440.23 86.64 440.71 86.4 441.12 86.1 441.47 85.71 441.81 85.33 442.08 84.88 442.27 84.38 442.46 83.88 442.56 83.34 442.56 82.78 442.56 82.22 442.47 81.68 442.28 81.16 442.1 80.64 441.84 80.19 441.52 79.8 441.19 79.4 440.8 79.09 440.34 78.85 439.88 78.61 439.38 78.49 438.84 78.49 438.02 78.49 437.3 78.75 436.67 79.28 436.04 79.81 435.55 80.45 435.22 81.2L435.22 84.51C435.31 84.88 435.48 85.21 435.72 85.51 435.96 85.8 436.24 86.06 436.56 86.29 436.88 86.51 437.22 86.68 437.59 86.8 437.96 86.92 438.31 86.98 438.65 86.98ZM453.34 89.24C452.36 89.24 451.47 89.07 450.67 88.72 449.87 88.38 449.19 87.91 448.62 87.32 448.05 86.73 447.61 86.04 447.3 85.26 446.99 84.47 446.83 83.64 446.83 82.76 446.83 81.88 446.99 81.04 447.3 80.25 447.61 79.46 448.05 78.76 448.62 78.16 449.19 77.56 449.87 77.09 450.67 76.75 451.47 76.4 452.37 76.23 453.36 76.23 454.34 76.23 455.22 76.41 456.01 76.76 456.8 77.11 457.48 77.58 458.04 78.16 458.6 78.75 459.03 79.43 459.32 80.2 459.62 80.98 459.77 81.79 459.77 82.64 459.77 82.83 459.76 83.01 459.74 83.18 459.73 83.35 459.71 83.49 459.7 83.6L449.64 83.6C449.69 84.16 449.82 84.66 450.04 85.11 450.25 85.56 450.53 85.95 450.88 86.28 451.22 86.6 451.61 86.86 452.05 87.03 452.49 87.21 452.95 87.3 453.43 87.3 453.78 87.3 454.13 87.25 454.48 87.16 454.82 87.08 455.14 86.95 455.42 86.78 455.71 86.61 455.97 86.41 456.19 86.17 456.42 85.93 456.59 85.66 456.72 85.38L458.98 86.02C458.54 86.97 457.83 87.74 456.83 88.34 455.83 88.94 454.66 89.24 453.34 89.24ZM457.15 81.78C457.1 81.25 456.97 80.76 456.76 80.31 456.54 79.86 456.26 79.48 455.93 79.17 455.59 78.86 455.2 78.62 454.75 78.44 454.3 78.26 453.83 78.18 453.34 78.18 452.84 78.18 452.37 78.26 451.93 78.44 451.49 78.62 451.1 78.86 450.77 79.17 450.43 79.48 450.16 79.86 449.95 80.31 449.74 80.76 449.62 81.25 449.57 81.78L457.15 81.78ZM470.66 89L466.66 83.22 464.57 85.18 464.57 89 461.93 89 461.93 71.48 464.57 71.48 464.57 82.59 470.33 76.47 473.21 76.47 468.34 81.73 473.47 89 470.66 89Z"/><path d="M52 104C23.33 104 0 80.68 0 52 0 23.32 23.33 0 52 0 80.67 0 104 23.32 104 52 104 80.68 80.67 104 52 104ZM52 2.83C24.89 2.83 2.83 24.89 2.83 52 2.83 79.11 24.89 101.17 52 101.17 79.11 101.17 101.17 79.11 101.17 52 101.17 24.89 79.11 2.83 52 2.83Z"/><path d="M52 97.88C26.7 97.88 6.12 77.3 6.12 52 6.12 26.7 26.7 6.12 52 6.12 77.3 6.12 97.88 26.7 97.88 52 97.88 77.3 77.3 97.88 52 97.88ZM52 8.96C28.26 8.96 8.96 28.26 8.96 52 8.96 75.74 28.26 95.04 52 95.04 75.74 95.04 95.04 75.74 95.04 52 95.04 28.26 75.74 8.96 52 8.96Z"/><path d="M85.83 42.95C85.12 42.62 84.26 42.95 83.95 43.66L73.64 66.69 64.53 49.2C65.73 46.89 68.75 40.83 68.75 38.45 68.75 35.23 66.14 32.63 62.94 32.63 59.74 32.63 57.13 35.25 57.13 38.45 57.13 40.81 60.15 46.89 61.33 49.2L52.09 66.89 42.54 48.54C42.51 48.5 42.48 48.47 42.45 48.43 42.4 48.34 42.34 48.27 42.27 48.2 42.2 48.13 42.13 48.07 42.04 48.01 42 47.99 41.97 47.94 41.93 47.93 41.88 47.91 41.84 47.91 41.81 47.9 41.73 47.86 41.63 47.84 41.53 47.82 41.44 47.8 41.36 47.79 41.27 47.79 41.19 47.79 41.09 47.8 41 47.82 40.9 47.83 40.82 47.86 40.73 47.9 40.69 47.91 40.65 47.91 40.62 47.93 40.58 47.96 40.55 48 40.51 48.01 40.42 48.07 40.35 48.13 40.29 48.19 40.22 48.26 40.16 48.33 40.11 48.41 40.08 48.46 40.04 48.48 40.02 48.53L30.45 66.9 20.05 43.66C19.72 42.95 18.88 42.62 18.17 42.95 17.46 43.27 17.13 44.11 17.46 44.83L28.96 70.53C29.2 71.06 29.72 71.37 30.26 71.37 30.28 71.37 30.3 71.36 30.33 71.36 30.37 71.36 30.41 71.37 30.45 71.37 30.97 71.37 31.46 71.09 31.72 70.6L41.27 52.26 50.83 70.6C50.87 70.68 50.91 70.73 50.97 70.79 50.98 70.82 51 70.83 51.01 70.86 51.13 71 51.27 71.12 51.42 71.2 51.42 71.2 51.42 71.2 51.42 71.2 51.44 71.2 51.45 71.22 51.47 71.22 51.67 71.32 51.86 71.37 52.09 71.37 52.32 71.37 52.53 71.32 52.75 71.22 52.76 71.2 52.77 71.19 52.79 71.17 52.92 71.1 53.03 71 53.14 70.89 53.19 70.85 53.22 70.79 53.26 70.73 53.29 70.69 53.33 70.65 53.36 70.59L62.91 52.24 72.46 70.59C72.52 70.69 72.58 70.77 72.65 70.85 72.66 70.86 72.68 70.89 72.69 70.9 72.81 71.03 72.95 71.12 73.09 71.19 73.1 71.2 73.12 71.22 73.15 71.23 73.18 71.24 73.19 71.23 73.22 71.24 73.37 71.3 73.55 71.34 73.72 71.34 73.72 71.34 73.73 71.34 73.73 71.34 73.73 71.34 73.73 71.34 73.74 71.34 73.87 71.34 73.99 71.33 74.11 71.29 74.16 71.27 74.19 71.26 74.23 71.24 74.28 71.22 74.34 71.2 74.4 71.17 74.41 71.16 74.43 71.14 74.44 71.14 74.58 71.06 74.71 70.96 74.82 70.83 74.85 70.8 74.87 70.76 74.88 70.73 74.94 70.66 75 70.58 75.04 70.49L86.54 44.78C86.87 44.11 86.54 43.27 85.83 42.95ZM62.91 35.47C64.55 35.47 65.88 36.81 65.88 38.45 65.88 39.56 64.39 43 62.91 46.05 61.42 43 59.94 39.56 59.94 38.45 59.94 36.81 61.28 35.47 62.91 35.47Z"/></g></g></svg>