<svg xmlns="http://www.w3.org/2000/svg" viewBox="0 0 655.77 103.6"><defs><style>.a{fill:#fff;}</style></defs><title>ww_website_logo</title><path class="a" d="M135.94,21.06H141l4.18,11.57,4.22-11.57h5l-5.8,15.17,5.08,12.53,10.61-27.84h5.91L156.19,55h-4.61l-6.33-15.26L138.86,55h-4.6L120.19,20.92h5.86L136.7,48.76l5.09-12.53Zm46,34.42a13.33,13.33,0,0,1-5.33-1,12.39,12.39,0,0,1-6.74-6.94,13.26,13.26,0,0,1-.94-5,13.49,13.49,0,0,1,.94-5,12.75,12.75,0,0,1,2.64-4.17,12,12,0,0,1,4.1-2.83,13.44,13.44,0,0,1,5.38-1,13,13,0,0,1,5.3,1.06,12.55,12.55,0,0,1,4.06,2.81,12.18,12.18,0,0,1,2.57,4.08,13.56,13.56,0,0,1,.88,4.87c0,.38,0,.74,0,1.08s-.07.62-.1.84H174.53a8.45,8.45,0,0,0,.79,3A7.77,7.77,0,0,0,177,49.55a7.39,7.39,0,0,0,5.11,2,8.67,8.67,0,0,0,2.09-.26,7.42,7.42,0,0,0,1.9-.77,7,7,0,0,0,1.53-1.22,5.74,5.74,0,0,0,1.06-1.59l4.51,1.3a10.43,10.43,0,0,1-4.3,4.63A13.29,13.29,0,0,1,181.92,55.48Zm7.63-14.93a8.42,8.42,0,0,0-.79-2.93,7.53,7.53,0,0,0-1.66-2.28,7.34,7.34,0,0,0-2.35-1.46,7.69,7.69,0,0,0-2.83-.53,7.56,7.56,0,0,0-5.14,2,7.45,7.45,0,0,0-1.63,2.28,9.11,9.11,0,0,0-.77,2.93ZM199.15,20h5.28V47.75a3.14,3.14,0,0,0,.72,2.19,2.61,2.61,0,0,0,2,.79,5,5,0,0,0,1.22-.19,13.6,13.6,0,0,0,1.32-.44l.77,4.13a12.5,12.5,0,0,1-2.74.84,14.6,14.6,0,0,1-2.83.31,5.82,5.82,0,0,1-4.25-1.48,5.71,5.71,0,0,1-1.51-4.23Zm12.77,22.46a13.64,13.64,0,0,1,.91-5,12.37,12.37,0,0,1,2.62-4.13,12.24,12.24,0,0,1,4.1-2.8,13.44,13.44,0,0,1,5.38-1,12.61,12.61,0,0,1,6.69,1.71,10.7,10.7,0,0,1,4.2,4.53l-5.13,1.64A6.58,6.58,0,0,0,224.83,34a7,7,0,0,0-3,.62,7.31,7.31,0,0,0-2.38,1.75A8.25,8.25,0,0,0,217.92,39a9.7,9.7,0,0,0-.58,3.4,9.37,9.37,0,0,0,.6,3.39,8.69,8.69,0,0,0,1.64,2.71,7.29,7.29,0,0,0,2.4,1.8,6.72,6.72,0,0,0,2.9.65,7.06,7.06,0,0,0,1.92-.27,6.68,6.68,0,0,0,1.75-.74,7,7,0,0,0,1.39-1.1,4.22,4.22,0,0,0,.89-1.35L236,49.05a10.32,10.32,0,0,1-4.18,4.63,14.06,14.06,0,0,1-12.24.74,12.37,12.37,0,0,1-4.1-2.85,12.88,12.88,0,0,1-2.64-4.15A13.31,13.31,0,0,1,211.92,42.42Zm39.5,13.06a13,13,0,0,1-5.35-1.06,12.36,12.36,0,0,1-4-2.83,12.52,12.52,0,0,1-2.6-4.15,14,14,0,0,1,0-9.94A12.36,12.36,0,0,1,242,33.35a12.77,12.77,0,0,1,9.38-3.89,13,13,0,0,1,5.31,1.06,12.86,12.86,0,0,1,4.08,2.83,12.33,12.33,0,0,1,2.61,4.15,13.88,13.88,0,0,1,0,9.94,12.23,12.23,0,0,1-2.61,4.15,12.7,12.7,0,0,1-4.08,2.83A12.85,12.85,0,0,1,251.42,55.48Zm-7.48-13a9.56,9.56,0,0,0,.57,3.36,8.33,8.33,0,0,0,1.59,2.66,7.25,7.25,0,0,0,2.37,1.78,7,7,0,0,0,5.91,0,7.18,7.18,0,0,0,2.37-1.8,8.78,8.78,0,0,0,1.59-2.69,10.1,10.1,0,0,0,0-6.69,8.82,8.82,0,0,0-1.59-2.72,7.46,7.46,0,0,0-2.37-1.8,6.88,6.88,0,0,0-3-.64,6.46,6.46,0,0,0-2.9.67,7.67,7.67,0,0,0-2.38,1.82,9,9,0,0,0-1.6,2.71A9.25,9.25,0,0,0,243.94,42.52ZM307.44,55h-5.28V40.94A9,9,0,0,0,301,35.8a3.85,3.85,0,0,0-3.36-1.63,6,6,0,0,0-4.11,1.65,9.34,9.34,0,0,0-2.66,4.3V55H285.6V40.94q0-3.55-1.15-5.16a3.81,3.81,0,0,0-3.31-1.61A6.13,6.13,0,0,0,277,35.8a9,9,0,0,0-2.69,4.27V55H269V29.9h4.8v5a10.62,10.62,0,0,1,3.91-4.06,10.86,10.86,0,0,1,5.55-1.42,7,7,0,0,1,4.92,1.64,7,7,0,0,1,2.23,4.08,11.37,11.37,0,0,1,4-4.25,10.28,10.28,0,0,1,5.47-1.47,7.31,7.31,0,0,1,3.68.84,6.47,6.47,0,0,1,2.32,2.24,8.94,8.94,0,0,1,1.2,3.24,21.24,21.24,0,0,1,.34,3.91Zm17.47.48a13.33,13.33,0,0,1-5.33-1,12.39,12.39,0,0,1-6.74-6.94,13.46,13.46,0,0,1-.94-5,13.69,13.69,0,0,1,.94-5,12.75,12.75,0,0,1,2.64-4.17,12.13,12.13,0,0,1,4.1-2.83,13.48,13.48,0,0,1,5.38-1,13,13,0,0,1,5.3,1.06,12.55,12.55,0,0,1,4.06,2.81,12,12,0,0,1,2.57,4.08,13.56,13.56,0,0,1,.89,4.87c0,.38,0,.74,0,1.08s-.07.62-.1.84H317.52a8.67,8.67,0,0,0,.79,3A7.77,7.77,0,0,0,320,49.55a7.39,7.39,0,0,0,5.11,2,8.67,8.67,0,0,0,2.09-.26,7.42,7.42,0,0,0,1.9-.77,6.74,6.74,0,0,0,1.53-1.22,5.74,5.74,0,0,0,1.06-1.59l4.51,1.3a10.41,10.41,0,0,1-4.29,4.63A13.32,13.32,0,0,1,324.91,55.48Zm7.63-14.93a8.42,8.42,0,0,0-.79-2.93,7.67,7.67,0,0,0-1.65-2.28,7.5,7.5,0,0,0-2.36-1.46,7.69,7.69,0,0,0-2.83-.53,7.55,7.55,0,0,0-2.81.53,7.42,7.42,0,0,0-2.32,1.46,7.31,7.31,0,0,0-1.64,2.28,8.85,8.85,0,0,0-.76,2.93Zm32.55-19.49h5.09l4.17,11.57,4.23-11.57h5l-5.81,15.17,5.09,12.53,10.6-27.84h5.91L385.34,55h-4.6L374.4,39.74,368,55h-4.61L349.34,20.92h5.86l10.66,27.84,5.08-12.53Zm46,34.42a13.33,13.33,0,0,1-5.33-1A12.39,12.39,0,0,1,399,47.51a13.46,13.46,0,0,1-.94-5,13.69,13.69,0,0,1,.94-5,12.75,12.75,0,0,1,2.64-4.17,12.13,12.13,0,0,1,4.1-2.83,13.48,13.48,0,0,1,5.38-1,13,13,0,0,1,5.3,1.06,12.55,12.55,0,0,1,4.06,2.81,12,12,0,0,1,2.57,4.08,13.56,13.56,0,0,1,.89,4.87c0,.38,0,.74-.05,1.08s-.07.62-.1.84H403.68a8.67,8.67,0,0,0,.79,3,7.77,7.77,0,0,0,1.68,2.33,7.39,7.39,0,0,0,5.11,2,8.67,8.67,0,0,0,2.09-.26,7.42,7.42,0,0,0,1.9-.77,6.74,6.74,0,0,0,1.53-1.22,5.74,5.74,0,0,0,1.06-1.59l4.51,1.3a10.41,10.41,0,0,1-4.29,4.63A13.32,13.32,0,0,1,411.07,55.48Zm7.63-14.93a8.42,8.42,0,0,0-.79-2.93,7.67,7.67,0,0,0-1.65-2.28,7.5,7.5,0,0,0-2.36-1.46,7.69,7.69,0,0,0-2.83-.53,7.55,7.55,0,0,0-2.81.53,7.42,7.42,0,0,0-2.32,1.46,7.31,7.31,0,0,0-1.64,2.28,8.85,8.85,0,0,0-.76,2.93Zm23.67-6.09a11.75,11.75,0,0,0-5.45,1.41,7.47,7.47,0,0,0-3.38,3.77V55h-5.28V29.9h4.89v5.61a11.45,11.45,0,0,1,3.39-4.15,8.13,8.13,0,0,1,4.48-1.7h.8a3.09,3.09,0,0,1,.55,0ZM463.68,55l-8-11.57-4.17,3.94V55h-5.28V20h5.28V42.18L463,29.94h5.76L459,40.46,469.3,55Zm17.95.48a19.4,19.4,0,0,1-6-1,15.45,15.45,0,0,1-5.16-2.81l2.11-3.36A19.34,19.34,0,0,0,477,50.8a12.65,12.65,0,0,0,4.52.84,6.65,6.65,0,0,0,3.72-.91,2.93,2.93,0,0,0,1.36-2.59,2.4,2.4,0,0,0-1.53-2.31,30.62,30.62,0,0,0-4.8-1.58c-1.57-.42-2.91-.82-4-1.2a10.28,10.28,0,0,1-2.74-1.35A4.75,4.75,0,0,1,472,39.93a5.66,5.66,0,0,1-.48-2.45,7.47,7.47,0,0,1,.75-3.41,7.27,7.27,0,0,1,2.06-2.52,9.14,9.14,0,0,1,3.1-1.56,13.45,13.45,0,0,1,3.84-.53,15.64,15.64,0,0,1,5.28.87,13.79,13.79,0,0,1,4.37,2.49L488.64,36a11.81,11.81,0,0,0-7.44-2.78,6.35,6.35,0,0,0-3.38.84,2.88,2.88,0,0,0-1.37,2.66,2.6,2.6,0,0,0,.29,1.3,2.46,2.46,0,0,0,.93.91,7.52,7.52,0,0,0,1.68.7c.69.2,1.55.44,2.57.69,1.7.42,3.16.83,4.39,1.25A12.21,12.21,0,0,1,489.36,43a5.52,5.52,0,0,1,1.78,2,6,6,0,0,1,.57,2.71A6.79,6.79,0,0,1,489,53.39,11.8,11.8,0,0,1,481.63,55.48Zm28.66-1.78a26,26,0,0,1-2.79,1.08,11.71,11.71,0,0,1-3.79.6,8.19,8.19,0,0,1-2.35-.33,5.78,5.78,0,0,1-1.94-1,4.59,4.59,0,0,1-1.32-1.75,6.42,6.42,0,0,1-.48-2.62V34H494.3V29.9h3.32V21.64h5.28V29.9h5.47V34H502.9V48a2.59,2.59,0,0,0,.84,1.95,2.83,2.83,0,0,0,1.84.6,5.86,5.86,0,0,0,2.12-.39,16,16,0,0,0,1.48-.62Zm10.32,1.78a9.37,9.37,0,0,1-3.39-.6,8,8,0,0,1-2.68-1.66,7.58,7.58,0,0,1-2.43-5.61,6.75,6.75,0,0,1,.77-3.22,7.47,7.47,0,0,1,2.18-2.49,10.74,10.74,0,0,1,3.36-1.64,15.27,15.27,0,0,1,4.3-.57,19.47,19.47,0,0,1,3.5.31,17.61,17.61,0,0,1,3.12.84V39.11a5.8,5.8,0,0,0-1.58-4.34,6.24,6.24,0,0,0-4.56-1.56,11.15,11.15,0,0,0-4,.74,20.18,20.18,0,0,0-4,2.14l-1.63-3.36a17.77,17.77,0,0,1,10.08-3.27c3.46,0,6.14.88,8.06,2.64s2.88,4.29,2.88,7.59v9.07c0,1.12.47,1.7,1.4,1.73V55a12.65,12.65,0,0,1-1.32.19c-.37,0-.73.05-1.08.05a3.41,3.41,0,0,1-2.38-.77,3.29,3.29,0,0,1-1-2l-.15-1.58a11.14,11.14,0,0,1-4.15,3.38A12.09,12.09,0,0,1,520.61,55.48Zm1.44-3.89a9.52,9.52,0,0,0,3.62-.69A6.32,6.32,0,0,0,528.34,49a2.41,2.41,0,0,0,1-1.82V43.82a15,15,0,0,0-2.85-.82,15.93,15.93,0,0,0-3-.29,8.07,8.07,0,0,0-4.64,1.23,3.74,3.74,0,0,0-1.8,3.24,4.1,4.1,0,0,0,1.4,3.14A5,5,0,0,0,522.05,51.59Zm32.73,2.11A26.51,26.51,0,0,1,552,54.78a11.76,11.76,0,0,1-3.79.6,8.14,8.14,0,0,1-2.35-.33,5.83,5.83,0,0,1-2-1,4.59,4.59,0,0,1-1.32-1.75,6.42,6.42,0,0,1-.48-2.62V34H538.8V29.9h3.31V21.64h5.28V29.9h5.47V34h-5.47V48a2.66,2.66,0,0,0,.84,1.95,2.85,2.85,0,0,0,1.85.6,5.77,5.77,0,0,0,2.11-.39c.67-.25,1.17-.46,1.49-.62Zm17.62,0a26.51,26.51,0,0,1-2.78,1.08,11.82,11.82,0,0,1-3.8.6,8.19,8.19,0,0,1-2.35-.33,5.88,5.88,0,0,1-1.94-1,4.59,4.59,0,0,1-1.32-1.75,6.42,6.42,0,0,1-.48-2.62V34h-3.31V29.9h3.31V21.64H565V29.9h5.47V34H565V48a2.59,2.59,0,0,0,.84,1.95,2.84,2.84,0,0,0,1.85.6,5.81,5.81,0,0,0,2.11-.39c.67-.25,1.17-.46,1.49-.62Zm26.88,1.78a13.33,13.33,0,0,1-5.33-1,12.39,12.39,0,0,1-6.74-6.94,13.26,13.26,0,0,1-.94-5,13.49,13.49,0,0,1,.94-5,12.75,12.75,0,0,1,2.64-4.17A12,12,0,0,1,594,30.5a13.44,13.44,0,0,1,5.38-1,13,13,0,0,1,5.3,1.06,12.55,12.55,0,0,1,4.06,2.81,12.18,12.18,0,0,1,2.57,4.08,13.56,13.56,0,0,1,.88,4.87c0,.38,0,.74,0,1.08s-.07.62-.1.84H591.89a8.45,8.45,0,0,0,.79,3,7.77,7.77,0,0,0,1.68,2.33,7.39,7.39,0,0,0,5.11,2,8.67,8.67,0,0,0,2.09-.26,7.42,7.42,0,0,0,1.9-.77A7,7,0,0,0,605,49.34a5.74,5.74,0,0,0,1.06-1.59l4.51,1.3a10.43,10.43,0,0,1-4.3,4.63A13.29,13.29,0,0,1,599.28,55.48Zm7.63-14.93a8.42,8.42,0,0,0-.79-2.93,7.53,7.53,0,0,0-1.66-2.28,7.34,7.34,0,0,0-2.35-1.46,7.69,7.69,0,0,0-2.83-.53,7.56,7.56,0,0,0-5.14,2,7.45,7.45,0,0,0-1.63,2.28,9.11,9.11,0,0,0-.77,2.93ZM616.22,55V48.86h4.37V55Zm9.6-34.08L636.1,48.23l10.22-27.31H652L638.4,55h-4.61L620.11,20.92ZM651.6,55V48.86H656V55Z" transform="translate(-0.2 -0.68)"/><path class="a" d="M133.85,86.89a6.72,6.72,0,0,1-5,2.23,7.22,7.22,0,0,1-3.17-.71,8.21,8.21,0,0,1-2.54-1.91,8.71,8.71,0,0,1-1.69-2.78,9.09,9.09,0,0,1-.62-3.31,8.91,8.91,0,0,1,.62-3.29,8.63,8.63,0,0,1,1.69-2.74,8,8,0,0,1,2.57-1.86,8.43,8.43,0,0,1,7.34.34,6.62,6.62,0,0,1,2.5,2.7l-2.07,1.49A4.71,4.71,0,0,0,131.59,75a5.37,5.37,0,0,0-2.69-.7,4.68,4.68,0,0,0-2.18.52A5.2,5.2,0,0,0,125,76.15a6.29,6.29,0,0,0-1.07,2,7.36,7.36,0,0,0-.37,2.35A6.88,6.88,0,0,0,124,82.9a6.2,6.2,0,0,0,1.15,2,5.39,5.39,0,0,0,1.74,1.33,4.89,4.89,0,0,0,2.19.5,5.43,5.43,0,0,0,2.48-.6,7.39,7.39,0,0,0,2.27-1.9V82.38h-3.58v-2h5.83V89h-2.25Zm10.68,2.35a6.59,6.59,0,0,1-2.67-.52,6.17,6.17,0,0,1-2.05-1.4,6.27,6.27,0,0,1-1.32-2.06,6.91,6.91,0,0,1,0-5,6.4,6.4,0,0,1,1.32-2.09,6.05,6.05,0,0,1,2.05-1.41,6.65,6.65,0,0,1,2.69-.52,6.46,6.46,0,0,1,2.65.53,6.28,6.28,0,0,1,2,1.4,6.21,6.21,0,0,1,1.29,2,6.94,6.94,0,0,1,.44,2.44c0,.19,0,.37,0,.54s0,.31-.05.42H140.83a4.26,4.26,0,0,0,.4,1.51,3.8,3.8,0,0,0,.84,1.17,3.73,3.73,0,0,0,2.55,1,4.15,4.15,0,0,0,1-.14,3.39,3.39,0,0,0,1.71-1,2.88,2.88,0,0,0,.53-.79l2.26.64A5.2,5.2,0,0,1,148,88.34,6.64,6.64,0,0,1,144.53,89.24Zm3.81-7.46a4.2,4.2,0,0,0-.39-1.47,3.73,3.73,0,0,0-.83-1.14,3.84,3.84,0,0,0-1.18-.73,4,4,0,0,0-2.82,0,3.87,3.87,0,0,0-1.16.73,3.54,3.54,0,0,0-.82,1.14,4.68,4.68,0,0,0-.38,1.47Zm24,7.22h-2.64V82a4.46,4.46,0,0,0-.58-2.57,1.93,1.93,0,0,0-1.68-.82,3,3,0,0,0-2,.83A4.69,4.69,0,0,0,164,81.56V89H161.4V82a4.43,4.43,0,0,0-.58-2.58,1.89,1.89,0,0,0-1.65-.81,3.13,3.13,0,0,0-2.07.82,4.54,4.54,0,0,0-1.34,2.14V89h-2.64V76.45h2.4V79a5.32,5.32,0,0,1,2-2,5.39,5.39,0,0,1,2.77-.71,3.5,3.5,0,0,1,2.46.82,3.44,3.44,0,0,1,1.11,2,5.8,5.8,0,0,1,2-2.13,5.21,5.21,0,0,1,2.73-.73,3.66,3.66,0,0,1,1.84.42,3.2,3.2,0,0,1,1.16,1.12,4.47,4.47,0,0,1,.6,1.62,11.06,11.06,0,0,1,.17,2Zm8.74.24a6.59,6.59,0,0,1-2.67-.52,6.17,6.17,0,0,1-2-1.4A6.27,6.27,0,0,1,175,85.26a6.91,6.91,0,0,1,0-5,6.4,6.4,0,0,1,1.32-2.09,6.05,6.05,0,0,1,2-1.41,6.65,6.65,0,0,1,2.69-.52,6.46,6.46,0,0,1,2.65.53,6.39,6.39,0,0,1,2,1.4,6,6,0,0,1,1.28,2,6.73,6.73,0,0,1,.45,2.44,4.63,4.63,0,0,1,0,.54c0,.17,0,.31,0,.42H177.36a4.26,4.26,0,0,0,.4,1.51,3.8,3.8,0,0,0,.84,1.17,3.73,3.73,0,0,0,2.55,1,4.21,4.21,0,0,0,1-.14,3.25,3.25,0,0,0,.94-.38,3.29,3.29,0,0,0,.77-.61,2.88,2.88,0,0,0,.53-.79l2.26.64a5.26,5.26,0,0,1-2.15,2.32A6.67,6.67,0,0,1,181.06,89.24Zm3.81-7.46a4.43,4.43,0,0,0-.39-1.47,3.9,3.9,0,0,0-.83-1.14,3.84,3.84,0,0,0-1.18-.73,3.75,3.75,0,0,0-1.41-.26,3.68,3.68,0,0,0-1.41.26,3.74,3.74,0,0,0-1.16.73,3.54,3.54,0,0,0-.82,1.14,4.42,4.42,0,0,0-.38,1.47ZM189.65,89V76.45h2.64V89Zm0-14.62v-2.9h2.64v2.9ZM206.71,89h-2.64V82a4.61,4.61,0,0,0-.56-2.58,1.9,1.9,0,0,0-1.67-.81,3.35,3.35,0,0,0-1.15.22,3.85,3.85,0,0,0-1.08.61,4.73,4.73,0,0,0-.9.94,4,4,0,0,0-.61,1.19V89h-2.64V76.45h2.4V79a5.1,5.1,0,0,1,2.08-2,6.43,6.43,0,0,1,3-.73,3.75,3.75,0,0,1,1.85.41A3,3,0,0,1,206,77.76a4.77,4.77,0,0,1,.58,1.63,10.18,10.18,0,0,1,.17,2Zm7.63.24a9.58,9.58,0,0,1-3-.49,7.65,7.65,0,0,1-2.58-1.41l1.06-1.68A9.42,9.42,0,0,0,212,86.9a6.33,6.33,0,0,0,2.26.42,3.28,3.28,0,0,0,1.86-.46,1.46,1.46,0,0,0,.68-1.29,1.2,1.2,0,0,0-.77-1.15,15.27,15.27,0,0,0-2.4-.8q-1.17-.3-2-.6a5,5,0,0,1-1.37-.67,2.31,2.31,0,0,1-.77-.89,2.79,2.79,0,0,1-.24-1.22,3.7,3.7,0,0,1,.37-1.7,3.6,3.6,0,0,1,1-1.26,4.44,4.44,0,0,1,1.55-.78,6.55,6.55,0,0,1,1.92-.27,8,8,0,0,1,2.64.43A7,7,0,0,1,219,77.91l-1.13,1.59a5.89,5.89,0,0,0-3.72-1.4,3.16,3.16,0,0,0-1.69.42,1.46,1.46,0,0,0-.69,1.34,1.26,1.26,0,0,0,.15.64,1.19,1.19,0,0,0,.46.46,4.25,4.25,0,0,0,.84.35l1.29.35c.85.2,1.58.41,2.19.62a6.06,6.06,0,0,1,1.53.73,2.78,2.78,0,0,1,.89,1,2.93,2.93,0,0,1,.28,1.35A3.42,3.42,0,0,1,218,88.2,6,6,0,0,1,214.34,89.24Zm10.68,0a4.69,4.69,0,0,1-1.69-.3,4,4,0,0,1-1.34-.83,3.85,3.85,0,0,1-.89-1.25,3.69,3.69,0,0,1-.32-1.56,3.29,3.29,0,0,1,.38-1.6,3.81,3.81,0,0,1,1.09-1.25,5.26,5.26,0,0,1,1.68-.82,7.66,7.66,0,0,1,2.15-.29,10.17,10.17,0,0,1,1.75.16,8,8,0,0,1,1.56.42v-.86a2.92,2.92,0,0,0-.79-2.18,3.12,3.12,0,0,0-2.28-.78,5.48,5.48,0,0,0-2,.38,9.49,9.49,0,0,0-2,1.06l-.82-1.68a9,9,0,0,1,5-1.63,5.74,5.74,0,0,1,4,1.32A4.89,4.89,0,0,1,232,81.34v4.54c0,.56.23.85.7.86V89c-.26,0-.48.08-.66.1l-.54,0a1.73,1.73,0,0,1-1.19-.38,1.71,1.71,0,0,1-.52-1l-.07-.79a5.55,5.55,0,0,1-2.07,1.69A6.16,6.16,0,0,1,225,89.24Zm.72-1.94a4.83,4.83,0,0,0,1.82-.35,3.2,3.2,0,0,0,1.33-1,1.25,1.25,0,0,0,.5-.92V83.41A7.91,7.91,0,0,0,228,83a7.46,7.46,0,0,0-1.47-.14,4,4,0,0,0-2.32.61,1.88,1.88,0,0,0-.9,1.62,2,2,0,0,0,.7,1.57A2.53,2.53,0,0,0,225.74,87.3ZM254.42,89h-2.64V82a4.55,4.55,0,0,0-.57-2.57,2,2,0,0,0-1.68-.82,3,3,0,0,0-2.05.83,4.7,4.7,0,0,0-1.34,2.15V89H243.5V82a4.52,4.52,0,0,0-.57-2.58,1.92,1.92,0,0,0-1.66-.81,3.08,3.08,0,0,0-2.06.82,4.56,4.56,0,0,0-1.35,2.14V89h-2.64V76.45h2.4V79a5.32,5.32,0,0,1,2-2,5.41,5.41,0,0,1,2.77-.71,3.37,3.37,0,0,1,3.58,2.86,5.78,5.78,0,0,1,2-2.13,5.22,5.22,0,0,1,2.74-.73,3.64,3.64,0,0,1,1.83.42,3.22,3.22,0,0,1,1.17,1.12,4.87,4.87,0,0,1,.6,1.62,11.08,11.08,0,0,1,.16,2Zm17.72,0-4-5.78-2.09,2V89H263.4V71.48H266V82.59l5.76-6.12h2.88l-4.87,5.26L274.94,89Zm11.47-10.27a5.91,5.91,0,0,0-2.73.71,3.73,3.73,0,0,0-1.69,1.88V89h-2.64V76.45H279v2.81a5.74,5.74,0,0,1,1.69-2.08,4.15,4.15,0,0,1,2.25-.85h.39l.28,0Zm7,10.51a6.58,6.58,0,0,1-2.66-.52,6.07,6.07,0,0,1-2.05-1.4,6.27,6.27,0,0,1-1.32-2.06,6.91,6.91,0,0,1,0-5,6.4,6.4,0,0,1,1.32-2.09,6,6,0,0,1,2.05-1.41,6.62,6.62,0,0,1,2.69-.52,6.5,6.5,0,0,1,2.65.53,6.39,6.39,0,0,1,2,1.4,6.18,6.18,0,0,1,1.28,2,6.72,6.72,0,0,1,.44,2.44,4.7,4.7,0,0,1,0,.54c0,.17,0,.31-.05.42H286.9a4.25,4.25,0,0,0,.39,1.51,4.16,4.16,0,0,0,.84,1.17,3.76,3.76,0,0,0,1.18.75,3.61,3.61,0,0,0,1.38.27,4.07,4.07,0,0,0,1-.14,3.32,3.32,0,0,0,.95-.38,3.51,3.51,0,0,0,.77-.61,3.13,3.13,0,0,0,.53-.79l2.25.64a5.2,5.2,0,0,1-2.15,2.32A6.64,6.64,0,0,1,290.59,89.24Zm3.82-7.46a4.21,4.21,0,0,0-.4-1.47,3.57,3.57,0,0,0-.83-1.14,3.68,3.68,0,0,0-1.17-.73,3.77,3.77,0,0,0-1.42-.26,3.67,3.67,0,0,0-1.4.26,3.91,3.91,0,0,0-1.17.73,3.68,3.68,0,0,0-.81,1.14,4.43,4.43,0,0,0-.39,1.47Zm8.11,7.46a4.66,4.66,0,0,1-1.69-.3,4.2,4.2,0,0,1-1.35-.83,3.83,3.83,0,0,1-.88-1.25,3.7,3.7,0,0,1-.33-1.56,3.3,3.3,0,0,1,.39-1.6,3.69,3.69,0,0,1,1.09-1.25,5.26,5.26,0,0,1,1.68-.82,7.61,7.61,0,0,1,2.15-.29,10.26,10.26,0,0,1,1.75.16,8.44,8.44,0,0,1,1.56.42v-.86a3,3,0,0,0-.79-2.18,3.12,3.12,0,0,0-2.28-.78,5.4,5.4,0,0,0-2,.38,9.8,9.8,0,0,0-2,1.06L299,77.86a8.93,8.93,0,0,1,5-1.63,5.76,5.76,0,0,1,4,1.32,4.89,4.89,0,0,1,1.44,3.79v4.54c0,.56.23.85.69.86V89c-.25,0-.47.08-.66.1l-.54,0a1.71,1.71,0,0,1-1.18-.38,1.65,1.65,0,0,1-.52-1l-.07-.79a5.5,5.5,0,0,1-2.08,1.69A6.12,6.12,0,0,1,302.52,89.24Zm.72-1.94a4.78,4.78,0,0,0,1.81-.35,3.13,3.13,0,0,0,1.33-1,1.23,1.23,0,0,0,.51-.92V83.41a8.15,8.15,0,0,0-1.43-.41,7.56,7.56,0,0,0-1.48-.14,4,4,0,0,0-2.31.61,1.88,1.88,0,0,0-.9,1.62,2,2,0,0,0,.69,1.57A2.57,2.57,0,0,0,303.24,87.3Zm16.37,1a13.72,13.72,0,0,1-1.39.54,6,6,0,0,1-1.9.3,3.78,3.78,0,0,1-1.18-.17,3,3,0,0,1-1-.5,2.27,2.27,0,0,1-.66-.88,3.18,3.18,0,0,1-.24-1.3V78.49h-1.65v-2h1.65V72.32h2.64v4.13h2.74v2h-2.74v7a1.3,1.3,0,0,0,.42,1,1.44,1.44,0,0,0,.93.3,3.1,3.1,0,0,0,1.05-.19c.34-.13.59-.24.75-.32Zm1.82.65V76.45h2.64V89Zm0-14.62v-2.9h2.64v2.9ZM330.77,89,326,76.45h2.71l3.6,10.32,3.62-10.32h2.5L333.6,89Zm14.78,0V76.45h2.64V89Zm0-14.62v-2.9h2.64v2.9ZM362.62,89H360V82a4.52,4.52,0,0,0-.57-2.58,1.89,1.89,0,0,0-1.67-.81,3.39,3.39,0,0,0-1.15.22,4.15,4.15,0,0,0-1.08.61,5.37,5.37,0,0,0-.9.94,4.19,4.19,0,0,0-.61,1.19V89h-2.64V76.45h2.4V79a5.13,5.13,0,0,1,2.09-2,6.39,6.39,0,0,1,3-.73,3.75,3.75,0,0,1,1.85.41,3,3,0,0,1,1.14,1.12,4.78,4.78,0,0,1,.59,1.63,11.06,11.06,0,0,1,.17,2Zm22.72-4.39a4,4,0,0,1-.42,1.85,4.29,4.29,0,0,1-1.12,1.38,5.28,5.28,0,0,1-1.67.86,6.8,6.8,0,0,1-2,.3H372V72h8.79a3.4,3.4,0,0,1,1.6.38,4.13,4.13,0,0,1,1.23,1,4.69,4.69,0,0,1,1.05,3,4.56,4.56,0,0,1-.63,2.34,3.9,3.9,0,0,1-1.81,1.62,4.37,4.37,0,0,1,2.31,1.58A4.48,4.48,0,0,1,385.34,84.61Zm-2.76-.51a2.81,2.81,0,0,0-.18-1,2.88,2.88,0,0,0-.48-.84,2.18,2.18,0,0,0-.73-.58,2.12,2.12,0,0,0-.93-.22h-5.62v5.21h5.45a2.45,2.45,0,0,0,1-.2,2.49,2.49,0,0,0,.79-.55,2.63,2.63,0,0,0,.53-.82A2.54,2.54,0,0,0,382.58,84.1Zm-7.94-9.81v5h4.94a2.18,2.18,0,0,0,.93-.19,2.57,2.57,0,0,0,.74-.51,2.29,2.29,0,0,0,.51-.78,2.75,2.75,0,0,0,.18-1,2.61,2.61,0,0,0-.63-1.81,2,2,0,0,0-1.58-.71Zm16.51,14.95a4.66,4.66,0,0,1-1.69-.3,4,4,0,0,1-1.34-.83,3.84,3.84,0,0,1-1.22-2.81,3.3,3.3,0,0,1,.39-1.6,3.69,3.69,0,0,1,1.09-1.25,5.26,5.26,0,0,1,1.68-.82,7.61,7.61,0,0,1,2.15-.29,10.26,10.26,0,0,1,1.75.16,8,8,0,0,1,1.56.42v-.86a2.92,2.92,0,0,0-.79-2.18,3.12,3.12,0,0,0-2.28-.78,5.48,5.48,0,0,0-2,.38,9.8,9.8,0,0,0-2,1.06l-.81-1.68a8.93,8.93,0,0,1,5-1.63,5.74,5.74,0,0,1,4,1.32,4.89,4.89,0,0,1,1.44,3.79v4.54c0,.56.23.85.7.86V89c-.26,0-.48.08-.66.1l-.54,0A1.56,1.56,0,0,1,396,87.75l-.07-.79a5.5,5.5,0,0,1-2.08,1.69A6.08,6.08,0,0,1,391.15,89.24Zm.72-1.94a4.74,4.74,0,0,0,1.81-.35A3.17,3.17,0,0,0,395,86a1.25,1.25,0,0,0,.5-.92V83.41a7.91,7.91,0,0,0-1.43-.41,7.46,7.46,0,0,0-1.47-.14,4,4,0,0,0-2.32.61,1.88,1.88,0,0,0-.9,1.62,2,2,0,0,0,.7,1.57A2.53,2.53,0,0,0,391.87,87.3Zm16.54-8.57a5.91,5.91,0,0,0-2.73.71A3.73,3.73,0,0,0,404,81.32V89h-2.64V76.45h2.45v2.81a5.74,5.74,0,0,1,1.69-2.08,4.15,4.15,0,0,1,2.25-.85h.39l.28,0ZM429.53,89h-2.64V82a4.46,4.46,0,0,0-.58-2.57,1.93,1.93,0,0,0-1.68-.82,3,3,0,0,0-2.05.83,4.61,4.61,0,0,0-1.33,2.15V89h-2.64V82a4.43,4.43,0,0,0-.58-2.58,1.89,1.89,0,0,0-1.65-.81,3.11,3.11,0,0,0-2.07.82A4.54,4.54,0,0,0,413,81.54V89h-2.64V76.45h2.4V79a5.3,5.3,0,0,1,1.95-2,5.45,5.45,0,0,1,2.78-.71,3.5,3.5,0,0,1,2.46.82,3.44,3.44,0,0,1,1.11,2A5.78,5.78,0,0,1,423,77a5.24,5.24,0,0,1,2.74-.73,3.66,3.66,0,0,1,1.84.42,3.28,3.28,0,0,1,1.16,1.12,4.47,4.47,0,0,1,.6,1.62,11.06,11.06,0,0,1,.17,2Zm9.81.24a5.05,5.05,0,0,1-4.44-2.52V89h-2.32V71.48h2.64v7.34a5.61,5.61,0,0,1,1.86-1.89,5.17,5.17,0,0,1,4.9-.16,5.61,5.61,0,0,1,1.77,1.44,6.68,6.68,0,0,1,1.13,2.09,7.9,7.9,0,0,1,.39,2.48,7,7,0,0,1-.45,2.52,6.68,6.68,0,0,1-1.25,2.06,5.91,5.91,0,0,1-1.89,1.38A5.55,5.55,0,0,1,439.34,89.24ZM438.65,87a3.62,3.62,0,0,0,1.58-.34,4.08,4.08,0,0,0,1.24-.93,4.25,4.25,0,0,0,.8-1.33,4.5,4.5,0,0,0,.29-1.6,4.68,4.68,0,0,0-.28-1.62,4.39,4.39,0,0,0-.76-1.36,3.75,3.75,0,0,0-1.18-1,3.19,3.19,0,0,0-1.5-.36,3.26,3.26,0,0,0-2.17.79,5.26,5.26,0,0,0-1.45,1.92v3.31a2.55,2.55,0,0,0,.5,1,4.47,4.47,0,0,0,.84.78,4,4,0,0,0,1,.51A3.42,3.42,0,0,0,438.65,87Zm14.69,2.26a6.59,6.59,0,0,1-2.67-.52,6.17,6.17,0,0,1-2.05-1.4,6.27,6.27,0,0,1-1.32-2.06,6.91,6.91,0,0,1,0-5,6.4,6.4,0,0,1,1.32-2.09,6.05,6.05,0,0,1,2.05-1.41,6.65,6.65,0,0,1,2.69-.52,6.46,6.46,0,0,1,2.65.53,6.39,6.39,0,0,1,2,1.4,6,6,0,0,1,1.28,2,6.73,6.73,0,0,1,.45,2.44,4.63,4.63,0,0,1,0,.54c0,.17,0,.31,0,.42H449.64a4.26,4.26,0,0,0,.4,1.51,3.8,3.8,0,0,0,.84,1.17,3.73,3.73,0,0,0,2.55,1,4.21,4.21,0,0,0,1.05-.14,3.25,3.25,0,0,0,.94-.38,3.29,3.29,0,0,0,.77-.61,2.88,2.88,0,0,0,.53-.79L459,86a5.26,5.26,0,0,1-2.15,2.32A6.67,6.67,0,0,1,453.34,89.24Zm3.81-7.46a4.43,4.43,0,0,0-.39-1.47,3.9,3.9,0,0,0-.83-1.14,3.84,3.84,0,0,0-1.18-.73,3.75,3.75,0,0,0-1.41-.26,3.68,3.68,0,0,0-1.41.26,3.74,3.74,0,0,0-1.16.73,3.54,3.54,0,0,0-.82,1.14,4.42,4.42,0,0,0-.38,1.47ZM470.66,89l-4-5.78-2.09,2V89h-2.64V71.48h2.64V82.59l5.76-6.12h2.88l-4.87,5.26L473.47,89Z" transform="translate(-0.2 -0.68)"/><path class="a" d="M52,104.28a51.8,51.8,0,1,1,51.8-51.8A51.86,51.86,0,0,1,52,104.28ZM52,3.5a49,49,0,1,0,49,49A49,49,0,0,0,52,3.5Z" transform="translate(-0.2 -0.68)"/><path class="a" d="M52,98A45.51,45.51,0,1,1,97.51,52.48,45.55,45.55,0,0,1,52,98Zm0-88.2A42.69,42.69,0,1,0,94.69,52.48,42.74,42.74,0,0,0,52,9.79Z" transform="translate(-0.2 -0.68)"/><path class="a" d="M85.53,43.27a1.4,1.4,0,0,0-1.86.71L73.45,66.77l-9-17.32c1.18-2.28,4.17-8.29,4.17-10.63a5.77,5.77,0,1,0-11.53,0c0,2.34,3,8.35,4.18,10.63L52.1,67,42.63,48.81c0-.05-.06-.07-.09-.11a1,1,0,0,0-.18-.22,1.24,1.24,0,0,0-.22-.18s-.06-.07-.11-.09l-.11,0a.9.9,0,0,0-.28-.08,1.14,1.14,0,0,0-.52,0,1.19,1.19,0,0,0-.27.07l-.12,0s-.07.06-.11.09a1.84,1.84,0,0,0-.22.17,1.3,1.3,0,0,0-.18.23s-.07.06-.09.11L30.64,67,20.33,44a1.41,1.41,0,0,0-2.57,1.15L29.17,70.59a1.4,1.4,0,0,0,1.28.83h.21a1.41,1.41,0,0,0,1.25-.76L41.38,52.5l9.47,18.16a.94.94,0,0,0,.14.19l0,.07a1.2,1.2,0,0,0,.41.33h0l0,0a1.45,1.45,0,0,0,.62.15,1.42,1.42,0,0,0,.65-.16l0,0a1.54,1.54,0,0,0,.34-.28.72.72,0,0,0,.11-.15l.1-.14L62.83,52.5,72.3,70.66a1.57,1.57,0,0,0,.19.26s0,0,0,0a1.58,1.58,0,0,0,.39.29l0,0,.07,0a1.38,1.38,0,0,0,.49.1h0a1.42,1.42,0,0,0,.36,0l.12,0,.17-.07s0,0,0,0a1.57,1.57,0,0,0,.38-.3l.06-.1a1,1,0,0,0,.15-.24L86.24,45.14A1.41,1.41,0,0,0,85.53,43.27Zm-22.7-7.4a3,3,0,0,1,3,3c0,1.1-1.48,4.51-3,7.52-1.48-3-2.95-6.42-2.95-7.52A3,3,0,0,1,62.83,35.87Z" transform="translate(-0.2 -0.68)"/></svg>