<svg width="185" height="68" viewBox="0 0 185 68" xmlns="http://www.w3.org/2000/svg"><style>.a{fill:#FFF;}</style><g fill="none"><path d="M6.241 43.373L7.935 43.373 9.325 47.281 10.732 43.373 12.41 43.373 10.476 48.497 12.17 52.73 15.701 43.324 17.667 43.324 12.985 54.838 11.451 54.838 9.341 49.681 7.216 54.838 5.682 54.838 1 43.324 2.95 43.324 6.497 52.73 8.191 48.497 6.241 43.373ZM21.55 55C20.9 55 20.309 54.884 19.776 54.651 19.244 54.419 18.788 54.103 18.41 53.703 18.032 53.303 17.739 52.838 17.531 52.308 17.323 51.778 17.219 51.216 17.219 50.622 17.219 50.027 17.323 49.462 17.531 48.927 17.739 48.392 18.032 47.922 18.41 47.516 18.788 47.111 19.244 46.792 19.776 46.559 20.309 46.327 20.905 46.211 21.566 46.211 22.216 46.211 22.804 46.33 23.332 46.568 23.859 46.805 24.309 47.122 24.682 47.516 25.055 47.911 25.34 48.37 25.537 48.895 25.734 49.419 25.833 49.968 25.833 50.541 25.833 50.67 25.827 50.792 25.817 50.905 25.806 51.019 25.795 51.114 25.785 51.189L19.089 51.189C19.121 51.568 19.209 51.908 19.353 52.211 19.497 52.514 19.683 52.776 19.912 52.997 20.141 53.219 20.402 53.389 20.695 53.508 20.988 53.627 21.294 53.686 21.614 53.686 21.848 53.686 22.08 53.657 22.309 53.597 22.538 53.538 22.748 53.451 22.94 53.338 23.132 53.224 23.302 53.086 23.452 52.924 23.601 52.762 23.718 52.584 23.803 52.389L25.305 52.827C25.018 53.465 24.541 53.986 23.875 54.392 23.209 54.797 22.434 55 21.55 55ZM24.091 49.957C24.059 49.6 23.971 49.27 23.827 48.968 23.683 48.665 23.499 48.408 23.276 48.197 23.052 47.986 22.791 47.822 22.493 47.703 22.194 47.584 21.88 47.524 21.55 47.524 21.22 47.524 20.908 47.584 20.615 47.703 20.322 47.822 20.064 47.986 19.84 48.197 19.616 48.408 19.435 48.665 19.297 48.968 19.158 49.27 19.073 49.6 19.041 49.957L24.091 49.957ZM27.287 43L29.044 43 29.044 52.389C29.044 52.703 29.124 52.949 29.284 53.127 29.444 53.305 29.668 53.395 29.955 53.395 30.072 53.395 30.208 53.373 30.363 53.33 30.517 53.286 30.664 53.238 30.802 53.184L31.058 54.578C30.802 54.697 30.499 54.792 30.147 54.862 29.795 54.932 29.481 54.968 29.204 54.968 28.597 54.968 28.126 54.8 27.79 54.465 27.454 54.13 27.287 53.654 27.287 53.038L27.287 43ZM31.537 50.589C31.537 49.995 31.638 49.432 31.841 48.903 32.043 48.373 32.334 47.908 32.712 47.508 33.09 47.108 33.545 46.792 34.078 46.559 34.611 46.327 35.207 46.211 35.868 46.211 36.731 46.211 37.474 46.403 38.097 46.786 38.72 47.17 39.186 47.681 39.495 48.319L37.785 48.87C37.583 48.514 37.311 48.235 36.97 48.035 36.629 47.835 36.251 47.735 35.836 47.735 35.484 47.735 35.157 47.805 34.853 47.946 34.549 48.086 34.286 48.284 34.062 48.538 33.838 48.792 33.663 49.092 33.535 49.438 33.407 49.784 33.343 50.168 33.343 50.589 33.343 51 33.41 51.381 33.543 51.732 33.676 52.084 33.857 52.389 34.086 52.649 34.315 52.908 34.581 53.111 34.885 53.257 35.189 53.403 35.511 53.476 35.852 53.476 36.065 53.476 36.278 53.446 36.491 53.386 36.704 53.327 36.898 53.243 37.074 53.135 37.25 53.027 37.405 52.903 37.538 52.762 37.671 52.622 37.769 52.47 37.833 52.308L39.559 52.827C39.282 53.465 38.819 53.986 38.169 54.392 37.519 54.797 36.752 55 35.868 55 35.218 55 34.627 54.881 34.094 54.643 33.561 54.405 33.106 54.084 32.728 53.678 32.35 53.273 32.057 52.805 31.849 52.276 31.641 51.746 31.537 51.184 31.537 50.589ZM44.689 55C44.028 55 43.434 54.881 42.907 54.643 42.38 54.405 41.929 54.086 41.557 53.686 41.184 53.286 40.896 52.819 40.694 52.284 40.491 51.749 40.39 51.189 40.39 50.605 40.39 50.022 40.491 49.462 40.694 48.927 40.896 48.392 41.186 47.924 41.565 47.524 41.943 47.124 42.396 46.805 42.923 46.568 43.45 46.33 44.039 46.211 44.689 46.211 45.338 46.211 45.927 46.33 46.454 46.568 46.982 46.805 47.434 47.124 47.813 47.524 48.191 47.924 48.481 48.392 48.684 48.927 48.886 49.462 48.987 50.022 48.987 50.605 48.987 51.189 48.886 51.749 48.684 52.284 48.481 52.819 48.191 53.286 47.813 53.686 47.434 54.086 46.982 54.405 46.454 54.643 45.927 54.881 45.338 55 44.689 55ZM42.196 50.622C42.196 51.032 42.26 51.411 42.388 51.757 42.515 52.103 42.691 52.403 42.915 52.657 43.139 52.911 43.402 53.111 43.706 53.257 44.009 53.403 44.337 53.476 44.689 53.476 45.04 53.476 45.368 53.403 45.671 53.257 45.975 53.111 46.239 52.908 46.462 52.649 46.686 52.389 46.862 52.086 46.99 51.741 47.118 51.395 47.181 51.016 47.181 50.605 47.181 50.205 47.118 49.83 46.99 49.478 46.862 49.127 46.686 48.822 46.462 48.562 46.239 48.303 45.975 48.1 45.671 47.954 45.368 47.808 45.04 47.735 44.689 47.735 44.348 47.735 44.025 47.811 43.722 47.962 43.418 48.114 43.155 48.319 42.931 48.578 42.707 48.838 42.529 49.143 42.396 49.495 42.262 49.846 42.196 50.222 42.196 50.622ZM63.337 54.838L61.579 54.838 61.579 50.086C61.579 49.297 61.451 48.719 61.196 48.351 60.94 47.984 60.567 47.8 60.077 47.8 59.576 47.8 59.121 47.986 58.711 48.359 58.301 48.732 58.005 49.216 57.824 49.811L57.824 54.838 56.066 54.838 56.066 50.086C56.066 49.286 55.938 48.705 55.683 48.343 55.427 47.981 55.059 47.8 54.58 47.8 54.079 47.8 53.621 47.984 53.206 48.351 52.79 48.719 52.492 49.2 52.311 49.795L52.311 54.838 50.553 54.838 50.553 46.357 52.151 46.357 52.151 48.059C52.481 47.465 52.916 47.008 53.454 46.689 53.991 46.37 54.607 46.211 55.299 46.211 55.992 46.211 56.538 46.395 56.937 46.762 57.337 47.13 57.584 47.589 57.68 48.141 58.032 47.514 58.474 47.035 59.006 46.705 59.539 46.376 60.146 46.211 60.828 46.211 61.318 46.211 61.726 46.305 62.051 46.495 62.376 46.684 62.634 46.935 62.826 47.249 63.017 47.562 63.151 47.927 63.225 48.343 63.3 48.759 63.337 49.2 63.337 49.665L63.337 54.838ZM69.154 55C68.504 55 67.913 54.884 67.38 54.651 66.847 54.419 66.392 54.103 66.014 53.703 65.635 53.303 65.342 52.838 65.135 52.308 64.927 51.778 64.823 51.216 64.823 50.622 64.823 50.027 64.927 49.462 65.135 48.927 65.342 48.392 65.635 47.922 66.014 47.516 66.392 47.111 66.847 46.792 67.38 46.559 67.913 46.327 68.509 46.211 69.17 46.211 69.819 46.211 70.408 46.33 70.935 46.568 71.463 46.805 71.913 47.122 72.286 47.516 72.658 47.911 72.943 48.37 73.141 48.895 73.338 49.419 73.436 49.968 73.436 50.541 73.436 50.67 73.431 50.792 73.42 50.905 73.41 51.019 73.399 51.114 73.388 51.189L66.693 51.189C66.725 51.568 66.813 51.908 66.956 52.211 67.1 52.514 67.287 52.776 67.516 52.997 67.745 53.219 68.006 53.389 68.299 53.508 68.592 53.627 68.898 53.686 69.218 53.686 69.452 53.686 69.684 53.657 69.913 53.597 70.142 53.538 70.352 53.451 70.544 53.338 70.736 53.224 70.906 53.086 71.055 52.924 71.204 52.762 71.322 52.584 71.407 52.389L72.909 52.827C72.621 53.465 72.144 53.986 71.479 54.392 70.813 54.797 70.038 55 69.154 55ZM71.694 49.957C71.662 49.6 71.575 49.27 71.431 48.968 71.287 48.665 71.103 48.408 70.879 48.197 70.656 47.986 70.395 47.822 70.096 47.703 69.798 47.584 69.484 47.524 69.154 47.524 68.823 47.524 68.512 47.584 68.219 47.703 67.926 47.822 67.667 47.986 67.444 48.197 67.22 48.408 67.039 48.665 66.9 48.968 66.762 49.27 66.677 49.6 66.645 49.957L71.694 49.957ZM82.529 43.373L84.222 43.373 85.613 47.281 87.019 43.373 88.697 43.373 86.763 48.497 88.457 52.73 91.989 43.324 93.954 43.324 89.272 54.838 87.738 54.838 85.629 49.681 83.503 54.838 81.969 54.838 77.287 43.324 79.237 43.324 82.784 52.73 84.478 48.497 82.529 43.373ZM97.837 55C97.187 55 96.596 54.884 96.063 54.651 95.531 54.419 95.075 54.103 94.697 53.703 94.319 53.303 94.026 52.838 93.818 52.308 93.611 51.778 93.507 51.216 93.507 50.622 93.507 50.027 93.611 49.462 93.818 48.927 94.026 48.392 94.319 47.922 94.697 47.516 95.075 47.111 95.531 46.792 96.063 46.559 96.596 46.327 97.193 46.211 97.853 46.211 98.503 46.211 99.092 46.33 99.619 46.568 100.146 46.805 100.596 47.122 100.969 47.516 101.342 47.911 101.627 48.37 101.824 48.895 102.021 49.419 102.12 49.968 102.12 50.541 102.12 50.67 102.114 50.792 102.104 50.905 102.093 51.019 102.083 51.114 102.072 51.189L95.376 51.189C95.408 51.568 95.496 51.908 95.64 52.211 95.784 52.514 95.97 52.776 96.199 52.997 96.428 53.219 96.689 53.389 96.982 53.508 97.275 53.627 97.582 53.686 97.901 53.686 98.136 53.686 98.367 53.657 98.596 53.597 98.825 53.538 99.036 53.451 99.227 53.338 99.419 53.224 99.59 53.086 99.739 52.924 99.888 52.762 100.005 52.584 100.09 52.389L101.592 52.827C101.305 53.465 100.828 53.986 100.162 54.392 99.496 54.797 98.721 55 97.837 55ZM100.378 49.957C100.346 49.6 100.258 49.27 100.114 48.968 99.971 48.665 99.787 48.408 99.563 48.197 99.339 47.986 99.078 47.822 98.78 47.703 98.482 47.584 98.167 47.524 97.837 47.524 97.507 47.524 97.195 47.584 96.902 47.703 96.609 47.822 96.351 47.986 96.127 48.197 95.904 48.408 95.723 48.665 95.584 48.968 95.446 49.27 95.36 49.6 95.328 49.957L100.378 49.957ZM108.256 47.897C107.574 47.919 106.97 48.078 106.442 48.376 105.915 48.673 105.539 49.097 105.316 49.649L105.316 54.838 103.558 54.838 103.558 46.357 105.188 46.357 105.188 48.254C105.476 47.67 105.851 47.203 106.314 46.851 106.778 46.5 107.276 46.308 107.809 46.276L108.072 46.276C108.142 46.276 108.203 46.281 108.256 46.292L108.256 47.897ZM115.351 54.838L112.682 50.93 111.292 52.259 111.292 54.838 109.534 54.838 109.534 43 111.292 43 111.292 50.508 115.127 46.373 117.045 46.373 113.801 49.924 117.221 54.838 115.351 54.838ZM121.327 55C120.656 55 119.988 54.889 119.322 54.668 118.656 54.446 118.084 54.13 117.604 53.719L118.307 52.584C118.808 52.951 119.303 53.23 119.793 53.419 120.283 53.608 120.784 53.703 121.295 53.703 121.818 53.703 122.23 53.6 122.534 53.395 122.838 53.189 122.989 52.897 122.989 52.519 122.989 52.162 122.819 51.903 122.478 51.741 122.137 51.578 121.604 51.4 120.88 51.205 120.358 51.065 119.911 50.93 119.538 50.8 119.165 50.67 118.861 50.519 118.627 50.346 118.393 50.173 118.222 49.973 118.116 49.746 118.009 49.519 117.956 49.243 117.956 48.919 117.956 48.486 118.038 48.103 118.203 47.768 118.369 47.432 118.598 47.149 118.891 46.916 119.184 46.684 119.527 46.508 119.921 46.389 120.315 46.27 120.742 46.211 121.2 46.211 121.828 46.211 122.414 46.308 122.957 46.503 123.501 46.697 123.985 46.978 124.412 47.346L123.66 48.416C122.883 47.789 122.057 47.476 121.184 47.476 120.736 47.476 120.361 47.57 120.057 47.759 119.753 47.949 119.602 48.249 119.602 48.659 119.602 48.832 119.634 48.978 119.698 49.097 119.761 49.216 119.865 49.319 120.009 49.405 120.153 49.492 120.339 49.57 120.568 49.641 120.797 49.711 121.082 49.789 121.423 49.876 121.988 50.016 122.475 50.157 122.885 50.297 123.296 50.438 123.634 50.603 123.9 50.792 124.167 50.981 124.364 51.203 124.491 51.457 124.619 51.711 124.683 52.016 124.683 52.373 124.683 53.184 124.382 53.824 123.78 54.295 123.178 54.765 122.361 55 121.327 55ZM130.867 54.4C130.644 54.508 130.335 54.63 129.941 54.765 129.546 54.9 129.126 54.968 128.678 54.968 128.401 54.968 128.14 54.93 127.895 54.854 127.65 54.778 127.434 54.665 127.248 54.514 127.062 54.362 126.915 54.165 126.809 53.922 126.702 53.678 126.649 53.384 126.649 53.038L126.649 47.735 125.546 47.735 125.546 46.357 126.649 46.357 126.649 43.568 128.406 43.568 128.406 46.357 130.228 46.357 130.228 47.735 128.406 47.735 128.406 52.47C128.428 52.773 128.521 52.992 128.686 53.127 128.851 53.262 129.056 53.33 129.301 53.33 129.546 53.33 129.781 53.286 130.004 53.2 130.228 53.114 130.393 53.043 130.5 52.989L130.867 54.4ZM134.303 55C133.898 55 133.523 54.932 133.176 54.797 132.83 54.662 132.532 54.476 132.282 54.238 132.031 54 131.834 53.719 131.69 53.395 131.546 53.07 131.475 52.719 131.475 52.341 131.475 51.941 131.56 51.578 131.73 51.254 131.901 50.93 132.143 50.649 132.457 50.411 132.772 50.173 133.144 49.989 133.576 49.859 134.007 49.73 134.484 49.665 135.006 49.665 135.4 49.665 135.789 49.7 136.173 49.77 136.556 49.841 136.902 49.935 137.211 50.054L137.211 49.47C137.211 48.843 137.036 48.354 136.684 48.003 136.332 47.651 135.826 47.476 135.166 47.476 134.718 47.476 134.279 47.559 133.848 47.727 133.416 47.895 132.971 48.135 132.513 48.449L131.97 47.314C133.046 46.578 134.165 46.211 135.326 46.211 136.476 46.211 137.371 46.508 138.01 47.103 138.649 47.697 138.969 48.551 138.969 49.665L138.969 52.73C138.969 53.108 139.124 53.303 139.433 53.314L139.433 54.838C139.262 54.87 139.116 54.892 138.993 54.903 138.871 54.914 138.751 54.919 138.634 54.919 138.293 54.919 138.029 54.832 137.843 54.659 137.656 54.486 137.542 54.265 137.499 53.995L137.451 53.459C137.078 53.957 136.617 54.338 136.069 54.603 135.52 54.868 134.932 55 134.303 55ZM134.782 53.686C135.209 53.686 135.611 53.608 135.989 53.451 136.367 53.295 136.663 53.076 136.876 52.795 137.099 52.6 137.211 52.395 137.211 52.178L137.211 51.059C136.913 50.941 136.596 50.849 136.261 50.784 135.925 50.719 135.597 50.686 135.278 50.686 134.649 50.686 134.135 50.824 133.736 51.1 133.336 51.376 133.136 51.741 133.136 52.195 133.136 52.616 133.291 52.97 133.6 53.257 133.909 53.543 134.303 53.686 134.782 53.686ZM145.681 54.4C145.457 54.508 145.148 54.63 144.754 54.765 144.36 54.9 143.939 54.968 143.491 54.968 143.214 54.968 142.953 54.93 142.708 54.854 142.463 54.778 142.248 54.665 142.061 54.514 141.875 54.362 141.728 54.165 141.622 53.922 141.515 53.678 141.462 53.384 141.462 53.038L141.462 47.735 140.359 47.735 140.359 46.357 141.462 46.357 141.462 43.568 143.22 43.568 143.22 46.357 145.041 46.357 145.041 47.735 143.22 47.735 143.22 52.47C143.241 52.773 143.334 52.992 143.499 53.127 143.664 53.262 143.87 53.33 144.115 53.33 144.36 53.33 144.594 53.286 144.818 53.2 145.041 53.114 145.207 53.043 145.313 52.989L145.681 54.4ZM151.545 54.4C151.321 54.508 151.012 54.63 150.618 54.765 150.224 54.9 149.803 54.968 149.356 54.968 149.079 54.968 148.818 54.93 148.573 54.854 148.328 54.778 148.112 54.665 147.926 54.514 147.739 54.362 147.593 54.165 147.486 53.922 147.38 53.678 147.326 53.384 147.326 53.038L147.326 47.735 146.224 47.735 146.224 46.357 147.326 46.357 147.326 43.568 149.084 43.568 149.084 46.357 150.906 46.357 150.906 47.735 149.084 47.735 149.084 52.47C149.106 52.773 149.199 52.992 149.364 53.127 149.529 53.262 149.734 53.33 149.979 53.33 150.224 53.33 150.459 53.286 150.682 53.2 150.906 53.114 151.071 53.043 151.178 52.989L151.545 54.4ZM160.494 55C159.844 55 159.253 54.884 158.72 54.651 158.187 54.419 157.732 54.103 157.354 53.703 156.976 53.303 156.683 52.838 156.475 52.308 156.267 51.778 156.163 51.216 156.163 50.622 156.163 50.027 156.267 49.462 156.475 48.927 156.683 48.392 156.976 47.922 157.354 47.516 157.732 47.111 158.187 46.792 158.72 46.559 159.253 46.327 159.849 46.211 160.51 46.211 161.16 46.211 161.748 46.33 162.276 46.568 162.803 46.805 163.253 47.122 163.626 47.516 163.999 47.911 164.284 48.37 164.481 48.895 164.678 49.419 164.776 49.968 164.776 50.541 164.776 50.67 164.771 50.792 164.76 50.905 164.75 51.019 164.739 51.114 164.728 51.189L158.033 51.189C158.065 51.568 158.153 51.908 158.297 52.211 158.44 52.514 158.627 52.776 158.856 52.997 159.085 53.219 159.346 53.389 159.639 53.508 159.932 53.627 160.238 53.686 160.558 53.686 160.792 53.686 161.024 53.657 161.253 53.597 161.482 53.538 161.692 53.451 161.884 53.338 162.076 53.224 162.246 53.086 162.395 52.924 162.545 52.762 162.662 52.584 162.747 52.389L164.249 52.827C163.961 53.465 163.485 53.986 162.819 54.392 162.153 54.797 161.378 55 160.494 55ZM163.035 49.957C163.003 49.6 162.915 49.27 162.771 48.968 162.627 48.665 162.443 48.408 162.22 48.197 161.996 47.986 161.735 47.822 161.437 47.703 161.138 47.584 160.824 47.524 160.494 47.524 160.164 47.524 159.852 47.584 159.559 47.703 159.266 47.822 159.008 47.986 158.784 48.197 158.56 48.408 158.379 48.665 158.241 48.968 158.102 49.27 158.017 49.6 157.985 49.957L163.035 49.957ZM166.135 54.838L166.135 52.762 167.589 52.762 167.589 54.838 166.135 54.838ZM173.965 43.324L177.384 52.551 180.788 43.324 182.69 43.324 178.151 54.838 176.617 54.838 172.063 43.324 173.965 43.324ZM182.546 54.838L182.546 52.762 184 52.762 184 54.838 182.546 54.838Z" class="a"/><path d="M25.413 67.073C24.813 67.659 24.122 67.953 23.342 67.953 22.868 67.953 22.428 67.86 22.021 67.674 21.614 67.488 21.261 67.237 20.961 66.922 20.66 66.606 20.425 66.241 20.255 65.824 20.085 65.408 20 64.973 20 64.519 20 64.065 20.085 63.633 20.255 63.223 20.425 62.813 20.66 62.454 20.961 62.145 21.261 61.836 21.618 61.591 22.031 61.411 22.445 61.232 22.895 61.142 23.382 61.142 24.062 61.142 24.633 61.276 25.093 61.544 25.553 61.812 25.9 62.167 26.133 62.608L25.273 63.195C25.079 62.829 24.813 62.555 24.472 62.372 24.132 62.189 23.759 62.097 23.352 62.097 23.018 62.097 22.715 62.165 22.441 62.301 22.168 62.436 21.934 62.616 21.741 62.84 21.548 63.064 21.399 63.324 21.296 63.62 21.192 63.917 21.141 64.226 21.141 64.547 21.141 64.888 21.199 65.206 21.316 65.503 21.432 65.799 21.593 66.058 21.796 66.278 21.999 66.499 22.241 66.674 22.521 66.803 22.802 66.933 23.105 66.997 23.432 66.997 23.792 66.997 24.137 66.918 24.467 66.761 24.798 66.603 25.113 66.354 25.413 66.014L25.413 65.295 23.922 65.295 23.922 64.509 26.353 64.509 26.353 67.905 25.413 67.905 25.413 67.073ZM29.865 68C29.458 68 29.088 67.932 28.755 67.797 28.421 67.661 28.136 67.477 27.899 67.243 27.663 67.01 27.479 66.739 27.349 66.43 27.219 66.121 27.154 65.793 27.154 65.446 27.154 65.099 27.219 64.77 27.349 64.457 27.479 64.145 27.663 63.871 27.899 63.634 28.136 63.398 28.421 63.212 28.755 63.076 29.088 62.941 29.462 62.873 29.875 62.873 30.282 62.873 30.651 62.942 30.981 63.081 31.311 63.22 31.593 63.404 31.826 63.634 32.06 63.865 32.238 64.133 32.362 64.439 32.485 64.744 32.547 65.064 32.547 65.399 32.547 65.474 32.543 65.545 32.537 65.611 32.53 65.678 32.523 65.733 32.517 65.777L28.325 65.777C28.345 65.998 28.4 66.196 28.49 66.373 28.58 66.55 28.696 66.702 28.84 66.832 28.983 66.961 29.147 67.06 29.33 67.13 29.514 67.199 29.705 67.234 29.905 67.234 30.052 67.234 30.197 67.216 30.341 67.182 30.484 67.147 30.616 67.097 30.736 67.03 30.856 66.964 30.963 66.884 31.056 66.789 31.149 66.695 31.223 66.591 31.276 66.477L32.217 66.732C32.037 67.105 31.738 67.409 31.321 67.645 30.904 67.882 30.419 68 29.865 68ZM31.456 65.058C31.436 64.85 31.381 64.658 31.291 64.481 31.201 64.305 31.086 64.155 30.946 64.032 30.806 63.909 30.642 63.813 30.456 63.743 30.269 63.674 30.072 63.639 29.865 63.639 29.659 63.639 29.463 63.674 29.28 63.743 29.097 63.813 28.935 63.909 28.795 64.032 28.655 64.155 28.541 64.305 28.455 64.481 28.368 64.658 28.315 64.85 28.295 65.058L31.456 65.058ZM41.452 67.905L40.351 67.905 40.351 65.134C40.351 64.673 40.271 64.336 40.111 64.122 39.951 63.907 39.717 63.8 39.411 63.8 39.097 63.8 38.812 63.909 38.555 64.126 38.298 64.344 38.113 64.626 38 64.973L38 67.905 36.899 67.905 36.899 65.134C36.899 64.667 36.819 64.328 36.659 64.117 36.499 63.906 36.269 63.8 35.969 63.8 35.655 63.8 35.368 63.907 35.108 64.122 34.848 64.336 34.661 64.617 34.548 64.964L34.548 67.905 33.447 67.905 33.447 62.958 34.448 62.958 34.448 63.951C34.655 63.605 34.926 63.338 35.263 63.152 35.6 62.966 35.985 62.873 36.419 62.873 36.853 62.873 37.194 62.98 37.444 63.195 37.695 63.409 37.85 63.677 37.91 63.999 38.13 63.633 38.407 63.354 38.74 63.161 39.074 62.969 39.454 62.873 39.881 62.873 40.188 62.873 40.443 62.928 40.646 63.039 40.85 63.149 41.011 63.295 41.132 63.478 41.252 63.661 41.335 63.874 41.382 64.117 41.428 64.36 41.452 64.617 41.452 64.888L41.452 67.905ZM45.094 68C44.687 68 44.317 67.932 43.983 67.797 43.65 67.661 43.364 67.477 43.128 67.243 42.891 67.01 42.707 66.739 42.577 66.43 42.447 66.121 42.382 65.793 42.382 65.446 42.382 65.099 42.447 64.77 42.577 64.457 42.707 64.145 42.891 63.871 43.128 63.634 43.364 63.398 43.65 63.212 43.983 63.076 44.317 62.941 44.69 62.873 45.104 62.873 45.511 62.873 45.879 62.942 46.209 63.081 46.539 63.22 46.821 63.404 47.055 63.634 47.288 63.865 47.467 64.133 47.59 64.439 47.713 64.744 47.775 65.064 47.775 65.399 47.775 65.474 47.772 65.545 47.765 65.611 47.758 65.678 47.752 65.733 47.745 65.777L43.553 65.777C43.573 65.998 43.628 66.196 43.718 66.373 43.808 66.55 43.925 66.702 44.068 66.832 44.212 66.961 44.375 67.06 44.558 67.13 44.742 67.199 44.934 67.234 45.134 67.234 45.28 67.234 45.426 67.216 45.569 67.182 45.712 67.147 45.844 67.097 45.964 67.03 46.084 66.964 46.191 66.884 46.284 66.789 46.378 66.695 46.451 66.591 46.504 66.477L47.445 66.732C47.265 67.105 46.966 67.409 46.549 67.645 46.133 67.882 45.647 68 45.094 68ZM46.685 65.058C46.665 64.85 46.609 64.658 46.519 64.481 46.429 64.305 46.314 64.155 46.174 64.032 46.034 63.909 45.871 63.813 45.684 63.743 45.497 63.674 45.3 63.639 45.094 63.639 44.887 63.639 44.692 63.674 44.508 63.743 44.325 63.813 44.163 63.909 44.023 64.032 43.883 64.155 43.77 64.305 43.683 64.481 43.596 64.658 43.543 64.85 43.523 65.058L46.685 65.058ZM48.676 67.905L48.676 62.958 49.776 62.958 49.776 67.905 48.676 67.905ZM48.676 62.145L48.676 61 49.776 61 49.776 62.145 48.676 62.145ZM55.789 67.905L54.689 67.905 54.689 65.134C54.689 64.667 54.611 64.328 54.454 64.117 54.297 63.906 54.065 63.8 53.758 63.8 53.598 63.8 53.438 63.828 53.278 63.885 53.118 63.942 52.968 64.022 52.828 64.126 52.688 64.23 52.563 64.353 52.453 64.495 52.343 64.637 52.258 64.793 52.198 64.964L52.198 67.905 51.097 67.905 51.097 62.958 52.097 62.958 52.097 63.951C52.298 63.617 52.588 63.354 52.968 63.161 53.348 62.969 53.768 62.873 54.229 62.873 54.542 62.873 54.799 62.927 54.999 63.034 55.199 63.141 55.358 63.288 55.474 63.474 55.591 63.66 55.673 63.874 55.719 64.117 55.766 64.36 55.789 64.617 55.789 64.888L55.789 67.905ZM58.971 68C58.551 68 58.132 67.935 57.716 67.806 57.299 67.677 56.94 67.492 56.64 67.253L57.08 66.591C57.394 66.805 57.704 66.967 58.011 67.078 58.318 67.188 58.631 67.243 58.951 67.243 59.278 67.243 59.537 67.183 59.727 67.064 59.917 66.944 60.012 66.773 60.012 66.553 60.012 66.345 59.905 66.193 59.692 66.099 59.478 66.004 59.145 65.9 58.691 65.786 58.364 65.705 58.084 65.626 57.851 65.55 57.617 65.474 57.427 65.386 57.28 65.285 57.134 65.184 57.027 65.068 56.96 64.935 56.893 64.803 56.86 64.642 56.86 64.453 56.86 64.2 56.912 63.977 57.015 63.781 57.119 63.586 57.262 63.42 57.445 63.284 57.629 63.149 57.844 63.046 58.091 62.977 58.338 62.908 58.604 62.873 58.891 62.873 59.285 62.873 59.652 62.93 59.992 63.043 60.332 63.157 60.635 63.321 60.902 63.535L60.432 64.159C59.945 63.794 59.428 63.611 58.881 63.611 58.601 63.611 58.366 63.666 58.176 63.776 57.986 63.887 57.891 64.062 57.891 64.301 57.891 64.402 57.911 64.487 57.951 64.557 57.991 64.626 58.056 64.686 58.146 64.736 58.236 64.787 58.353 64.833 58.496 64.874 58.639 64.915 58.818 64.96 59.031 65.011 59.385 65.093 59.69 65.175 59.947 65.257 60.204 65.339 60.415 65.435 60.582 65.545 60.749 65.656 60.872 65.785 60.952 65.933 61.032 66.081 61.072 66.259 61.072 66.468 61.072 66.941 60.884 67.314 60.507 67.589 60.13 67.863 59.618 68 58.971 68ZM63.424 68C63.17 68 62.935 67.961 62.718 67.882 62.501 67.803 62.315 67.694 62.158 67.555 62.001 67.417 61.878 67.253 61.788 67.064 61.698 66.874 61.653 66.669 61.653 66.449 61.653 66.215 61.706 66.004 61.813 65.815 61.919 65.626 62.071 65.462 62.268 65.323 62.465 65.184 62.698 65.077 62.968 65.001 63.239 64.926 63.537 64.888 63.864 64.888 64.111 64.888 64.354 64.908 64.594 64.949 64.834 64.99 65.051 65.045 65.245 65.115L65.245 64.774C65.245 64.409 65.135 64.123 64.914 63.918 64.694 63.713 64.377 63.611 63.964 63.611 63.684 63.611 63.409 63.66 63.138 63.757 62.868 63.855 62.59 63.995 62.303 64.178L61.963 63.516C62.637 63.087 63.337 62.873 64.064 62.873 64.784 62.873 65.345 63.046 65.745 63.393 66.145 63.74 66.345 64.238 66.345 64.888L66.345 66.676C66.345 66.896 66.442 67.01 66.635 67.016L66.635 67.905C66.529 67.924 66.437 67.937 66.36 67.943 66.284 67.95 66.208 67.953 66.135 67.953 65.922 67.953 65.757 67.902 65.64 67.801 65.523 67.7 65.451 67.571 65.425 67.414L65.395 67.101C65.161 67.391 64.873 67.614 64.529 67.768 64.186 67.923 63.817 68 63.424 68ZM63.724 67.234C63.991 67.234 64.242 67.188 64.479 67.097 64.716 67.005 64.901 66.877 65.035 66.714 65.175 66.6 65.245 66.48 65.245 66.354L65.245 65.701C65.058 65.632 64.859 65.578 64.649 65.541 64.439 65.503 64.234 65.484 64.034 65.484 63.64 65.484 63.319 65.564 63.068 65.725 62.818 65.886 62.693 66.099 62.693 66.364 62.693 66.609 62.79 66.816 62.983 66.983 63.177 67.15 63.424 67.234 63.724 67.234ZM75.68 67.905L74.58 67.905 74.58 65.134C74.58 64.673 74.5 64.336 74.34 64.122 74.179 63.907 73.946 63.8 73.639 63.8 73.326 63.8 73.041 63.909 72.784 64.126 72.527 64.344 72.342 64.626 72.228 64.973L72.228 67.905 71.128 67.905 71.128 65.134C71.128 64.667 71.048 64.328 70.888 64.117 70.728 63.906 70.497 63.8 70.197 63.8 69.884 63.8 69.597 63.907 69.337 64.122 69.077 64.336 68.89 64.617 68.777 64.964L68.777 67.905 67.676 67.905 67.676 62.958 68.676 62.958 68.676 63.951C68.883 63.605 69.155 63.338 69.492 63.152 69.829 62.966 70.214 62.873 70.648 62.873 71.081 62.873 71.423 62.98 71.673 63.195 71.923 63.409 72.078 63.677 72.138 63.999 72.358 63.633 72.635 63.354 72.969 63.161 73.302 62.969 73.683 62.873 74.109 62.873 74.416 62.873 74.671 62.928 74.875 63.039 75.078 63.149 75.24 63.295 75.36 63.478 75.48 63.661 75.564 63.874 75.61 64.117 75.657 64.36 75.68 64.617 75.68 64.888L75.68 67.905ZM83.064 67.905L81.393 65.626 80.523 66.401 80.523 67.905 79.422 67.905 79.422 61 80.523 61 80.523 65.38 82.924 62.968 84.125 62.968 82.094 65.039 84.235 67.905 83.064 67.905ZM87.847 63.857C87.42 63.869 87.041 63.962 86.711 64.136 86.381 64.309 86.146 64.557 86.006 64.878L86.006 67.905 84.905 67.905 84.905 62.958 85.926 62.958 85.926 64.065C86.106 63.724 86.341 63.452 86.631 63.247 86.921 63.042 87.233 62.93 87.567 62.911L87.732 62.911C87.775 62.911 87.814 62.914 87.847 62.92L87.847 63.857ZM90.759 68C90.352 68 89.981 67.932 89.648 67.797 89.314 67.661 89.029 67.477 88.792 67.243 88.556 67.01 88.372 66.739 88.242 66.43 88.112 66.121 88.047 65.793 88.047 65.446 88.047 65.099 88.112 64.77 88.242 64.457 88.372 64.145 88.556 63.871 88.792 63.634 89.029 63.398 89.314 63.212 89.648 63.076 89.981 62.941 90.355 62.873 90.769 62.873 91.175 62.873 91.544 62.942 91.874 63.081 92.204 63.22 92.486 63.404 92.72 63.634 92.953 63.865 93.131 64.133 93.255 64.439 93.378 64.744 93.44 65.064 93.44 65.399 93.44 65.474 93.437 65.545 93.43 65.611 93.423 65.678 93.417 65.733 93.41 65.777L89.218 65.777C89.238 65.998 89.293 66.196 89.383 66.373 89.473 66.55 89.59 66.702 89.733 66.832 89.876 66.961 90.04 67.06 90.223 67.13 90.407 67.199 90.598 67.234 90.799 67.234 90.945 67.234 91.09 67.216 91.234 67.182 91.377 67.147 91.509 67.097 91.629 67.03 91.749 66.964 91.856 66.884 91.949 66.789 92.043 66.695 92.116 66.591 92.169 66.477L93.11 66.732C92.93 67.105 92.631 67.409 92.214 67.645 91.797 67.882 91.312 68 90.759 68ZM92.349 65.058C92.329 64.85 92.274 64.658 92.184 64.481 92.094 64.305 91.979 64.155 91.839 64.032 91.699 63.909 91.536 63.813 91.349 63.743 91.162 63.674 90.965 63.639 90.759 63.639 90.552 63.639 90.357 63.674 90.173 63.743 89.99 63.813 89.828 63.909 89.688 64.032 89.548 64.155 89.434 64.305 89.348 64.481 89.261 64.658 89.208 64.85 89.188 65.058L92.349 65.058ZM95.731 68C95.478 68 95.243 67.961 95.026 67.882 94.809 67.803 94.622 67.694 94.466 67.555 94.309 67.417 94.185 67.253 94.095 67.064 94.005 66.874 93.96 66.669 93.96 66.449 93.96 66.215 94.014 66.004 94.12 65.815 94.227 65.626 94.379 65.462 94.576 65.323 94.772 65.184 95.006 65.077 95.276 65.001 95.546 64.926 95.845 64.888 96.171 64.888 96.418 64.888 96.662 64.908 96.902 64.949 97.142 64.99 97.359 65.045 97.552 65.115L97.552 64.774C97.552 64.409 97.442 64.123 97.222 63.918 97.002 63.713 96.685 63.611 96.272 63.611 95.991 63.611 95.716 63.66 95.446 63.757 95.176 63.855 94.897 63.995 94.611 64.178L94.27 63.516C94.944 63.087 95.644 62.873 96.372 62.873 97.092 62.873 97.652 63.046 98.052 63.393 98.453 63.74 98.653 64.238 98.653 64.888L98.653 66.676C98.653 66.896 98.75 67.01 98.943 67.016L98.943 67.905C98.836 67.924 98.745 67.937 98.668 67.943 98.591 67.95 98.516 67.953 98.443 67.953 98.229 67.953 98.064 67.902 97.947 67.801 97.831 67.7 97.759 67.571 97.732 67.414L97.702 67.101C97.469 67.391 97.18 67.614 96.837 67.768 96.493 67.923 96.125 68 95.731 68ZM96.031 67.234C96.298 67.234 96.55 67.188 96.787 67.097 97.024 67.005 97.209 66.877 97.342 66.714 97.482 66.6 97.552 66.48 97.552 66.354L97.552 65.701C97.365 65.632 97.167 65.578 96.957 65.541 96.747 65.503 96.542 65.484 96.342 65.484 95.948 65.484 95.626 65.564 95.376 65.725 95.126 65.886 95.001 66.099 95.001 66.364 95.001 66.609 95.098 66.816 95.291 66.983 95.484 67.15 95.731 67.234 96.031 67.234ZM102.855 67.65C102.715 67.713 102.522 67.784 102.275 67.863 102.028 67.942 101.764 67.981 101.484 67.981 101.311 67.981 101.147 67.959 100.994 67.915 100.841 67.871 100.706 67.805 100.589 67.716 100.472 67.628 100.38 67.513 100.314 67.371 100.247 67.229 100.214 67.057 100.214 66.855L100.214 63.762 99.523 63.762 99.523 62.958 100.214 62.958 100.214 61.331 101.314 61.331 101.314 62.958 102.455 62.958 102.455 63.762 101.314 63.762 101.314 66.524C101.328 66.701 101.386 66.829 101.489 66.907 101.593 66.986 101.721 67.026 101.875 67.026 102.028 67.026 102.175 67 102.315 66.95 102.455 66.9 102.558 66.859 102.625 66.827L102.855 67.65ZM103.616 67.905L103.616 62.958 104.716 62.958 104.716 67.905 103.616 67.905ZM103.616 62.145L103.616 61 104.716 61 104.716 62.145 103.616 62.145ZM107.508 67.905L105.507 62.958 106.637 62.958 108.138 67.026 109.649 62.958 110.689 62.958 108.688 67.905 107.508 67.905ZM113.671 67.905L113.671 62.958 114.772 62.958 114.772 67.905 113.671 67.905ZM113.671 62.145L113.671 61 114.772 61 114.772 62.145 113.671 62.145ZM120.785 67.905L119.684 67.905 119.684 65.134C119.684 64.667 119.606 64.328 119.449 64.117 119.292 63.906 119.061 63.8 118.754 63.8 118.594 63.8 118.434 63.828 118.273 63.885 118.113 63.942 117.963 64.022 117.823 64.126 117.683 64.23 117.558 64.353 117.448 64.495 117.338 64.637 117.253 64.793 117.193 64.964L117.193 67.905 116.092 67.905 116.092 62.958 117.093 62.958 117.093 63.951C117.293 63.617 117.583 63.354 117.963 63.161 118.344 62.969 118.764 62.873 119.224 62.873 119.538 62.873 119.794 62.927 119.994 63.034 120.195 63.141 120.353 63.288 120.47 63.474 120.586 63.66 120.668 63.874 120.715 64.117 120.762 64.36 120.785 64.617 120.785 64.888L120.785 67.905ZM130.26 66.174C130.26 66.445 130.202 66.688 130.085 66.903 129.968 67.117 129.811 67.298 129.615 67.447 129.418 67.595 129.186 67.708 128.919 67.787 128.652 67.866 128.369 67.905 128.069 67.905L124.677 67.905 124.677 61.189 128.339 61.189C128.586 61.189 128.809 61.24 129.009 61.341 129.209 61.441 129.38 61.572 129.52 61.733 129.66 61.894 129.768 62.077 129.845 62.282 129.921 62.487 129.96 62.693 129.96 62.901 129.96 63.229 129.871 63.537 129.695 63.824 129.518 64.111 129.266 64.323 128.939 64.462 129.346 64.576 129.668 64.782 129.905 65.082 130.142 65.381 130.26 65.745 130.26 66.174ZM129.109 65.976C129.109 65.837 129.084 65.705 129.034 65.578 128.984 65.452 128.918 65.342 128.834 65.247 128.751 65.153 128.649 65.077 128.529 65.02 128.409 64.964 128.279 64.935 128.139 64.935L125.798 64.935 125.798 66.988 128.069 66.988C128.216 66.988 128.352 66.961 128.479 66.907 128.606 66.854 128.716 66.781 128.809 66.69 128.903 66.598 128.976 66.491 129.029 66.368 129.083 66.245 129.109 66.114 129.109 65.976ZM125.798 62.107L125.798 64.084 127.859 64.084C127.999 64.084 128.127 64.059 128.244 64.008 128.361 63.958 128.464 63.89 128.554 63.805 128.644 63.72 128.714 63.617 128.764 63.497 128.814 63.377 128.839 63.245 128.839 63.1 128.839 62.81 128.753 62.572 128.579 62.386 128.406 62.2 128.186 62.107 127.919 62.107L125.798 62.107ZM132.681 68C132.428 68 132.193 67.961 131.976 67.882 131.759 67.803 131.572 67.694 131.416 67.555 131.259 67.417 131.135 67.253 131.045 67.064 130.955 66.874 130.91 66.669 130.91 66.449 130.91 66.215 130.964 66.004 131.07 65.815 131.177 65.626 131.329 65.462 131.526 65.323 131.722 65.184 131.956 65.077 132.226 65.001 132.496 64.926 132.795 64.888 133.122 64.888 133.368 64.888 133.612 64.908 133.852 64.949 134.092 64.99 134.309 65.045 134.502 65.115L134.502 64.774C134.502 64.409 134.392 64.123 134.172 63.918 133.952 63.713 133.635 63.611 133.222 63.611 132.941 63.611 132.666 63.66 132.396 63.757 132.126 63.855 131.848 63.995 131.561 64.178L131.221 63.516C131.894 63.087 132.595 62.873 133.322 62.873 134.042 62.873 134.602 63.046 135.003 63.393 135.403 63.74 135.603 64.238 135.603 64.888L135.603 66.676C135.603 66.896 135.7 67.01 135.893 67.016L135.893 67.905C135.786 67.924 135.695 67.937 135.618 67.943 135.541 67.95 135.466 67.953 135.393 67.953 135.179 67.953 135.014 67.902 134.898 67.801 134.781 67.7 134.709 67.571 134.682 67.414L134.652 67.101C134.419 67.391 134.13 67.614 133.787 67.768 133.443 67.923 133.075 68 132.681 68ZM132.981 67.234C133.248 67.234 133.5 67.188 133.737 67.097 133.974 67.005 134.159 66.877 134.292 66.714 134.432 66.6 134.502 66.48 134.502 66.354L134.502 65.701C134.316 65.632 134.117 65.578 133.907 65.541 133.697 65.503 133.492 65.484 133.292 65.484 132.898 65.484 132.576 65.564 132.326 65.725 132.076 65.886 131.951 66.099 131.951 66.364 131.951 66.609 132.048 66.816 132.241 66.983 132.435 67.15 132.681 67.234 132.981 67.234ZM139.875 63.857C139.448 63.869 139.07 63.962 138.74 64.136 138.409 64.309 138.174 64.557 138.034 64.878L138.034 67.905 136.934 67.905 136.934 62.958 137.954 62.958 137.954 64.065C138.134 63.724 138.369 63.452 138.66 63.247 138.95 63.042 139.262 62.93 139.595 62.911L139.76 62.911C139.804 62.911 139.842 62.914 139.875 62.92L139.875 63.857ZM148.68 67.905L147.579 67.905 147.579 65.134C147.579 64.673 147.499 64.336 147.339 64.122 147.179 63.907 146.946 63.8 146.639 63.8 146.325 63.8 146.04 63.909 145.783 64.126 145.527 64.344 145.342 64.626 145.228 64.973L145.228 67.905 144.128 67.905 144.128 65.134C144.128 64.667 144.048 64.328 143.887 64.117 143.727 63.906 143.497 63.8 143.197 63.8 142.884 63.8 142.597 63.907 142.337 64.122 142.076 64.336 141.89 64.617 141.776 64.964L141.776 67.905 140.676 67.905 140.676 62.958 141.676 62.958 141.676 63.951C141.883 63.605 142.155 63.338 142.492 63.152 142.829 62.966 143.214 62.873 143.647 62.873 144.081 62.873 144.423 62.98 144.673 63.195 144.923 63.409 145.078 63.677 145.138 63.999 145.358 63.633 145.635 63.354 145.969 63.161 146.302 62.969 146.682 62.873 147.109 62.873 147.416 62.873 147.671 62.928 147.875 63.039 148.078 63.149 148.24 63.295 148.36 63.478 148.48 63.661 148.563 63.874 148.61 64.117 148.657 64.36 148.68 64.617 148.68 64.888L148.68 67.905ZM152.772 68C152.372 68 152.01 67.91 151.687 67.73 151.363 67.551 151.108 67.309 150.921 67.007L150.921 67.905 149.951 67.905 149.951 61 151.051 61 151.051 63.895C151.258 63.579 151.517 63.33 151.827 63.147 152.137 62.964 152.502 62.873 152.922 62.873 153.269 62.873 153.586 62.944 153.873 63.086 154.16 63.228 154.405 63.417 154.608 63.653 154.812 63.89 154.968 64.164 155.079 64.476 155.189 64.789 155.244 65.115 155.244 65.455 155.244 65.809 155.18 66.14 155.053 66.449 154.927 66.758 154.753 67.027 154.533 67.257 154.313 67.488 154.051 67.669 153.748 67.801 153.444 67.934 153.119 68 152.772 68ZM152.482 67.111C152.722 67.111 152.942 67.065 153.142 66.974 153.343 66.882 153.514 66.761 153.658 66.609 153.801 66.458 153.913 66.283 153.993 66.084 154.073 65.886 154.113 65.676 154.113 65.455 154.113 65.235 154.075 65.022 153.998 64.817 153.921 64.612 153.814 64.432 153.678 64.278 153.541 64.123 153.378 63.999 153.187 63.904 152.997 63.809 152.789 63.762 152.562 63.762 152.222 63.762 151.92 63.866 151.657 64.074 151.393 64.282 151.191 64.535 151.051 64.831L151.051 66.136C151.091 66.282 151.161 66.412 151.261 66.529 151.361 66.646 151.478 66.748 151.612 66.836 151.745 66.925 151.888 66.993 152.042 67.04 152.195 67.087 152.342 67.111 152.482 67.111ZM158.605 68C158.199 68 157.828 67.932 157.495 67.797 157.161 67.661 156.876 67.477 156.639 67.243 156.403 67.01 156.219 66.739 156.089 66.43 155.959 66.121 155.894 65.793 155.894 65.446 155.894 65.099 155.959 64.77 156.089 64.457 156.219 64.145 156.403 63.871 156.639 63.634 156.876 63.398 157.161 63.212 157.495 63.076 157.828 62.941 158.202 62.873 158.615 62.873 159.022 62.873 159.391 62.942 159.721 63.081 160.051 63.22 160.333 63.404 160.566 63.634 160.8 63.865 160.978 64.133 161.102 64.439 161.225 64.744 161.287 65.064 161.287 65.399 161.287 65.474 161.284 65.545 161.277 65.611 161.27 65.678 161.264 65.733 161.257 65.777L157.065 65.777C157.085 65.998 157.14 66.196 157.23 66.373 157.32 66.55 157.436 66.702 157.58 66.832 157.723 66.961 157.887 67.06 158.07 67.13 158.254 67.199 158.445 67.234 158.645 67.234 158.792 67.234 158.937 67.216 159.081 67.182 159.224 67.147 159.356 67.097 159.476 67.03 159.596 66.964 159.703 66.884 159.796 66.789 159.889 66.695 159.963 66.591 160.016 66.477L160.957 66.732C160.777 67.105 160.478 67.409 160.061 67.645 159.644 67.882 159.159 68 158.605 68ZM160.196 65.058C160.176 64.85 160.121 64.658 160.031 64.481 159.941 64.305 159.826 64.155 159.686 64.032 159.546 63.909 159.383 63.813 159.196 63.743 159.009 63.674 158.812 63.639 158.605 63.639 158.399 63.639 158.204 63.674 158.02 63.743 157.837 63.813 157.675 63.909 157.535 64.032 157.395 64.155 157.281 64.305 157.195 64.481 157.108 64.658 157.055 64.85 157.035 65.058L160.196 65.058ZM165.829 67.905L164.158 65.626 163.288 66.401 163.288 67.905 162.187 67.905 162.187 61 163.288 61 163.288 65.38 165.689 62.968 166.89 62.968 164.859 65.039 167 67.905 165.829 67.905Z" class="a"/><g class="a"><path d="M93.01 35.659C83.28 35.659 75.36 27.744 75.36 18.01 75.36 8.275 83.28 0.36 93.01 0.36 102.739 0.36 110.659 8.275 110.659 18.01 110.659 27.744 102.739 35.659 93.01 35.659ZM93.01 1.32C83.808 1.32 76.32 8.808 76.32 18.01 76.32 27.211 83.808 34.699 93.01 34.699 102.211 34.699 109.699 27.211 109.699 18.01 109.699 8.808 102.211 1.32 93.01 1.32Z"/><path d="M93.01 33.514C84.461 33.514 77.506 26.558 77.506 18.01 77.506 9.461 84.461 2.506 93.01 2.506 101.558 2.506 108.514 9.461 108.514 18.01 108.514 26.558 101.558 33.514 93.01 33.514ZM93.01 3.466C84.989 3.466 78.466 9.989 78.466 18.01 78.466 26.03 84.989 32.554 93.01 32.554 101.03 32.554 107.554 26.03 107.554 18.01 107.554 9.989 101.03 3.466 93.01 3.466Z"/><path d="M104.434 14.87C104.194 14.76 103.906 14.87 103.8 15.11L100.32 22.877 97.243 16.978C97.646 16.2 98.669 14.155 98.669 13.354 98.669 12.269 97.786 11.39 96.706 11.39 95.626 11.39 94.742 12.274 94.742 13.354 94.742 14.15 95.765 16.2 96.163 16.978L93.043 22.944 89.818 16.757C89.808 16.742 89.798 16.733 89.789 16.718 89.77 16.69 89.75 16.666 89.726 16.642 89.702 16.618 89.678 16.598 89.65 16.579 89.635 16.57 89.626 16.555 89.611 16.55 89.597 16.546 89.582 16.546 89.573 16.541 89.544 16.526 89.51 16.522 89.477 16.512 89.448 16.507 89.419 16.502 89.39 16.502 89.362 16.502 89.328 16.507 89.299 16.512 89.266 16.517 89.237 16.526 89.208 16.541 89.194 16.546 89.179 16.546 89.17 16.55 89.155 16.56 89.146 16.574 89.131 16.579 89.102 16.598 89.078 16.618 89.059 16.637 89.035 16.661 89.016 16.685 88.997 16.714 88.987 16.728 88.973 16.738 88.968 16.752L85.738 22.949 82.224 15.11C82.114 14.87 81.83 14.76 81.59 14.87 81.35 14.981 81.24 15.264 81.35 15.504L85.234 24.173C85.315 24.35 85.488 24.456 85.67 24.456 85.68 24.456 85.685 24.451 85.694 24.451 85.709 24.451 85.723 24.456 85.738 24.456 85.91 24.456 86.078 24.36 86.165 24.197L89.39 18.01 92.616 24.197C92.63 24.221 92.645 24.24 92.664 24.259 92.669 24.269 92.674 24.274 92.678 24.283 92.717 24.331 92.765 24.37 92.818 24.398 92.818 24.398 92.818 24.398 92.818 24.398 92.822 24.398 92.827 24.403 92.832 24.403 92.899 24.437 92.966 24.456 93.043 24.456 93.12 24.456 93.192 24.437 93.264 24.403 93.269 24.398 93.274 24.394 93.278 24.389 93.322 24.365 93.36 24.331 93.398 24.293 93.413 24.278 93.422 24.259 93.437 24.24 93.446 24.226 93.461 24.211 93.47 24.192L96.696 18.005 99.922 24.192C99.941 24.226 99.96 24.254 99.984 24.278 99.989 24.283 99.994 24.293 99.998 24.298 100.037 24.341 100.085 24.37 100.133 24.394 100.138 24.398 100.142 24.403 100.152 24.408 100.162 24.413 100.166 24.408 100.176 24.413 100.229 24.432 100.286 24.446 100.344 24.446 100.344 24.446 100.349 24.446 100.349 24.446 100.349 24.446 100.349 24.446 100.354 24.446 100.397 24.446 100.435 24.442 100.478 24.427 100.493 24.422 100.502 24.418 100.517 24.413 100.536 24.403 100.555 24.398 100.574 24.389 100.579 24.384 100.584 24.379 100.589 24.379 100.637 24.35 100.68 24.317 100.718 24.274 100.728 24.264 100.733 24.25 100.738 24.24 100.757 24.216 100.776 24.187 100.79 24.158L104.674 15.49C104.784 15.264 104.674 14.981 104.434 14.87ZM96.696 12.35C97.248 12.35 97.699 12.802 97.699 13.354 97.699 13.728 97.195 14.89 96.696 15.917 96.192 14.89 95.693 13.728 95.693 13.354 95.693 12.802 96.144 12.35 96.696 12.35Z"/></g></g></svg>