<svg xmlns="http://www.w3.org/2000/svg" viewBox="0 0 178.59 66.96"><defs><style>.a{fill:#fff;}</style></defs><title>ww_website_logo_mobile2</title><path class="a" d="M5.31,44H7L8.4,47.9,9.81,44h1.68L9.55,49.1l1.7,4.18L14.78,44h2L12.06,55.36H10.53L8.42,50.27,6.29,55.36H4.75L.06,44H2l3.55,9.28L7.26,49.1ZM20.64,55.52a4.49,4.49,0,0,1-1.78-.35,4.11,4.11,0,0,1-1.36-.93,4.17,4.17,0,0,1-.88-1.38,4.42,4.42,0,0,1-.32-1.66,4.52,4.52,0,0,1,.32-1.68,4.21,4.21,0,0,1,.88-1.39,4,4,0,0,1,1.36-.94,4.51,4.51,0,0,1,1.8-.35,4.16,4.16,0,0,1,1.76.36,4.21,4.21,0,0,1,1.36.93,4.17,4.17,0,0,1,.85,1.36,4.49,4.49,0,0,1,.3,1.63c0,.12,0,.24,0,.36s0,.2,0,.28h-6.7a2.83,2.83,0,0,0,.26,1,2.59,2.59,0,0,0,.56.78,2.31,2.31,0,0,0,.78.5,2.43,2.43,0,0,0,.92.18,2.74,2.74,0,0,0,.7-.09,2.51,2.51,0,0,0,.63-.25,2.55,2.55,0,0,0,.51-.41,2.07,2.07,0,0,0,.36-.53l1.5.43A3.54,3.54,0,0,1,23,54.92,4.44,4.44,0,0,1,20.64,55.52Zm2.54-5a2.9,2.9,0,0,0-.26-1,2.65,2.65,0,0,0-.55-.76,2.54,2.54,0,0,0-.79-.48,2.46,2.46,0,0,0-.94-.18,2.5,2.5,0,0,0-.94.18,2.44,2.44,0,0,0-.77.48,2.47,2.47,0,0,0-.55.76,3.14,3.14,0,0,0-.25,1Zm3.2-6.86h1.76v9.26a1.05,1.05,0,0,0,.24.73.9.9,0,0,0,.68.26,1.62,1.62,0,0,0,.4-.06,2.52,2.52,0,0,0,.44-.15l.26,1.38a4.07,4.07,0,0,1-.91.28,4.88,4.88,0,0,1-.95.1A1.92,1.92,0,0,1,26.89,55a1.87,1.87,0,0,1-.51-1.41Zm4.26,7.48a4.61,4.61,0,0,1,.3-1.66,4.33,4.33,0,0,1,.88-1.38,4.11,4.11,0,0,1,1.36-.93,4.51,4.51,0,0,1,1.8-.35,4.23,4.23,0,0,1,2.23.57,3.69,3.69,0,0,1,1.4,1.51l-1.71.55a2.33,2.33,0,0,0-.82-.83A2.39,2.39,0,0,0,34,48.56a2.38,2.38,0,0,0-.79.58,2.73,2.73,0,0,0-.53.89,3.15,3.15,0,0,0-.19,1.13,3,3,0,0,0,.2,1.13,2.85,2.85,0,0,0,.54.91,2.76,2.76,0,0,0,.8.6A2.32,2.32,0,0,0,35,54a2.35,2.35,0,0,0,.64-.09,2.15,2.15,0,0,0,.58-.24,2.48,2.48,0,0,0,.47-.37,1.38,1.38,0,0,0,.29-.45l1.73.51a3.45,3.45,0,0,1-1.39,1.55,4.65,4.65,0,0,1-4.08.24,4.16,4.16,0,0,1-1.37-.95A4.33,4.33,0,0,1,31,52.83,4.43,4.43,0,0,1,30.64,51.16Zm13.17,4.36A4.3,4.3,0,0,1,42,55.16a4.06,4.06,0,0,1-2.21-2.32,4.6,4.6,0,0,1,0-3.32,4.14,4.14,0,0,1,.87-1.38,4.46,4.46,0,0,1,4.9-.94,4.35,4.35,0,0,1,1.36.94,4.31,4.31,0,0,1,.87,1.38,4.74,4.74,0,0,1,0,3.32,4.24,4.24,0,0,1-4,2.68Zm-2.5-4.32a3.37,3.37,0,0,0,.19,1.12,2.87,2.87,0,0,0,.53.88,2.55,2.55,0,0,0,.79.6,2.38,2.38,0,0,0,1,.21,2.3,2.3,0,0,0,1-.21,2.47,2.47,0,0,0,.79-.6,2.89,2.89,0,0,0,.53-.9,3.1,3.1,0,0,0,.19-1.12,3.16,3.16,0,0,0-.19-1.11,2.83,2.83,0,0,0-.53-.91,2.47,2.47,0,0,0-.79-.6,2.3,2.3,0,0,0-1-.21,2.15,2.15,0,0,0-1,.22,2.47,2.47,0,0,0-.79.61,3.12,3.12,0,0,0-.54.9A3.18,3.18,0,0,0,41.31,51.2Zm21.17,4.16H60.72V50.67A3,3,0,0,0,60.34,49a1.28,1.28,0,0,0-1.12-.55,2,2,0,0,0-1.37.55A3.12,3.12,0,0,0,57,50.4v5H55.2V50.67A3.06,3.06,0,0,0,54.82,49a1.29,1.29,0,0,0-1.11-.54,2,2,0,0,0-1.37.55,3,3,0,0,0-.9,1.42v5H49.68V47h1.6v1.68a3.52,3.52,0,0,1,1.3-1.35,3.57,3.57,0,0,1,1.85-.48,2.26,2.26,0,0,1,2.39,1.91,3.86,3.86,0,0,1,1.32-1.42A3.53,3.53,0,0,1,60,46.84a2.47,2.47,0,0,1,1.22.28,2.16,2.16,0,0,1,.78.75,3.23,3.23,0,0,1,.4,1.08,7.68,7.68,0,0,1,.11,1.3Zm5.82.16a4.4,4.4,0,0,1-1.77-.35,4.15,4.15,0,0,1-1.37-.93,4.33,4.33,0,0,1-.88-1.38A4.41,4.41,0,0,1,64,51.2a4.52,4.52,0,0,1,.31-1.68,4.38,4.38,0,0,1,.88-1.39,4,4,0,0,1,1.37-.94,4.47,4.47,0,0,1,1.79-.35,4.24,4.24,0,0,1,1.77.36,4.07,4.07,0,0,1,1.35.93,4.19,4.19,0,0,1,.86,1.36,4.7,4.7,0,0,1,.29,1.63c0,.12,0,.24,0,.36s0,.2,0,.28h-6.7a2.83,2.83,0,0,0,.26,1,2.77,2.77,0,0,0,.56.78,2.26,2.26,0,0,0,.79.5,2.39,2.39,0,0,0,.92.18,2.86,2.86,0,0,0,1.33-.34,2.55,2.55,0,0,0,.51-.41,2,2,0,0,0,.35-.53l1.5.43a3.43,3.43,0,0,1-1.43,1.55A4.42,4.42,0,0,1,68.3,55.52Zm2.55-5a2.69,2.69,0,0,0-.27-1A2.47,2.47,0,0,0,70,48.8a2.38,2.38,0,0,0-.78-.48,2.55,2.55,0,0,0-1-.18,2.41,2.41,0,0,0-.93.18,2.49,2.49,0,0,0-.78.48,2.62,2.62,0,0,0-.54.76,2.9,2.9,0,0,0-.26,1ZM81.7,44h1.69l1.39,3.86L86.19,44h1.68L85.94,49.1l1.69,4.18L91.17,44h2L88.45,55.36H86.91L84.8,50.27l-2.13,5.09H81.14L76.45,44h2L82,53.28l1.7-4.18ZM97,55.52a4.4,4.4,0,0,1-1.77-.35,4.15,4.15,0,0,1-1.37-.93A4.33,4.33,0,0,1,93,52.86a4.41,4.41,0,0,1-.31-1.66A4.52,4.52,0,0,1,93,49.52a4.38,4.38,0,0,1,.88-1.39,4,4,0,0,1,1.37-.94A4.47,4.47,0,0,1,97,46.84a4.24,4.24,0,0,1,1.77.36,4.07,4.07,0,0,1,1.35.93,4.19,4.19,0,0,1,.86,1.36,4.7,4.7,0,0,1,.29,1.63c0,.12,0,.24,0,.36s0,.2,0,.28h-6.7a2.83,2.83,0,0,0,.26,1,2.77,2.77,0,0,0,.56.78,2.26,2.26,0,0,0,.79.5,2.39,2.39,0,0,0,.92.18,2.86,2.86,0,0,0,1.33-.34,2.55,2.55,0,0,0,.51-.41,2,2,0,0,0,.35-.53l1.5.43a3.43,3.43,0,0,1-1.43,1.55A4.42,4.42,0,0,1,97,55.52Zm2.55-5a2.69,2.69,0,0,0-.27-1,2.47,2.47,0,0,0-.55-.76,2.38,2.38,0,0,0-.78-.48,2.55,2.55,0,0,0-1-.18,2.41,2.41,0,0,0-.93.18,2.49,2.49,0,0,0-.78.48,2.62,2.62,0,0,0-.54.76,2.9,2.9,0,0,0-.26,1Zm7.89-2a4,4,0,0,0-1.82.47,2.48,2.48,0,0,0-1.13,1.26v5.12h-1.76V47h1.63v1.87a3.79,3.79,0,0,1,1.13-1.38,2.71,2.71,0,0,1,1.5-.57h.45Zm7.1,6.85-2.67-3.86-1.39,1.31v2.55h-1.76V43.68h1.76v7.4L114.34,47h1.92L113,50.51l3.42,4.85Zm6,.16a6.3,6.3,0,0,1-2-.33,5,5,0,0,1-1.72-.94l.7-1.12A6.38,6.38,0,0,0,119,54a4.33,4.33,0,0,0,1.5.28,2.15,2.15,0,0,0,1.24-.31,1,1,0,0,0,.46-.86.8.8,0,0,0-.51-.77,10.52,10.52,0,0,0-1.6-.53c-.53-.14-1-.27-1.35-.4a3.22,3.22,0,0,1-.91-.45,1.5,1.5,0,0,1-.51-.59,1.8,1.8,0,0,1-.16-.81,2.45,2.45,0,0,1,.25-1.14,2.41,2.41,0,0,1,.68-.84,3.17,3.17,0,0,1,1-.52,4.35,4.35,0,0,1,1.28-.18,5.33,5.33,0,0,1,1.76.29,4.53,4.53,0,0,1,1.45.83L122.88,49a3.93,3.93,0,0,0-2.48-.93,2.2,2.2,0,0,0-1.13.28,1,1,0,0,0-.45.89.77.77,0,0,0,.4.74,3.07,3.07,0,0,0,.56.23c.23.07.52.15.86.23.57.14,1,.28,1.46.42a4.42,4.42,0,0,1,1,.48,1.83,1.83,0,0,1,.59.66,1.93,1.93,0,0,1,.19.9,2.27,2.27,0,0,1-.9,1.9A4,4,0,0,1,120.54,55.52Zm9.56-.6a8.37,8.37,0,0,1-.93.36,3.8,3.8,0,0,1-1.27.2,2.54,2.54,0,0,1-.78-.11,1.82,1.82,0,0,1-.65-.33,1.66,1.66,0,0,1-.44-.59,2.25,2.25,0,0,1-.16-.87V48.35h-1.1V47h1.1V44.24h1.76V47h1.83v1.36h-1.83V53a.88.88,0,0,0,.28.65,1,1,0,0,0,.62.2,1.85,1.85,0,0,0,.7-.13,3.41,3.41,0,0,0,.5-.21Zm3.44.6a3.15,3.15,0,0,1-1.13-.2,2.74,2.74,0,0,1-.9-.56,2.46,2.46,0,0,1-.59-.83,2.55,2.55,0,0,1-.22-1,2.26,2.26,0,0,1,.26-1.07,2.4,2.4,0,0,1,.73-.83,3.45,3.45,0,0,1,1.12-.55,5.32,5.32,0,0,1,1.43-.19,6.62,6.62,0,0,1,1.17.11,5.82,5.82,0,0,1,1,.28v-.58a2,2,0,0,0-.53-1.45,2.1,2.1,0,0,0-1.52-.52,3.77,3.77,0,0,0-1.32.25,7,7,0,0,0-1.34.71l-.54-1.12a6,6,0,0,1,3.36-1.09,3.87,3.87,0,0,1,2.69.88,3.26,3.26,0,0,1,1,2.53v3c0,.37.15.56.46.57v1.51l-.44.06-.36,0a1.14,1.14,0,0,1-.79-.26,1.06,1.06,0,0,1-.34-.66l-.05-.52a3.77,3.77,0,0,1-1.39,1.12A3.92,3.92,0,0,1,133.54,55.52Zm.48-1.3a3.2,3.2,0,0,0,1.2-.23,2.09,2.09,0,0,0,.89-.65.79.79,0,0,0,.34-.61v-1.1a4.94,4.94,0,0,0-.95-.27,4.89,4.89,0,0,0-1-.1,2.69,2.69,0,0,0-1.54.41,1.25,1.25,0,0,0-.6,1.08,1.38,1.38,0,0,0,.46,1A1.71,1.71,0,0,0,134,54.22Zm10.91.7a8.37,8.37,0,0,1-.93.36,3.74,3.74,0,0,1-1.26.2,2.56,2.56,0,0,1-.79-.11,1.9,1.9,0,0,1-.65-.33,1.66,1.66,0,0,1-.44-.59,2.25,2.25,0,0,1-.16-.87V48.35h-1.1V47h1.1V44.24h1.76V47h1.83v1.36h-1.83V53a.92.92,0,0,0,.28.65,1,1,0,0,0,.62.2,1.82,1.82,0,0,0,.7-.13,3.41,3.41,0,0,0,.5-.21Zm5.87,0a7,7,0,0,1-.93.36,3.7,3.7,0,0,1-1.26.2,2.56,2.56,0,0,1-.79-.11,1.77,1.77,0,0,1-.64-.33,1.46,1.46,0,0,1-.44-.59,2.08,2.08,0,0,1-.16-.87V48.35h-1.11V47h1.11V44.24h1.76V47h1.82v1.36h-1.82V53a.85.85,0,0,0,.28.65,1,1,0,0,0,.61.2,1.9,1.9,0,0,0,.71-.13,3.19,3.19,0,0,0,.49-.21Zm9,.6a4.49,4.49,0,0,1-1.78-.35,4.11,4.11,0,0,1-1.36-.93,4.17,4.17,0,0,1-.88-1.38,4.42,4.42,0,0,1-.32-1.66,4.52,4.52,0,0,1,.32-1.68,4.21,4.21,0,0,1,.88-1.39,4,4,0,0,1,1.36-.94,4.51,4.51,0,0,1,1.8-.35,4.16,4.16,0,0,1,1.76.36,4.21,4.21,0,0,1,1.36.93,4.17,4.17,0,0,1,.85,1.36,4.49,4.49,0,0,1,.3,1.63c0,.12,0,.24,0,.36s0,.2,0,.28h-6.7a2.83,2.83,0,0,0,.26,1,2.59,2.59,0,0,0,.56.78,2.31,2.31,0,0,0,.78.5,2.43,2.43,0,0,0,.92.18,2.74,2.74,0,0,0,.7-.09,2.51,2.51,0,0,0,.63-.25,2.55,2.55,0,0,0,.51-.41,2.07,2.07,0,0,0,.36-.53l1.5.43a3.54,3.54,0,0,1-1.43,1.55A4.44,4.44,0,0,1,159.76,55.52Zm2.54-5a2.9,2.9,0,0,0-.26-1,2.65,2.65,0,0,0-.55-.76,2.54,2.54,0,0,0-.79-.48,2.46,2.46,0,0,0-.94-.18,2.5,2.5,0,0,0-.94.18,2.44,2.44,0,0,0-.77.48,2.47,2.47,0,0,0-.55.76,3.14,3.14,0,0,0-.25,1Zm3.11,4.82v-2h1.45v2ZM168.61,44,172,53.1l3.41-9.1h1.9L172.8,55.36h-1.54L166.7,44Zm8.59,11.36v-2h1.46v2Z" transform="translate(-0.06 -1.34)"/><path class="a" d="M21.77,67.32a2.8,2.8,0,0,1-2.07.93,3,3,0,0,1-1.32-.3,3.31,3.31,0,0,1-1.06-.79,3.75,3.75,0,0,1-1-2.54,3.7,3.7,0,0,1,.25-1.37,3.49,3.49,0,0,1,.71-1.14,3.32,3.32,0,0,1,1.07-.78,3.17,3.17,0,0,1,1.35-.28,3.23,3.23,0,0,1,1.71.42,2.75,2.75,0,0,1,1,1.13l-.86.62a1.94,1.94,0,0,0-.8-.87,2.15,2.15,0,0,0-1.12-.29,2,2,0,0,0-.91.21,2.43,2.43,0,0,0-.7.57,2.54,2.54,0,0,0-.44.83,2.92,2.92,0,0,0-.16,1,3.06,3.06,0,0,0,.17,1,2.71,2.71,0,0,0,.49.82,2.16,2.16,0,0,0,.72.55,2,2,0,0,0,.91.21,2.41,2.41,0,0,0,1-.25,3.07,3.07,0,0,0,.94-.79v-.76H20.28v-.83h2.43V68.2h-.94Zm4.45,1a2.65,2.65,0,0,1-1.11-.22,2.72,2.72,0,0,1-.86-.58,3.08,3.08,0,0,1-.55-.86,3,3,0,0,1,0-2.09,3,3,0,0,1,.55-.87,2.74,2.74,0,0,1,.86-.59,2.87,2.87,0,0,1,1.12-.21,2.6,2.6,0,0,1,1.1.22,2.47,2.47,0,0,1,.85.58,2.79,2.79,0,0,1,.54.85,2.92,2.92,0,0,1,.18,1,1.55,1.55,0,0,1,0,.22c0,.07,0,.13,0,.18H24.68a1.83,1.83,0,0,0,.16.63,1.7,1.7,0,0,0,.35.48,1.73,1.73,0,0,0,.49.32,1.66,1.66,0,0,0,.58.11,1.54,1.54,0,0,0,.43-.06,1.29,1.29,0,0,0,.4-.16,1.31,1.31,0,0,0,.32-.25,1.19,1.19,0,0,0,.22-.33l.94.27a2.18,2.18,0,0,1-.9,1A2.75,2.75,0,0,1,26.22,68.3Zm1.59-3.11a1.72,1.72,0,0,0-.16-.61,1.57,1.57,0,0,0-.35-.48,1.44,1.44,0,0,0-.49-.3,1.47,1.47,0,0,0-.59-.11,1.4,1.4,0,0,0-.58.11,1.44,1.44,0,0,0-.49.3,1.54,1.54,0,0,0-.34.48,1.72,1.72,0,0,0-.16.61Zm10,3H36.7V65.27a1.86,1.86,0,0,0-.24-1.07.79.79,0,0,0-.7-.34,1.27,1.27,0,0,0-.86.34,2,2,0,0,0-.55.9v3.1h-1.1V65.27A1.9,1.9,0,0,0,33,64.19a.8.8,0,0,0-.69-.33,1.27,1.27,0,0,0-.86.34,1.82,1.82,0,0,0-.56.89V68.2H29.8V63h1v1a2.29,2.29,0,0,1,.81-.85,2.35,2.35,0,0,1,1.16-.29,1.45,1.45,0,0,1,1,.34,1.39,1.39,0,0,1,.47.85,2.46,2.46,0,0,1,.83-.89,2.16,2.16,0,0,1,1.14-.3,1.55,1.55,0,0,1,.76.17,1.3,1.3,0,0,1,.49.47,2,2,0,0,1,.25.67,4.32,4.32,0,0,1,.07.82Zm3.64.1a2.65,2.65,0,0,1-1.11-.22,2.72,2.72,0,0,1-.86-.58,3.08,3.08,0,0,1-.55-.86,3,3,0,0,1,0-2.09,3,3,0,0,1,.55-.87,2.74,2.74,0,0,1,.86-.59,2.87,2.87,0,0,1,1.12-.21,2.68,2.68,0,0,1,1.11.22,2.52,2.52,0,0,1,.84.58,2.79,2.79,0,0,1,.54.85,2.92,2.92,0,0,1,.18,1,1.55,1.55,0,0,1,0,.22c0,.07,0,.13,0,.18H39.9a1.83,1.83,0,0,0,.16.63,1.74,1.74,0,0,0,.84.8,1.61,1.61,0,0,0,1,.05,1.34,1.34,0,0,0,.39-.16,1.31,1.31,0,0,0,.32-.25,1.19,1.19,0,0,0,.22-.33l.94.27a2.21,2.21,0,0,1-.89,1A2.81,2.81,0,0,1,41.44,68.3ZM43,65.19a1.72,1.72,0,0,0-.16-.61,1.75,1.75,0,0,0-.35-.48,1.44,1.44,0,0,0-.49-.3,1.64,1.64,0,0,0-1.18,0,1.5,1.5,0,0,0-.48.3,1.54,1.54,0,0,0-.34.48,1.72,1.72,0,0,0-.16.61Zm2,3V63h1.1V68.2Zm0-6.09V60.9h1.1v1.21Zm7.11,6.09H51V65.27a1.9,1.9,0,0,0-.24-1.08.78.78,0,0,0-.69-.33,1.36,1.36,0,0,0-.48.09,1.66,1.66,0,0,0-.45.25,2,2,0,0,0-.38.39,1.8,1.8,0,0,0-.25.5V68.2h-1.1V63h1v1a2.14,2.14,0,0,1,.87-.84,2.66,2.66,0,0,1,1.26-.3,1.49,1.49,0,0,1,.77.17,1.22,1.22,0,0,1,.47.46,2.12,2.12,0,0,1,.25.68,4.32,4.32,0,0,1,.07.82Zm3.18.1a3.86,3.86,0,0,1-1.25-.21A3.11,3.11,0,0,1,53,67.51l.44-.7a3.9,3.9,0,0,0,.93.51,2.57,2.57,0,0,0,.94.18,1.39,1.39,0,0,0,.77-.19.6.6,0,0,0,.29-.54.5.5,0,0,0-.32-.48A6.4,6.4,0,0,0,55,66c-.33-.09-.61-.17-.84-.25a2.52,2.52,0,0,1-.57-.28,1,1,0,0,1-.32-.37,1.13,1.13,0,0,1-.1-.51,1.58,1.58,0,0,1,.15-.71,1.7,1.7,0,0,1,.43-.53,2,2,0,0,1,.65-.32,2.58,2.58,0,0,1,.8-.11,3.3,3.3,0,0,1,1.1.18,2.84,2.84,0,0,1,.91.52l-.47.66a2.43,2.43,0,0,0-1.55-.58,1.43,1.43,0,0,0-.71.17.62.62,0,0,0-.28.56.6.6,0,0,0,.06.27.61.61,0,0,0,.2.19,1.59,1.59,0,0,0,.34.14l.54.15a8,8,0,0,1,.91.26,2.55,2.55,0,0,1,.64.3,1.18,1.18,0,0,1,.37.41,1.26,1.26,0,0,1,.12.57,1.42,1.42,0,0,1-.56,1.18A2.47,2.47,0,0,1,55.31,68.3Zm4.45,0a1.78,1.78,0,0,1-.7-.13,1.8,1.8,0,0,1-.57-.34,2,2,0,0,1-.37-.52,1.57,1.57,0,0,1-.13-.65,1.35,1.35,0,0,1,.16-.67,1.6,1.6,0,0,1,.45-.52,2.13,2.13,0,0,1,.71-.34A3.09,3.09,0,0,1,60.2,65a4.4,4.4,0,0,1,.73.06,3.59,3.59,0,0,1,.65.18v-.36a1.22,1.22,0,0,0-.33-.91,1.33,1.33,0,0,0-1-.32,2.43,2.43,0,0,0-.83.15,4.27,4.27,0,0,0-.83.45l-.34-.7a3.64,3.64,0,0,1,2.1-.68,2.38,2.38,0,0,1,1.68.55,2,2,0,0,1,.6,1.58V66.9c0,.23.1.35.29.36v.94l-.28,0h-.22a.64.64,0,0,1-.71-.57l0-.33a2.34,2.34,0,0,1-.86.7A2.5,2.5,0,0,1,59.76,68.3Zm.3-.81a1.86,1.86,0,0,0,.75-.15,1.25,1.25,0,0,0,.56-.4.51.51,0,0,0,.21-.38v-.69A3.06,3.06,0,0,0,61,65.7a3.42,3.42,0,0,0-.62-.06,1.73,1.73,0,0,0-1,.25.78.78,0,0,0-.37.68.84.84,0,0,0,.29.65A1,1,0,0,0,60.06,67.49Zm12,.71h-1.1V65.27a1.86,1.86,0,0,0-.24-1.07.79.79,0,0,0-.7-.34,1.27,1.27,0,0,0-.86.34,2,2,0,0,0-.55.9v3.1h-1.1V65.27a1.9,1.9,0,0,0-.24-1.08.8.8,0,0,0-.69-.33,1.27,1.27,0,0,0-.86.34,1.82,1.82,0,0,0-.56.89V68.2H64V63h1v1a2.29,2.29,0,0,1,.81-.85A2.35,2.35,0,0,1,67,62.88a1.45,1.45,0,0,1,1,.34,1.39,1.39,0,0,1,.47.85,2.46,2.46,0,0,1,.83-.89,2.16,2.16,0,0,1,1.14-.3,1.62,1.62,0,0,1,.77.17,1.35,1.35,0,0,1,.48.47,2,2,0,0,1,.25.67A4.32,4.32,0,0,1,72,65Zm7.38,0-1.67-2.41-.87.82V68.2h-1.1V60.9h1.1v4.63L79.25,63h1.2l-2,2.19,2.14,3Zm4.78-4.28a2.43,2.43,0,0,0-1.13.29,1.6,1.6,0,0,0-.71.79v3.2h-1.1V63h1v1.17a2.45,2.45,0,0,1,.71-.87,1.75,1.75,0,0,1,.93-.35h.28Zm2.91,4.38A2.65,2.65,0,0,1,86,68.08a2.72,2.72,0,0,1-.86-.58,2.82,2.82,0,0,1-.54-3,2.6,2.6,0,0,1,.54-.87,2.74,2.74,0,0,1,.86-.59,2.87,2.87,0,0,1,1.12-.21,2.6,2.6,0,0,1,1.1.22,2.47,2.47,0,0,1,.85.58,2.59,2.59,0,0,1,.53.85,2.72,2.72,0,0,1,.19,1,1.55,1.55,0,0,1,0,.22c0,.07,0,.13,0,.18H85.54a1.63,1.63,0,0,0,.17.63,1.38,1.38,0,0,0,.35.48,1.55,1.55,0,0,0,.48.32,1.61,1.61,0,0,0,1,.05,1.34,1.34,0,0,0,.39-.16,1.31,1.31,0,0,0,.32-.25,1.19,1.19,0,0,0,.22-.33l.94.27a2.21,2.21,0,0,1-.89,1A2.81,2.81,0,0,1,87.08,68.3Zm1.59-3.11a1.54,1.54,0,0,0-.17-.61,1.39,1.39,0,0,0-.34-.48,1.44,1.44,0,0,0-.49-.3,1.47,1.47,0,0,0-.59-.11,1.4,1.4,0,0,0-.58.11,1.44,1.44,0,0,0-.49.3,1.54,1.54,0,0,0-.34.48,1.72,1.72,0,0,0-.16.61Zm3.38,3.11a1.78,1.78,0,0,1-.7-.13,1.65,1.65,0,0,1-.56-.34,1.46,1.46,0,0,1-.37-.52,1.44,1.44,0,0,1-.14-.65,1.35,1.35,0,0,1,.16-.67,1.6,1.6,0,0,1,.45-.52,2.13,2.13,0,0,1,.71-.34,3,3,0,0,1,.89-.12,4.4,4.4,0,0,1,.73.06,3.59,3.59,0,0,1,.65.18v-.36a1.22,1.22,0,0,0-.33-.91,1.33,1.33,0,0,0-1-.32,2.43,2.43,0,0,0-.83.15,4.27,4.27,0,0,0-.83.45l-.34-.7a3.64,3.64,0,0,1,2.1-.68,2.38,2.38,0,0,1,1.68.55A2,2,0,0,1,95,65V66.9c0,.23.1.35.29.36v.94l-.27,0h-.23a.64.64,0,0,1-.71-.57l0-.33a2.29,2.29,0,0,1-.87.7A2.43,2.43,0,0,1,92.05,68.3Zm.3-.81a1.94,1.94,0,0,0,.76-.15,1.27,1.27,0,0,0,.55-.4.51.51,0,0,0,.21-.38v-.69a2.87,2.87,0,0,0-.59-.17,3.34,3.34,0,0,0-.62-.06,1.71,1.71,0,0,0-1,.25.78.78,0,0,0-.37.68.84.84,0,0,0,.29.65A1,1,0,0,0,92.35,67.49Zm6.82.44c-.14.06-.33.14-.58.22a2.3,2.3,0,0,1-.79.13,1.93,1.93,0,0,1-.49-.07A1.44,1.44,0,0,1,96.9,68a1.14,1.14,0,0,1-.27-.37,1.27,1.27,0,0,1-.1-.54V63.82h-.69V63h.69V61.25h1.1V63h1.14v.85H97.63v2.92a.51.51,0,0,0,.18.4.55.55,0,0,0,.38.13,1.32,1.32,0,0,0,.44-.08l.31-.13Zm.76.27V63H101V68.2Zm0-6.09V60.9H101v1.21Zm3.89,6.09-2-5.23H103l1.5,4.3L106,63h1l-2,5.23Zm6.16,0V63h1.1V68.2Zm0-6.09V60.9h1.1v1.21Zm7.11,6.09H116V65.27a1.9,1.9,0,0,0-.24-1.08.78.78,0,0,0-.69-.33,1.36,1.36,0,0,0-.48.09,1.66,1.66,0,0,0-.45.25,2,2,0,0,0-.38.39,1.8,1.8,0,0,0-.25.5V68.2h-1.1V63h1v1a2.14,2.14,0,0,1,.87-.84,2.66,2.66,0,0,1,1.26-.3,1.49,1.49,0,0,1,.77.17,1.32,1.32,0,0,1,.48.46,2.38,2.38,0,0,1,.24.68,4.32,4.32,0,0,1,.07.82Zm9.47-1.83a1.77,1.77,0,0,1-.17.77,1.86,1.86,0,0,1-.47.57,2,2,0,0,1-.7.36,2.65,2.65,0,0,1-.85.13H121V61.1h3.66a1.35,1.35,0,0,1,.67.16,1.57,1.57,0,0,1,.51.41,1.83,1.83,0,0,1,.32.58,1.92,1.92,0,0,1,.12.66,2,2,0,0,1-.26,1,1.62,1.62,0,0,1-.76.68,1.85,1.85,0,0,1,1,.65A1.92,1.92,0,0,1,126.56,66.37Zm-1.15-.21a1.34,1.34,0,0,0-.27-.77,1,1,0,0,0-.31-.24.86.86,0,0,0-.39-.09H122.1v2.17h2.27a1,1,0,0,0,.41-.09.86.86,0,0,0,.33-.23,1,1,0,0,0,.22-.34A1.15,1.15,0,0,0,125.41,66.16Zm-3.31-4.09v2.09h2.06a.92.92,0,0,0,.38-.08,1.4,1.4,0,0,0,.32-.22,1.48,1.48,0,0,0,.21-.32,1.42,1.42,0,0,0,.07-.42,1.13,1.13,0,0,0-.26-.76.85.85,0,0,0-.66-.29ZM129,68.3a1.9,1.9,0,0,1-1.27-.47,1.57,1.57,0,0,1-.36-.52,1.44,1.44,0,0,1-.14-.65,1.35,1.35,0,0,1,.16-.67,1.6,1.6,0,0,1,.45-.52,2.28,2.28,0,0,1,.7-.34,3.16,3.16,0,0,1,.9-.12,4.4,4.4,0,0,1,.73.06,3.59,3.59,0,0,1,.65.18v-.36a1.22,1.22,0,0,0-.33-.91,1.33,1.33,0,0,0-.95-.32,2.29,2.29,0,0,0-.82.15,4.33,4.33,0,0,0-.84.45l-.34-.7a3.64,3.64,0,0,1,2.1-.68,2.38,2.38,0,0,1,1.68.55,2,2,0,0,1,.6,1.58V66.9c0,.23.1.35.29.36v.94l-.28,0h-.22a.66.66,0,0,1-.71-.57l0-.33a2.34,2.34,0,0,1-.86.7A2.5,2.5,0,0,1,129,68.3Zm.3-.81a1.94,1.94,0,0,0,.76-.15,1.27,1.27,0,0,0,.55-.4.51.51,0,0,0,.21-.38v-.69a2.87,2.87,0,0,0-.59-.17,3.42,3.42,0,0,0-.62-.06,1.73,1.73,0,0,0-1,.25.81.81,0,0,0-.37.68.84.84,0,0,0,.29.65A1,1,0,0,0,129.28,67.49Zm6.89-3.57a2.43,2.43,0,0,0-1.13.29,1.6,1.6,0,0,0-.71.79v3.2h-1.1V63h1v1.17a2.35,2.35,0,0,1,.71-.87,1.72,1.72,0,0,1,.93-.35h.28ZM145,68.2h-1.1V65.27a1.86,1.86,0,0,0-.24-1.07.79.79,0,0,0-.7-.34,1.27,1.27,0,0,0-.86.34,2,2,0,0,0-.55.9v3.1h-1.1V65.27a1.9,1.9,0,0,0-.24-1.08.8.8,0,0,0-.69-.33,1.27,1.27,0,0,0-.86.34,1.82,1.82,0,0,0-.56.89V68.2H137V63h1v1a2.24,2.24,0,0,1,.82-.85,2.28,2.28,0,0,1,1.15-.29,1.41,1.41,0,0,1,1.49,1.19,2.46,2.46,0,0,1,.83-.89,2.16,2.16,0,0,1,1.14-.3,1.55,1.55,0,0,1,.76.17,1.3,1.3,0,0,1,.49.47,2,2,0,0,1,.25.67A4.32,4.32,0,0,1,145,65Zm4.09.1a2.15,2.15,0,0,1-1.85-1v1h-1V60.9h1.1V64a2.27,2.27,0,0,1,.78-.79,2,2,0,0,1,1.09-.29,2,2,0,0,1,.95.22,2.39,2.39,0,0,1,.74.6,2.8,2.8,0,0,1,.47.87,3.28,3.28,0,0,1,.16,1,2.8,2.8,0,0,1-.71,1.9,2.32,2.32,0,0,1-1.76.79Zm-.29-.94a1.45,1.45,0,0,0,.66-.15,1.62,1.62,0,0,0,.52-.38,1.88,1.88,0,0,0,.45-1.22,2.2,2.2,0,0,0-.11-.68,2,2,0,0,0-.33-.57,1.53,1.53,0,0,0-.48-.39,1.33,1.33,0,0,0-.63-.15,1.35,1.35,0,0,0-.9.33,2.09,2.09,0,0,0-.61.8v1.38a1.07,1.07,0,0,0,.21.41,1.83,1.83,0,0,0,.35.33,1.72,1.72,0,0,0,.43.21A1.41,1.41,0,0,0,148.77,67.36Zm6.12.94a2.65,2.65,0,0,1-1.11-.22,2.57,2.57,0,0,1-.85-.58,2.69,2.69,0,0,1-.55-.86,2.82,2.82,0,0,1,.55-3,2.59,2.59,0,0,1,.85-.59,2.87,2.87,0,0,1,1.12-.21,2.65,2.65,0,0,1,1.11.22,2.52,2.52,0,0,1,.84.58,2.59,2.59,0,0,1,.53.85,2.72,2.72,0,0,1,.19,1,1.55,1.55,0,0,1,0,.22c0,.07,0,.13,0,.18h-4.19a2.08,2.08,0,0,0,.16.63,1.74,1.74,0,0,0,.84.8,1.61,1.61,0,0,0,1,.05,1.34,1.34,0,0,0,.39-.16,1.31,1.31,0,0,0,.32-.25,1.19,1.19,0,0,0,.22-.33l.94.27a2.21,2.21,0,0,1-.89,1A2.81,2.81,0,0,1,154.89,68.3Zm1.59-3.11a2,2,0,0,0-.16-.61,1.57,1.57,0,0,0-.35-.48,1.44,1.44,0,0,0-.49-.3,1.64,1.64,0,0,0-1.18,0,1.5,1.5,0,0,0-.48.3,1.54,1.54,0,0,0-.34.48,1.72,1.72,0,0,0-.16.61Zm5.63,3-1.67-2.41-.87.82V68.2h-1.1V60.9h1.1v4.63L162,63h1.2l-2,2.19,2.14,3Z" transform="translate(-0.06 -1.34)"/><path class="a" d="M90.05,36.25A17.46,17.46,0,1,1,107.5,18.79,17.48,17.48,0,0,1,90.05,36.25Zm0-34a16.51,16.51,0,1,0,16.5,16.5A16.52,16.52,0,0,0,90.05,2.29Z" transform="translate(-0.06 -1.34)"/><path class="a" d="M90.05,34.13a15.34,15.34,0,1,1,15.33-15.34A15.36,15.36,0,0,1,90.05,34.13Zm0-29.73a14.39,14.39,0,1,0,14.38,14.39A14.41,14.41,0,0,0,90.05,4.4Z" transform="translate(-0.06 -1.34)"/><path class="a" d="M101.35,15.69a.47.47,0,0,0-.63.24l-3.44,7.68-3-5.84a13.07,13.07,0,0,0,1.41-3.58,1.95,1.95,0,1,0-3.89,0,13.07,13.07,0,0,0,1.41,3.58l-3.08,5.9-3.19-6.12,0,0-.06-.08-.07-.06,0,0h0l-.09,0h-.18l-.09,0h0l0,0-.07.06a.42.42,0,0,0-.06.08l0,0-3.2,6.13-3.47-7.75a.48.48,0,0,0-.87.39l3.84,8.57a.48.48,0,0,0,.44.28h.06a.48.48,0,0,0,.43-.25l3.19-6.12,3.19,6.12,0,.06v0a.53.53,0,0,0,.14.12h0a.46.46,0,0,0,.2.05.42.42,0,0,0,.22-.05h0a.52.52,0,0,0,.11-.1.1.1,0,0,0,0-.05l0,0,3.2-6.12,3.19,6.12A.24.24,0,0,0,97,25v0a.71.71,0,0,0,.14.1h0a.32.32,0,0,0,.16,0h0l.12,0h0l.06,0h0a.45.45,0,0,0,.13-.11l0,0a.22.22,0,0,0,0-.08l3.84-8.57A.48.48,0,0,0,101.35,15.69Zm-7.65-2.5a1,1,0,0,1,1,1,10.57,10.57,0,0,1-1,2.53,10.29,10.29,0,0,1-1-2.53A1,1,0,0,1,93.7,13.19Z" transform="translate(-0.06 -1.34)"/></svg>