<?xml version="1.0" encoding="UTF-8"?>
<svg width="673px" height="104px" viewBox="0 0 673 104" version="1.1" xmlns="http://www.w3.org/2000/svg" xmlns:xlink="http://www.w3.org/1999/xlink">
    <!-- Generator: Sketch 55.2 (78181) - https://sketchapp.com -->
    <title>Artboard</title>
    <desc>Created with Sketch.</desc>
    <g id="Artboard" stroke="none" stroke-width="1" fill="none" fill-rule="evenodd">
        <g id="Group" fill="#FFFFFF">
            <g id="Group-4" transform="translate(120.000000, 10.000000)" font-family="Raleway-SemiBold, Raleway" font-weight="500">
                <text id="Welcome-Werkstatt-e." font-size="48">
                    <tspan x="0" y="45">Welcome Werkstatt e. V.</tspan>
                </text>
                <text id="Gemeinsam-kreativ-in" font-size="24">
                    <tspan x="0" y="79">Gemeinsam kreativ in Barmbek</tspan>
                </text>
            </g>
            <g id="Logo_WW_white_cmyk" fill-rule="nonzero">
                <path d="M52,104 C23.3342399,104 0,80.6799021 0,52 C0,23.3200979 23.3342399,0 52,0 C80.6657601,0 104,23.3200979 104,52 C104,80.6799021 80.6657601,104 52,104 Z M52,2.82839271 C24.8898559,2.82839271 2.82839271,24.8898559 2.82839271,52 C2.82839271,79.1101441 24.8898559,101.171607 52,101.171607 C79.1101441,101.171607 101.171607,79.1101441 101.171607,52 C101.171607,24.8898559 79.1101441,2.82839271 52,2.82839271 Z" id="Shape"></path>
                <path d="M52,97.8823529 C26.7007831,97.8823529 6.11764706,77.2992169 6.11764706,52 C6.11764706,26.7007831 26.7007831,6.11764706 52,6.11764706 C77.2992169,6.11764706 97.8823529,26.7007831 97.8823529,52 C97.8823529,77.2992169 77.2992169,97.8823529 52,97.8823529 Z M52,8.95865962 C28.26334,8.95865962 8.95865962,28.26334 8.95865962,52 C8.95865962,75.73666 28.26334,95.0413404 52,95.0413404 C75.73666,95.0413404 95.0413404,75.73666 95.0413404,52 C95.0413404,28.26334 75.73666,8.95865962 52,8.95865962 Z" id="Shape"></path>
                <path d="M85.828627,42.9471409 C85.1177922,42.6197577 84.2647905,42.9471409 83.9520232,43.6588437 L73.6449189,66.6895449 L64.5320171,49.1958911 C65.7262195,46.8899742 68.7543757,40.8262667 68.7543757,38.4491795 C68.7543757,35.2322831 66.1385037,32.627451 62.9397472,32.627451 C59.7409907,32.627451 57.1251187,35.2465171 57.1251187,38.4491795 C57.1251187,40.8120327 60.1532749,46.8899742 61.3332606,49.1958911 L52.0924085,66.8888217 L42.5387891,48.5411246 C42.5103557,48.4984224 42.4819223,48.4699543 42.453489,48.4272522 C42.3966222,48.3418478 42.3397554,48.2706776 42.2686719,48.1995073 C42.1975884,48.128337 42.126505,48.0714008 42.0412048,48.0144646 C41.9985547,47.9859965 41.9701213,47.9432943 41.9274712,47.9290602 C41.8848211,47.9148262 41.842171,47.9148262 41.8137377,47.9005921 C41.7284375,47.85789 41.6289206,47.8436559 41.5294037,47.8151878 C41.4441036,47.8009537 41.3588034,47.7867197 41.2735032,47.7867197 C41.1882031,47.7867197 41.0886862,47.8009537 41.003386,47.8151878 C40.9038691,47.8294218 40.818569,47.85789 40.7332688,47.9005921 C40.6906187,47.9148262 40.6479686,47.9148262 40.6195352,47.9290602 C40.5768851,47.9575283 40.5484518,48.0002305 40.5058017,48.0144646 C40.4205015,48.0714008 40.349418,48.128337 40.2925512,48.1852732 C40.2214678,48.2564435 40.164601,48.3276138 40.1077342,48.4130181 C40.0793008,48.4557203 40.0366507,48.4841884 40.022434,48.5268906 L30.4545979,66.9030557 L20.0479768,43.6588437 C19.7209928,42.9471409 18.8822078,42.6197577 18.171373,42.9471409 C17.4605382,43.2745242 17.1335542,44.1143335 17.4605382,44.8260362 L28.9618449,70.5327398 C29.2035287,71.0593998 29.7153298,71.372549 30.2555642,71.372549 C30.2839976,71.372549 30.2982143,71.358315 30.3266477,71.358315 C30.3692978,71.358315 30.4119478,71.372549 30.4545979,71.372549 C30.966399,71.372549 31.4639833,71.0878679 31.7198838,70.60391 L41.2735032,52.256213 L50.8271226,70.60391 C50.8697727,70.6750803 50.9124228,70.7320165 50.9692896,70.7889528 C50.9835063,70.8174209 50.997723,70.8316549 51.0119397,70.860123 C51.1256732,71.0024636 51.2678402,71.116336 51.4242238,71.2017404 C51.4242238,71.2017404 51.4242238,71.2017404 51.4242238,71.2017404 C51.4384405,71.2017404 51.4526572,71.2159744 51.4668739,71.2159744 C51.6659077,71.3156128 51.8649414,71.372549 52.0924085,71.372549 C52.3198756,71.372549 52.5331261,71.3156128 52.7463765,71.2159744 C52.7605932,71.2017404 52.7748099,71.1875063 52.7890266,71.1732722 C52.9169769,71.102102 53.0307104,71.0024636 53.144444,70.8885911 C53.1870941,70.845889 53.2155275,70.7889528 53.2581776,70.7320165 C53.2866109,70.6893144 53.329261,70.6466122 53.3576944,70.589676 L62.9113138,52.2419789 L72.4649332,70.589676 C72.5218,70.6893144 72.5786668,70.7747187 72.6497502,70.845889 C72.6639669,70.860123 72.6781836,70.8885911 72.6924003,70.9028252 C72.8061339,71.0309317 72.9483009,71.116336 73.0904678,71.1875063 C73.1046845,71.2017404 73.1189012,71.2159744 73.1473346,71.2302085 C73.175768,71.2444425 73.1899847,71.2302085 73.2184181,71.2444425 C73.3748017,71.3013787 73.5454021,71.3440809 73.7160024,71.3440809 C73.7160024,71.3440809 73.7302191,71.3440809 73.7302191,71.3440809 C73.7302191,71.3440809 73.7302191,71.3440809 73.7444358,71.3440809 C73.8723861,71.3440809 73.9861196,71.3298469 74.1140699,71.2871447 C74.15672,71.2729106 74.1851534,71.2586766 74.2278034,71.2444425 C74.2846702,71.2159744 74.341537,71.2017404 74.3984038,71.1732722 C74.4126205,71.1590382 74.4268372,71.1448041 74.4410539,71.1448041 C74.5832208,71.0593998 74.7111711,70.9597614 74.8249047,70.8316549 C74.8533381,70.8031868 74.8675547,70.7604846 74.8817714,70.7320165 C74.9386382,70.6608463 74.995505,70.5754419 75.0381551,70.4900376 L86.5394618,44.7833341 C86.8664458,44.1143335 86.5394618,43.2745242 85.828627,42.9471409 Z M62.9113138,35.474262 C64.5462338,35.474262 65.8826032,36.8122632 65.8826032,38.4491795 C65.8826032,39.5594358 64.3898501,43.0040772 62.9113138,46.050165 C61.4185608,43.0040772 59.9400244,39.5594358 59.9400244,38.4491795 C59.9400244,36.8122632 61.2763938,35.474262 62.9113138,35.474262 Z" id="Shape"></path>
            </g>
        </g>
    </g>
</svg>